<?xml version="1.0" encoding="UTF-8"?><svg id="Layer_2" xmlns="http://www.w3.org/2000/svg" xmlns:xlink="http://www.w3.org/1999/xlink" viewBox="0 0 16 16"><defs><style>.cls-1{fill:#a65151;}.cls-2{fill:#fff;filter:url(#drop-shadow-1);}</style><filter id="drop-shadow-1" filterUnits="userSpaceOnUse"><feOffset dx="-1" dy="1"/><feGaussianBlur result="blur" stdDeviation="1"/><feFlood flood-color="#000" flood-opacity=".3"/><feComposite in2="blur" operator="in"/><feComposite in="SourceGraphic"/></filter></defs><g id="Layer_1-2"><rect class="cls-2" x="4.14" y="2.88" width="8.99" height="8.99" rx=".72" ry=".72"/><ellipse class="cls-1" cx="7.64" cy="7.51" rx="1.2" ry="1.16"/><path class="cls-1" d="m11.4,5.1c0,.32-.23.83-.62,1.05-.45.26-1.12.2-1.86.2s-1.47.04-1.92-.23c-.36-.22-.55-.71-.55-1.02s.19-.71.52-.92c.45-.29,1.17-.2,1.96-.2.68,0,1.3-.08,1.75.15s.73.63.73.98Z"/><circle class="cls-1" cx="10.01" cy="7.5" r="1.18"/><rect class="cls-1" x="7.55" y="6.35" width="1.31" height="2.33"/><path class="cls-1" d="m8.86,8.67v1.32s-.06.99-1.15,1.04-1.21-.92-1.21-.92c0,0-.09-1.06.57-1.32s1.79-.12,1.79-.12Z"/></g></svg>