<?xml version="1.0" encoding="UTF-8"?><svg id="Layer_2" xmlns="http://www.w3.org/2000/svg" viewBox="0 0 3670 1700"><defs><style>.cls-1,.cls-2{letter-spacing:0em;}.cls-3{letter-spacing:-.04em;}.cls-4{font-family:ShowcardGothic-Reg, 'Showcard Gothic';stroke:#000;stroke-width:6px;}.cls-4,.cls-5,.cls-6,.cls-7{font-size:264.76px;}.cls-8{font-size:284.1px;}.cls-8,.cls-9{font-family:MyriadPro-Regular, 'Myriad Pro';}.cls-10{letter-spacing:-.01em;}.cls-11{letter-spacing:0em;}.cls-12{fill:#4083e3;}.cls-12,.cls-13,.cls-14,.cls-15,.cls-16,.cls-17,.cls-2,.cls-18,.cls-19,.cls-20,.cls-21{stroke-miterlimit:10;}.cls-13{fill:#e92e19;}.cls-22{letter-spacing:0em;}.cls-5{font-family:CarlMarx-Bold, CarlMarx;}.cls-5,.cls-6{font-weight:700;}.cls-14{fill:#481081;}.cls-15{fill:#4ab11a;}.cls-23,.cls-18,.cls-20,.cls-21{letter-spacing:0em;}.cls-24{letter-spacing:0em;}.cls-25{letter-spacing:0em;}.cls-26{fill:#fff;stroke-width:0px;}.cls-27{letter-spacing:0em;}.cls-6{font-family:GillSans-UltraBold, 'Gill Sans Ultra Bold';}.cls-16,.cls-21{fill:#f8fa31;}.cls-17,.cls-20{fill:#8a29fc;}.cls-28{letter-spacing:-.05em;}.cls-2,.cls-18,.cls-19{fill:#ed871f;}.cls-7{font-family:Bungee-Regular, Bungee;}.cls-9{font-size:185.71px;}.cls-29{letter-spacing:-.03em;}.cls-30{letter-spacing:0em;}</style></defs><g id="Layer_1-2"><rect class="cls-26" width="3670" height="1700" rx="12" ry="12"/><text class="cls-9" transform="translate(1178.28 249.44)"><tspan class="cls-29" x="0" y="0">F</tspan><tspan x="84.68" y="0">o</tspan><tspan class="cls-25" x="186.64" y="0">n</tspan><tspan x="288.96" y="0">ts </tspan><tspan class="cls-10" x="463.34" y="0">C</tspan><tspan x="569" y="0">onside</tspan><tspan class="cls-30" x="1088.79" y="0">r</tspan><tspan x="1147.66" y="0">ed</tspan></text><text class="cls-7" transform="translate(577.23 638.95)"><tspan x="0" y="0">kids we</tspan><tspan class="cls-3" x="1180.03" y="0">a</tspan><tspan class="cls-22" x="1362.72" y="0">ther</tspan><tspan class="cls-11" x="2107.23" y="0"> </tspan><tspan x="2165.47" y="0">ap</tspan><tspan class="cls-24" x="2539.32" y="0">p</tspan></text><text class="cls-5" transform="translate(879.87 938.84) scale(1.48 1)"><tspan x="0" y="0">Kids weather app</tspan></text><text class="cls-6" transform="translate(554.61 1255.35) scale(.96 1)"><tspan x="0" y="0">Kids </tspan><tspan class="cls-28" x="824.8" y="0">w</tspan><tspan class="cls-1" x="1073.79" y="0">e</tspan><tspan class="cls-27" x="1258.66" y="0">a</tspan><tspan class="cls-23" x="1443.53" y="0">ther app</tspan></text><text class="cls-4" transform="translate(723.24 1566.99) scale(.96 1)"><tspan class="cls-13" x="0" y="0">K</tspan><tspan class="cls-2" x="193.27" y="0">i</tspan><tspan class="cls-21" x="293.59" y="0">d</tspan><tspan class="cls-15" x="480.01" y="0">s</tspan><tspan x="613.17" y="0"> </tspan><tspan class="cls-12" x="666.17" y="0">w</tspan><tspan class="cls-14" x="939.08" y="0">e</tspan><tspan class="cls-20" x="1086.07" y="0">a</tspan><tspan class="cls-13" x="1248.96" y="0">t</tspan><tspan class="cls-18" x="1414.44" y="0">h</tspan><tspan class="cls-16" x="1620.38" y="0">e</tspan><tspan class="cls-14" x="1767.37" y="0">r</tspan><tspan x="1948.49" y="0"> </tspan><tspan class="cls-17" x="2001.5" y="0">a</tspan><tspan class="cls-13" x="2164.39" y="0">p</tspan><tspan class="cls-19" x="2340.47" y="0">p</tspan></text><text class="cls-8" transform="translate(314.4 639.15)"><tspan x="0" y="0">1.</tspan></text><text class="cls-8" transform="translate(265.71 1255.38)"><tspan x="0" y="0">3.</tspan></text><text class="cls-8" transform="translate(416.29 1566.55)"><tspan x="0" y="0">4.</tspan></text><text class="cls-8" transform="translate(602.26 938.48)"><tspan x="0" y="0">2.</tspan></text></g></svg>