<?xml version="1.0" encoding="UTF-8"?><svg id="Layer_2" xmlns="http://www.w3.org/2000/svg" viewBox="0 0 12.3 12.3"><defs><style>.cls-1{fill:#fff;stroke:#8c5153;stroke-width:.2px;}.cls-1,.cls-2{stroke-miterlimit:10;}.cls-2{fill:#a65252;stroke:#804b4f;stroke-width:.25px;}</style></defs><g id="Layer_1-2"><path class="cls-2" d="m2.26.12h7.78c1.18,0,2.13.98,2.13,2.19v7.67c0,1.21-.95,2.19-2.13,2.19H2.26c-1.18,0-2.13-.98-2.13-2.19V2.31C.12,1.1,1.08.12,2.26.12Z"/><path class="cls-1" d="m.55,5.68c0-.4,0-.74-.02-1.03h.7l.04.43h.01c.19-.32.49-.5.87-.5.57,0,1.08.58,1.08,1.56,0,1.12-.61,1.64-1.19,1.64-.31,0-.56-.15-.68-.35h-.01v1.52h-.81v-3.27Zm.81.72c0,.07,0,.14.02.2.05.25.24.45.47.45.35,0,.56-.35.56-.87,0-.49-.19-.86-.55-.86-.23,0-.44.2-.48.48-.01.05-.02.11-.02.17v.42Z"/><path class="cls-1" d="m5.63,4.39h-1.34l-.07.62c.08-.01.14-.01.22-.01.33,0,.67.09.91.29.26.21.42.55.42,1.02,0,.76-.55,1.43-1.49,1.43-.42,0-.77-.11-.96-.23l.15-.71c.15.09.47.2.78.2.34,0,.69-.19.69-.62,0-.42-.28-.68-.97-.68-.19,0-.33.02-.47.04l.22-2.13h1.91v.78Z"/><path class="cls-1" d="m7.89,5.3l-.55.76h0s.81-.18.81-.18v.6l-.82-.16h0s.55.75.55.75l-.45.31-.29-.92h-.01s-.29.92-.29.92l-.44-.31.55-.75h0s-.8.16-.8.16v-.6l.79.19h0s-.54-.77-.54-.77l.45-.3.28.92h.01l.29-.92.45.3Z"/><path class="cls-1" d="m8.73,4.89h.81v2.67c0,1.2-.49,1.62-1.28,1.62-.19,0-.43-.03-.59-.1l.09-.77c.11.04.26.07.41.07.34,0,.55-.18.55-.83v-2.66Z"/><path class="cls-1" d="m9.95,7.01c.15.11.46.23.69.23s.35-.1.35-.25-.08-.24-.38-.35c-.54-.21-.75-.56-.74-.91,0-.57.41-1.01,1.06-1.01.3,0,.57.08.73.18l-.14.66c-.12-.07-.34-.17-.56-.17-.2,0-.31.09-.31.25s.1.22.42.35c.49.2.7.5.71.94,0,.57-.38.99-1.13.99-.34,0-.65-.09-.84-.22l.15-.68Z"/></g></svg>