<?xml version="1.0" encoding="UTF-8"?><svg id="Layer_2" xmlns="http://www.w3.org/2000/svg" viewBox="0 0 5.49 7.63"><defs><style>.cls-1{stroke-width:.3px;}.cls-1,.cls-2{fill:none;stroke:#000;stroke-miterlimit:10;}.cls-3{letter-spacing:0em;}.cls-4{fill:#fff;}.cls-5{font-family:MyriadConceptRoman-Semibold, 'Myriad Variable Concept';font-size:1.23px;font-variation-settings:'wght' 600, 'wdth' 100;font-weight:600;}.cls-2{stroke-width:.31px;}.cls-6{letter-spacing:-.01em;}.cls-7{fill:#a65151;}</style></defs><g id="Layer_1-2"><polygon class="cls-4" points=".28 .82 .52 .16 5.12 .11 5.3 .99 4.93 1.01 4.5 7.39 1.11 7.39 .51 1.23 .51 1.05 .21 .97 .28 .82"/><path class="cls-7" d="m5.36.16c-.01-.08-.08-.14-.17-.14h-2.9s-.03,0-.05,0-.04,0-.06,0h-.49s-.03,0-.05,0-.04,0-.06,0h0c-.07,0-.13-.02-.19-.02-.04,0-.07.01-.11.01-.02,0-.03,0-.05,0h0s-.79.01-.79.01c-.07,0-.14.05-.16.12L.04.89c-.02.05,0,.11.02.15s.08.07.14.07h.27l.48,6.35c0,.09.08.16.17.16h3.46c.09,0,.16-.07.17-.16l.39-6.35h.19c.09,0,.17-.08.17-.17,0-.02,0-.03,0-.05l-.12-.74Zm-.94,7.13H1.27l-.28-3.71c.2.76.87,1.6,1.87,1.85,0,0,1.39-.58,1.77-1.63l-.22,3.49Zm.27-4.33c-.23-.91-1.42-.98-1.82-.23,0,0-.11-.74-1.33-.46-.35.08-.54.33-.59.67l-.14-1.82h3.99l-.11,1.85ZM.43.78l.14-.42h4.48l.07.42H.43Z"/><polygon class="cls-2" points=".62 1.12 1.11 7.39 4.55 7.39 4.99 .95 5.3 .95 5.12 .16 .5 .16 .21 .91 .6 .97 .62 1.12"/><text class="cls-5" transform="translate(1.14 3.95)"><tspan class="cls-3" x="0" y="0">c</tspan><tspan x=".54" y="0">o</tspan><tspan class="cls-6" x="1.24" y="0">ff</tspan><tspan x="1.99" y="0">ee</tspan></text><line class="cls-1" x1=".43" y1=".94" x2="5.05" y2=".94"/></g></svg>