<?xml version="1.0" encoding="UTF-8"?><svg id="Layer_2" xmlns="http://www.w3.org/2000/svg" viewBox="0 0 7.29 7.16"><defs><style>.cls-1{fill:#a65151;stroke:#020000;stroke-miterlimit:10;stroke-width:.2px;}</style></defs><g id="Layer_1-2"><path class="cls-1" d="m2.96,2.88c.47.25.94-.54.96-1.12.02-.58-.4-1.21-.67-1.5-.27-.29-.7-.13-.79.02,0,0-.13.1-.21.37-.04.14-.08.33-.08.57,0,.21.03.41.08.6.12.47.38.88.72,1.06"/><path class="cls-1" d="m4.8,3.48c.39.11.78-.38,1.01-.87.11-.23.18-.46.21-.64.05-.31,0-.77-.21-1.04-.17-.21-.44-.3-.83-.06,0,0-.65.42-.74,1.05-.09.63-.02,1.41.56,1.57"/><path class="cls-1" d="m6.15,2.73s-.35.25-.59.62c-.11.17-.2.37-.22.58-.03.41.03.74.22.92.11.11.26.16.45.16.52,0,1.19-.76,1.19-1.46s-.38-1.25-1.05-.81"/><path class="cls-1" d="m1.85,3.79c.09-.16.1-.4.05-.75-.01-.07-.03-.14-.05-.21-.18-.6-.69-.98-.69-.98-.37-.16-.62-.12-.79.03-.31.28-.32.93-.18,1.28.22.54.63,1.03,1.14.94.26-.05.44-.14.53-.32"/><path class="cls-1" d="m5.32,5.68c-.28-.76-.83-1.51-1.07-1.77-.3-.32-.86-.48-1.16-.18,0,0-.77.46-1.38,1.09-.23.24-.44.5-.58.76-.43.83-.06,1.28.39,1.36.08.01.15.01.23,0,.53-.06,1.39-.51,2.22-.08.47.24.96.27,1.25.08.22-.14.33-.41.25-.8-.03-.15-.08-.31-.14-.46"/></g></svg>