<?xml version="1.0" encoding="UTF-8"?><svg id="Layer_2" xmlns="http://www.w3.org/2000/svg" viewBox="0 0 5.96 3.28"><defs><style>.cls-1{fill:#a65151;font-family:MyriadConceptRoman-Semibold, 'Myriad Variable Concept';font-size:.27px;font-variation-settings:'wght' 600, 'wdth' 100;font-weight:600;letter-spacing:.01em;}</style></defs><g id="Layer_1-2"><text class="cls-1" transform="translate(.39 1.37) rotate(-2.06) scale(.85 1) skewX(-.65)"><tspan x="0" y="0">Dw</tspan></text><path d="m5.83.93l-.02,1.52c0,.05-.02.08-.02.09h-.35s-.02-.04-.02-.07l.02-1.57s.02-.06.02-.07h.35s.02.04.02.1h0Zm-.58,1.87h-.35s-.02-.04-.02-.07l.03-2.1s.02-.06.02-.07h.35s.02.04.02.1v.24s0,.02,0,.03l-.02,1.52s0,.02,0,.03v.24c0,.05-.02.08-.03.09h0Zm-.51.24c0,.05-.02.08-.02.09h-.35s-.02-.04-.02-.1l.04-2.72c0-.05.02-.08.02-.09h.35s.02.04.02.1v.3s0,.02,0,.03l-.03,2.06s0,.02,0,.03v.3h0ZM1.74,1.48l2.49.05v.27s-2.5-.05-2.5-.05v-.27h0Zm-.15,1.49c0,.05-.02.08-.02.09h-.35s-.02-.04-.02-.1v-.3s0-.02,0-.03l.03-2.06s0-.02,0-.03V.24c0-.05.02-.08.03-.09h.35s.02.04.02.1l-.04,2.72h0Zm-.55-.25h-.35s-.02-.04-.02-.1v-.24s0-.02,0-.03l.02-1.52s0-.02,0-.03v-.24c0-.05.02-.08.03-.09h.35s.02.04.02.07l-.03,2.1s-.02.06-.02.07h0Zm-.53-.28H.15s-.02-.04-.02-.1l.02-1.52c0-.05.02-.08.02-.09h.35s.02.04.02.07l-.02,1.56s-.02.06-.02.07h0ZM5.81.69h-.36s-.01,0-.02,0v-.03c0-.14-.06-.25-.15-.25h-.36s-.01,0-.02,0v-.09c0-.06,0-.11-.03-.16-.03-.06-.07-.09-.12-.09h-.36s-.09.02-.12.08c-.02.04-.04.1-.04.16v1.07s-2.51-.05-2.51-.05V.25c.02-.06,0-.11-.02-.16-.03-.06-.07-.09-.12-.09h-.36c-.09,0-.15.1-.15.23v.09s-.01,0-.02,0h-.36c-.09,0-.15.1-.15.23v.03s-.01,0-.02,0H.17s-.09.02-.12.08c-.02.04-.04.1-.04.16L0,2.34c0,.14.06.25.15.25h.36s.01,0,.02,0v.03c0,.06.01.11.03.16.03.06.07.09.12.09h.36s.01,0,.02,0v.09c0,.06,0,.11.03.16.03.06.07.09.12.09h.36s.07,0,.09-.04c.04-.04.06-.11.06-.2v-1.07s2.51.05,2.51.05v1.07c-.02.06,0,.11.02.16.03.06.07.09.12.09h.36s.06,0,.09-.04c.01-.01.02-.02.03-.04.02-.04.04-.1.04-.16v-.09s.01,0,.02,0h.36s.06,0,.09-.04c.01-.01.02-.02.03-.04.02-.04.04-.1.04-.16v-.03s.01,0,.02,0h.36s.07,0,.09-.04c.04-.04.06-.11.06-.2l.02-1.52c0-.06-.01-.11-.03-.16-.03-.06-.07-.09-.12-.09h0Z"/><path d="m5.81.84s.02.04.02.09l-.02,1.52c0,.05-.02.08-.02.09h-.35s-.02-.04-.02-.07l.02-1.57s.02-.06.02-.07h.35Z"/><path d="m5.28.56s.02.04.02.09v.24s0,.02,0,.03l-.02,1.52s0,.02,0,.03v.24c0,.05-.02.08-.03.09h-.35s-.02-.04-.02-.07l.03-2.1s.02-.06.02-.07h.35Z"/><path d="m4.75.22s.02.04.02.09v.3s0,.02,0,.03l-.03,2.06s0,.02,0,.03v.3c0,.05-.02.08-.03.09h-.35s-.02-.04-.02-.1l.04-2.72c0-.05.02-.08.02-.09h.35Z"/><polygon points="4.23 1.53 4.22 1.8 1.73 1.75 1.74 1.48 4.23 1.53 4.23 1.53"/><path d="m1.6.16s.02.04.02.09l-.04,2.72c0,.05-.02.08-.02.09h-.35s-.02-.04-.02-.1v-.3s0-.02,0-.03l.03-2.06s0-.02,0-.03V.24c0-.05.02-.08.03-.09h.35Z"/><path d="m1.06.49s.02.03.02.07l-.03,2.1s-.02.06-.02.07h-.35s-.02-.04-.02-.1v-.24s0-.02,0-.03l.02-1.52s0-.02,0-.03v-.24c0-.05.02-.08.03-.09h.35Z"/><path d="m.53.74s.02.03.02.07l-.02,1.56s-.02.06-.02.07H.15s-.02-.04-.02-.1l.02-1.52c0-.05.02-.08.02-.09h.35Z"/></g></svg>