<?xml version="1.0" encoding="UTF-8"?><svg id="Layer_2" xmlns="http://www.w3.org/2000/svg" viewBox="0 0 10.84 10.84"><defs><style>.cls-1{fill:#fff;stroke:#8c5153;stroke-width:.25px;}.cls-1,.cls-2{stroke-miterlimit:10;}.cls-2{fill:#a65252;stroke:#804b4f;stroke-width:.75px;}</style></defs><g id="Layer_1-2"><path class="cls-2" d="m2.16.38h6.51c.99,0,1.79.82,1.79,1.83v6.42c0,1.01-.8,1.83-1.79,1.83H2.16c-.99,0-1.79-.82-1.79-1.83V2.21C.38,1.19,1.17.38,2.16.38Z"/><path class="cls-1" d="m5.25,6.41h-1.56l-.32,1.01s-.04.06-.08.06h-.79s-.06-.03-.05-.08l1.35-4s.03-.09.04-.14c.02-.09.03-.19.03-.28,0-.02.01-.04.03-.05h1.09s.05.01.05.03l1.53,4.44s0,.07-.04.07h-.88s-.06-.02-.07-.05l-.34-1.03Zm-1.32-.88h1.07c-.03-.09-.06-.2-.1-.31-.04-.12-.08-.24-.11-.37-.04-.13-.08-.26-.12-.4s-.08-.26-.11-.38c-.03-.12-.06-.23-.09-.34h0c-.04.19-.08.37-.14.56-.06.21-.13.42-.19.64-.06.22-.12.42-.18.6h0Zm3.59-1.84c-.14,0-.27-.05-.37-.15-.1-.11-.15-.25-.14-.4,0-.15.05-.28.15-.38s.24-.15.37-.15c.16,0,.29.05.38.15.09.1.14.24.14.38,0,.15-.05.29-.15.4-.1.1-.24.16-.38.15h0Zm-.47,3.74v-3.32s.02-.06.05-.06h.83s.05.02.05.06v3.32s-.02.07-.05.07h-.82s-.06-.03-.06-.07Z"/></g></svg>