<?xml version="1.0" encoding="UTF-8"?><svg id="Layer_2" xmlns="http://www.w3.org/2000/svg" viewBox="0 0 10.89 8.04"><defs><style>.cls-1,.cls-2{fill:#fff;}.cls-3{fill:#a65151;stroke:#020000;}.cls-3,.cls-2,.cls-4{stroke-miterlimit:10;stroke-width:.03px;}.cls-2,.cls-4{stroke:#000;}.cls-4{fill:none;}.cls-5{fill:#010101;}</style></defs><g id="Layer_1-2"><rect class="cls-2" x="9.12" y="1.14" width="1.02" height=".34" rx=".16" ry=".16" transform="translate(1.95 -4.64) rotate(30)"/><path class="cls-3" d="m9.61.46h.58c.07,0,.12.06.12.12v.62h-.83v-.62c0-.07.06-.12.12-.12Z" transform="translate(1.74 -4.84) rotate(30)"/><polygon class="cls-1" points="7.04 4.76 6.86 5.62 7.13 5.87 7.96 5.37 8.03 4.6 7.62 4.41 7.04 4.76"/><path class="cls-5" d="m9.69,1.5c-.14-.08-.29-.16-.43-.23,0,0,0,0,0,0-.01,0-.03-.01-.04-.02,0,0,0,0,0,.01h-.01c-.14-.12-.36.53-.47.64-.55.94-1.12,1.86-1.68,2.79,0,0,0,.01,0,.02-.1.28-.16.58-.24.86h0c-.03.15-.06.3-.08.46,0,.04-.02.09-.02.13,0,0-.02-.01-.02-.02,0,.02.02.05.03.07,0,0,.01,0,.02,0,.24-.13.48-.29.73-.43.17-.11.34-.24.5-.37,0,0,0,0,0,0,0,0,0,0,0,0,.02-.01.03-.03.04-.05,0,0,0,0,0,0,.05-.08.09-.16.13-.24.27-.48.56-.95.8-1.45.18-.37.41-.72.59-1.09,0,0,0,0,0,0,0-.01.01-.03.02-.04,0,0,0,0,0,0,.01-.03.03-.05.04-.08.03-.07.07-.13.1-.2,0,0,0,0,0,0,.08-.15.17-.29.24-.44,0,0,0,0,0,0,.03-.07.06-.16-.02-.2-.08-.03-.14-.08-.21-.12Zm-1.83,3.9c-.21.17-.43.34-.67.47-.07-.05-.15-.1-.22-.15-.02-.01-.04-.03-.05-.04-.02-.01-.04-.03-.06-.04,0,0,0,0,0-.01,0-.02,0-.04.01-.06.07-.27.14-.54.21-.81.44-.16.13.4.31.24.03-.03.08-.05.12-.05.08,0,.15.05.14.15,0,.03-.04.09,0,.11.08-.04.16-.12.25-.04,0,0,0,0,0,0,.03.02.05.05.05.08,0,0,0,0,0,.01-.03.05-.05.11-.1.14Zm1.58-2.82c-.15.26-.29.52-.43.78,0,0,0,0,0,0-.3.63-.66,1.22-1.01,1.83-.05-.1-.21-.15-.3-.07.05-.19-.17-.3-.31-.18.06-.17-.1-.32-.26-.26,0-.01.02-.03.03-.04.63-1.01,1.25-2.02,1.84-3.05.2.12.4.25.61.35.02.01.04.02.06.03,0,0,0,0,0,0,.03.01.05.02.08.04-.1.19-.21.38-.3.57Z"/><path class="cls-5" d="m6.76,6.15s0-.03,0-.05c.02-.13.05-.25.07-.38,0,0,0,0,0,0,0,0,0,0,0,0,0,0,0,0,0,0,.08.05.15.09.23.14.02.02.05.03.07.05-.13.07-.26.16-.38.24h0Z"/><path d="m9.74,2.01c-.1.19-.21.38-.3.57-.15.26-.29.52-.43.78,0,0,0,0,0,0-.3.63-.66,1.22-1.01,1.83-.05-.1-.21-.15-.3-.07.05-.19-.17-.3-.31-.18.06-.17-.1-.32-.26-.26,0-.01.02-.03.03-.04.63-1.01,1.25-2.02,1.84-3.05.2.12.4.25.61.35.02.01.04.02.06.03,0,0,0,0,0,0,.03.01.05.02.08.04h0Z"/><path d="m7.14,5.9c-.13.07-.26.16-.38.24,0-.02,0-.03,0-.05.02-.13.05-.25.07-.38,0,0,0,0,0,0,0,0,0,0,0,0,0,0,0,0,0,0,.08.05.15.09.23.14.02.02.05.03.07.05h0Z"/><path class="cls-4" d="m6.75,6.21c-.18.11-.41.08-.62.1s-.46.13-.48.34c-.01.12.06.24.16.3s.22.09.34.1c.59.04,1.2-.31,1.76-.1.05.02.09.04.12.08.07.09.03.22-.05.29s-.2.1-.31.1c-.26.02-.52-.02-.78,0s-.53.1-.69.3"/></g></svg>