<?xml version="1.0" encoding="UTF-8"?><svg id="Layer_2" xmlns="http://www.w3.org/2000/svg" viewBox="0 0 10.84 10.84"><defs><style>.cls-1{fill:#fff;stroke:#8c5153;stroke-width:.25px;}.cls-1,.cls-2{stroke-miterlimit:10;}.cls-2{fill:#a65252;stroke:#804b4f;stroke-width:.75px;}</style></defs><g id="Layer_1-2"><path class="cls-2" d="m2.16.38h6.51c.99,0,1.79.82,1.79,1.83v6.42c0,1.01-.8,1.83-1.79,1.83H2.16c-.99,0-1.79-.82-1.79-1.83V2.21C.38,1.19,1.17.38,2.16.38Z"/><path class="cls-1" d="m4.43,6.41h-1.56l-.32,1.02s-.04.06-.08.06h-.79s-.06-.03-.05-.08l1.35-3.98s.03-.08.04-.13c.02-.09.03-.19.03-.28,0-.02.01-.04.03-.05h1.09s.05.01.05.03l1.53,4.4s0,.07-.04.07h-.88s-.06-.02-.07-.05l-.34-1.03v.02h0Zm-1.32-.86h1.07c-.03-.09-.06-.2-.1-.31-.04-.12-.08-.24-.11-.37-.04-.13-.08-.26-.12-.4s-.08-.26-.11-.38c-.03-.12-.06-.23-.09-.34h0c-.04.19-.08.37-.14.56-.06.21-.13.42-.19.64-.05.22-.12.42-.18.6h0Zm5.13.47h-1.33c.02.13.06.27.13.38.08.12.18.21.31.26.17.07.35.11.54.11.15,0,.29-.02.44-.05.13-.02.26-.05.37-.1.02-.02.03,0,.03.03v.66s0,.03,0,.05c0,.01-.02.02-.03.03-.13.06-.27.1-.42.13-.2.04-.4.06-.6.05-.32,0-.59-.05-.81-.15-.21-.09-.39-.23-.53-.41-.13-.17-.23-.36-.29-.56-.06-.2-.09-.41-.09-.63,0-.23.03-.46.11-.69.07-.22.17-.41.32-.59.14-.17.31-.31.51-.41s.43-.13.7-.13c.22,0,.45.04.65.13.17.08.32.19.44.34.11.15.2.31.25.49.05.17.08.35.08.53,0,.1,0,.19,0,.28,0,.08-.01.14-.02.18,0,.03-.03.06-.06.06-.03,0-.07,0-.14,0-.07,0-.15.01-.24.01s-.2-.02-.31-.02h0Zm-1.33-.63h.89c.11,0,.19,0,.24,0,.03,0,.07-.01.1-.03v-.04c0-.06,0-.11-.03-.16-.08-.24-.3-.41-.55-.4-.23-.01-.45.11-.56.33-.05.1-.08.2-.09.31h0Z"/></g></svg>