<?xml version="1.0" encoding="UTF-8"?><svg id="Layer_2" xmlns="http://www.w3.org/2000/svg" viewBox="0 0 29.04 34.83"><defs><style>.cls-1{letter-spacing:0em;}.cls-2{letter-spacing:.01em;}.cls-3{letter-spacing:-.01em;}.cls-4{letter-spacing:0em;}.cls-5{fill:#21093f;}.cls-5,.cls-6{stroke-width:0px;}.cls-7{letter-spacing:-.01em;}.cls-8{letter-spacing:0em;}.cls-6,.cls-9{fill:#b895c5;}.cls-10{letter-spacing:.01em;}.cls-11{letter-spacing:0em;}.cls-9{font-size:17.48px;}.cls-9,.cls-12{font-family:MyriadPro-Regular, 'Myriad Pro';}.cls-12{fill:#231f20;font-size:6.04px;}</style></defs><g id="Layer_1-2"><path class="cls-6" d="m4.87,0h19.14c1.66,0,3,1.34,3,3v17.22c0,1.77-1.44,3.2-3.2,3.2H4.87c-1.77,0-3.2-1.44-3.2-3.2V3.2C1.67,1.44,3.1,0,4.87,0Z"/><rect class="cls-5" x="3.33" y="2.07" width="21.88" height="19.24" rx="2.61" ry="2.61"/><text class="cls-9" transform="translate(5.16 17.24)"><tspan class="cls-7" x="0" y="0">A</tspan><tspan x="10.49" y="0">e</tspan></text><text class="cls-12" transform="translate(0 33.32)"><tspan class="cls-11" x="0" y="0">A</tspan><tspan class="cls-2" x="3.65" y="0">f</tspan><tspan class="cls-8" x="5.48" y="0">t</tspan><tspan class="cls-1" x="7.44" y="0">erE</tspan><tspan class="cls-3" x="15.41" y="0">ff</tspan><tspan class="cls-1" x="18.85" y="0">e</tspan><tspan class="cls-10" x="21.87" y="0">c</tspan><tspan class="cls-4" x="24.66" y="0">ts</tspan></text></g></svg>