<?xml version="1.0" encoding="UTF-8"?><svg id="Layer_2" xmlns="http://www.w3.org/2000/svg" viewBox="0 0 8.99 8.99"><defs><style>.cls-1{fill:#fff;}.cls-2{fill:#a65151;fill-rule:evenodd;}</style></defs><g id="Layer_1-2"><path class="cls-1" d="m.72,0h7.55c.4,0,.72.32.72.72v7.55c0,.4-.32.72-.72.72H.72c-.4,0-.72-.32-.72-.72V.72c0-.4.32-.72.72-.72Z"/><path class="cls-2" d="m2.5,6.91v-3.79h.7v3.79h-.7Zm2.7-.46c.07,0,.13,0,.19-.03.06-.02.12-.04.17-.07.05-.03.1-.06.14-.09.04-.03.08-.07.1-.1v-1.3c-.08-.06-.17-.12-.27-.16-.1-.04-.2-.06-.31-.06-.07,0-.14.01-.22.04-.08.03-.15.08-.21.15-.06.07-.12.16-.16.28-.04.12-.06.28-.06.46,0,.28.05.49.16.65.11.16.26.23.47.24h0Zm-1.33-.85c0-.24.03-.45.1-.64.07-.19.16-.35.27-.47.11-.13.25-.22.39-.29.15-.06.3-.09.46-.09.07,0,.14,0,.21.02.07.01.13.03.19.05.06.02.11.05.16.08.05.03.1.06.14.09h0s0-.09,0-.16c0-.07,0-.14,0-.23v-1.14h.67v3.29c0,.18,0,.34,0,.47,0,.13,0,.25.01.35h-.61l-.03-.29h-.01s-.09.09-.14.14c-.06.04-.12.08-.18.12-.07.03-.14.06-.22.08-.08.02-.17.03-.26.03-.15,0-.29-.03-.43-.08-.14-.05-.26-.13-.37-.24-.11-.11-.2-.26-.26-.43-.06-.18-.1-.39-.1-.63Z"/></g></svg>