<?xml version="1.0" encoding="UTF-8"?><svg id="Layer_2" xmlns="http://www.w3.org/2000/svg" viewBox="0 0 12.3 12.3"><defs><style>.cls-1{fill:#fff;stroke-width:0px;}.cls-2{fill:#a65252;stroke:#804b4f;stroke-miterlimit:10;stroke-width:.25px;}</style></defs><g id="Layer_1-2"><path class="cls-2" d="m2.26.12h7.78c1.18,0,2.13.98,2.13,2.19v7.67c0,1.21-.95,2.19-2.13,2.19H2.26c-1.18,0-2.13-.98-2.13-2.19V2.31C.12,1.1,1.08.12,2.26.12Z"/><path class="cls-1" d="m11.37,6.11c0-.78-.87-1.51-2.19-1.97.31-1.52.17-2.73-.43-3.12-.14-.09-.3-.13-.48-.13v.53c.1,0,.18.02.24.06.29.19.42.9.32,1.81-.02.22-.06.46-.11.7-.42-.11-.87-.2-1.35-.26-.29-.44-.59-.84-.89-1.19.69-.72,1.35-1.12,1.79-1.12v-.53c-.59,0-1.35.47-2.13,1.28-.77-.81-1.54-1.27-2.13-1.27v.53c.44,0,1.09.39,1.79,1.11-.3.35-.6.75-.88,1.19-.48.06-.94.15-1.35.26-.05-.24-.09-.47-.11-.69-.1-.91.02-1.62.31-1.81.06-.04.15-.06.24-.06v-.53c-.18,0-.34.04-.48.13-.6.39-.73,1.59-.42,3.11-1.32.46-2.19,1.19-2.19,1.97s.87,1.51,2.19,1.97c-.31,1.52-.17,2.73.43,3.12.14.09.3.13.48.13.59,0,1.35-.47,2.13-1.28.77.81,1.54,1.27,2.13,1.27.18,0,.34-.04.48-.13.6-.39.73-1.59.42-3.11,1.32-.46,2.18-1.19,2.18-1.97h0Zm-2.77-1.59c-.08.31-.18.63-.29.94-.09-.19-.18-.38-.28-.57-.1-.19-.2-.38-.31-.56.3.05.59.11.87.19h0Zm-.97,2.55c-.17.32-.34.63-.51.91-.32.03-.64.05-.96.05s-.64-.02-.96-.05c-.18-.28-.35-.59-.52-.91-.16-.31-.31-.63-.44-.95.13-.32.28-.64.44-.95.17-.32.34-.63.51-.91.32-.03.64-.05.96-.05s.64.02.96.05c.18.28.35.59.52.91.16.31.31.63.44.95-.13.32-.28.64-.44.95h0Zm.69-.31c.11.32.21.64.29.95-.28.08-.57.14-.88.19.1-.18.21-.37.31-.57.1-.19.19-.38.28-.58h0Zm-2.16,2.55c-.2-.23-.4-.49-.59-.76.19,0,.39.02.59.02s.4,0,.59-.02c-.19.28-.39.54-.59.76Zm-1.58-1.41c-.3-.05-.59-.11-.87-.19.08-.31.18-.63.29-.94.09.19.18.38.28.57s.2.38.31.56Zm1.57-4.97c.2.23.4.49.59.76-.19,0-.39-.02-.59-.02s-.4,0-.59.02c.19-.28.39-.54.59-.76Zm-1.57,1.41c-.1.18-.21.37-.31.57-.1.19-.19.38-.28.57-.11-.32-.21-.64-.29-.95.28-.07.57-.14.88-.19h0Zm-1.93,2.99c-.75-.36-1.24-.83-1.24-1.21s.49-.85,1.24-1.21c.18-.09.38-.17.59-.24.12.47.28.96.48,1.46-.2.5-.35.98-.47,1.45-.21-.07-.41-.16-.6-.24h0Zm1.15,3.42c-.29-.19-.42-.9-.32-1.81.02-.22.06-.46.11-.7.42.11.87.2,1.35.26.29.44.59.84.89,1.19-.69.72-1.35,1.12-1.79,1.12-.1,0-.18-.02-.24-.06h0Zm5.05-1.82c.1.91-.02,1.62-.31,1.81-.06.04-.15.06-.24.06-.44,0-1.09-.39-1.79-1.11.3-.35.6-.75.88-1.19.48-.06.94-.15,1.35-.26.05.24.09.47.11.7Zm.82-1.59c-.18.09-.38.17-.59.24-.12-.47-.28-.96-.48-1.46.2-.5.35-.98.47-1.45.21.07.41.16.6.24.75.36,1.24.83,1.24,1.21,0,.38-.49.85-1.24,1.21h0Z"/><ellipse class="cls-1" cx="6.15" cy="6.11" rx=".97" ry="1.09"/></g></svg>