<?xml version="1.0" encoding="UTF-8"?><svg id="Layer_2" xmlns="http://www.w3.org/2000/svg" viewBox="0 0 10.33 14.42"><defs><style>.cls-1{stroke-width:.3px;}.cls-1,.cls-2{fill:none;stroke:#000;stroke-miterlimit:10;}.cls-3{fill:#fff;}.cls-4{letter-spacing:0em;}.cls-2{stroke-width:.31px;}.cls-5{fill:#a65151;}.cls-6{letter-spacing:0em;}.cls-7{font-family:MyriadConceptRoman-Semibold, 'Myriad Variable Concept';font-size:2.33px;font-variation-settings:'wght' 600, 'wdth' 100;font-weight:600;}.cls-8{letter-spacing:-.01em;}</style></defs><g id="Layer_1-2"><polygon class="cls-3" points=".47 1.55 .94 .3 9.63 .21 9.97 1.88 9.27 1.92 8.46 13.97 2.04 13.97 .91 2.32 .92 1.99 .35 1.83 .47 1.55"/><path class="cls-5" d="m10.08.3c-.03-.15-.16-.27-.31-.27h-5.47s-.07.01-.1.01-.07,0-.1-.01h-.92s-.07.01-.1.01-.07,0-.1-.01h-.01c-.13,0-.24-.03-.37-.04-.07,0-.14.02-.21.02-.03,0-.06,0-.09,0v.03S.8.04.8.04c-.14,0-.26.09-.3.22L.02,1.69c-.03.1-.02.2.04.29s.16.13.26.13h.52l.9,12.01c.01.17.15.3.32.3h6.54c.17,0,.31-.13.32-.3l.74-12.01h.35c.18,0,.32-.14.32-.32,0-.03,0-.07-.01-.1l-.23-1.39Zm-1.78,13.48H2.36l-.53-7.01c.38,1.43,1.64,3.02,3.54,3.5,0,0,2.64-1.09,3.34-3.09l-.41,6.6Zm.51-8.18c-.43-1.72-2.69-1.86-3.44-.43,0,0-.2-1.4-2.51-.88-.66.15-1.02.63-1.12,1.27l-.26-3.45h7.54l-.22,3.49ZM.76,1.47l.27-.8h8.47l.13.8H.76Z"/><polygon class="cls-2" points="1.13 2.11 2.04 13.97 8.55 13.97 9.38 1.8 9.97 1.8 9.63 .3 .89 .3 .35 1.72 1.07 1.83 1.13 2.11"/><text class="cls-7" transform="translate(2.1 7.47)"><tspan class="cls-4" x="0" y="0">c</tspan><tspan class="cls-6" x="1.03" y="0">o</tspan><tspan class="cls-8" x="2.34" y="0">ff</tspan><tspan x="3.76" y="0">ee</tspan></text><line class="cls-1" x1=".76" y1="1.78" x2="9.49" y2="1.78"/></g></svg>