<?xml version="1.0" encoding="UTF-8"?><svg id="Layer_2" xmlns="http://www.w3.org/2000/svg" viewBox="0 0 4.62 8.73"><defs><style>.cls-1,.cls-2{fill:#fff;}.cls-2,.cls-3,.cls-4{fill-rule:evenodd;}.cls-3{fill:#a65151;}</style></defs><g id="Layer_1-2"><rect class="cls-1" x=".43" y="3.7" width="3.88" height=".66" rx=".26" ry=".26"/><polygon class="cls-3" points=".55 3.65 4.25 3.65 4.43 3.27 4.43 3.05 4.17 2.77 3.84 2.71 3.86 2.43 3.96 2.2 4.01 1.84 3.75 1.64 3.39 1.51 2.94 1.32 2.68 1.2 2.56 .96 2.49 .64 2.73 .34 2.79 .17 2.51 .17 1.79 .42 1.59 .71 1.59 1.04 1.63 1.28 1.63 1.48 1.52 1.57 1.22 1.69 .99 1.73 .79 1.91 .77 2.08 .79 2.43 .89 2.63 .71 2.64 .46 2.7 .28 2.91 .2 3.21 .15 3.51 .29 3.7 .55 3.65"/><path class="cls-4" d="m2.41,7.69c-.08.03-.18.06-.22.07-.04.01-.08.03-.07.04,0,0,.04.13.09.27.07.24.08.35.11.35.03,0,.04-.01.05-.05.03-.1.18-.68.19-.71,0-.01,0-.02,0-.02s-.07.02-.15.05h0Zm-.03-.88c-.26.1-.48.19-.49.19,0,0,.02.11.06.24.05.17.08.23.09.23.03,0,.53-.18.59-.21.05-.02.05-.02.15-.33.05-.17.09-.3.09-.31,0,0-.06.01-.5.18h0Zm.68-1.18c-.31.16-.83.39-1.2.51-.12.04-.21.08-.21.09,0,.01.14.45.14.46,0,0,.75-.29,1.09-.42l.14-.05.09-.3c.05-.16.1-.31.1-.33,0-.02,0-.03,0-.03s-.07.03-.15.07h0Zm-1.9-.95s.05.15.08.26c.03.11.06.2.07.2,0,0,.43-.15.65-.25.22-.1.56-.26.56-.27,0,0-.31,0-.69,0h-.69l.02.06h0Zm1.81.08c-.43.25-.97.49-1.41.65-.08.03-.15.06-.15.06,0,.02.13.44.14.44.03.02.78-.28,1.15-.46.21-.1.61-.32.64-.35.01,0,.05-.1.08-.21.03-.11.07-.21.07-.23v-.04s-.14,0-.14,0h-.15l-.24.14h0Zm-2.4-.8s0,.06.01.09c0,.04.01.04.04.07.05.07.11.12.2.16.07.03.08.03,1.5.03h1.35c.05,0,.11-.01.16-.03h0c.09-.04.15-.08.2-.15.04-.06.07-.13.05-.19v-.04H.55v.07h0ZM2.21.44c-.25.05-.43.16-.48.31-.05.14-.03.34.07.52.08.16.29.37.43.43.08.04.12.08.12.15,0,.07-.03.12-.09.14-.07.03-.11.03-.2-.01-.09-.04-.26-.16-.31-.22l-.03-.04h-.2c-.11.01-.23.02-.27.03-.1.02-.18.07-.22.15-.03.05-.04.08-.04.2,0,.13,0,.14.05.23.04.07.09.12.25.26.12.11.21.19.22.22.03.08-.02.17-.12.19-.09.02-.13,0-.32-.15l-.12-.09h-.09c-.17.02-.32.08-.39.17-.1.11-.13.36-.06.48.02.04.06.09.09.11l.05.05h1.77s1.77,0,1.77,0l.05-.05c.11-.1.15-.33.1-.44-.05-.11-.23-.22-.38-.24-.06,0-.06,0-.16.08-.09.08-.11.09-.17.1-.09,0-.16-.03-.19-.1-.03-.07,0-.11.1-.22.28-.27.39-.45.39-.64,0-.09-.03-.16-.1-.23-.08-.08-.15-.12-.39-.21-.12-.05-.28-.12-.35-.16-.62-.3-.82-.64-.62-1.03.01-.03,0-.03-.13,0h0ZM3.03,0c.13.01.16.02.2.06.05.05.07.11.05.17-.02.06-.07.09-.15.12-.22.07-.56.32-.47.49.08.15.3.29.78.49.17.07.36.16.41.19.34.22.42.56.22.93l-.05.09.11.04c.35.14.51.37.48.68-.01.13-.07.29-.13.37l-.05.06v.15c.02.24-.03.34-.17.5-.07.07-.2.16-.3.2l-.08.03-.47,1.51c-.26.83-.52,1.68-.59,1.9-.07.21-.13.51-.14.53-.03.07-.11.14-.2.18-.19.08-.44.02-.53-.14-.02-.03-.16-.58-.33-1.11-.16-.53-.37-1.21-.47-1.51-.09-.3-.22-.72-.29-.95-.12-.37-.13-.41-.16-.42-.11-.03-.18-.07-.27-.15-.19-.15-.26-.3-.25-.57v-.13s-.05-.08-.05-.08c-.03-.04-.08-.12-.1-.17C0,3.4,0,3.36,0,3.24c0-.37.2-.63.56-.74.06-.02.12-.04.12-.04,0,0,0-.04-.02-.08-.09-.21-.06-.49.06-.67.05-.07.17-.17.25-.2.08-.04.25-.07.39-.08.09,0,.11-.01.1-.03-.05-.09-.1-.25-.11-.35-.08-.49.25-.83.88-.93.13-.02.7-.12.8-.12h0Z"/><polygon class="cls-2" points=".99 4.29 2.29 8.47 3.66 4.3 .99 4.29"/></g></svg>