<?xml version="1.0" encoding="UTF-8"?><svg id="Layer_2" xmlns="http://www.w3.org/2000/svg" viewBox="0 0 3.87 6.34"><defs><style>.cls-1{fill:#fff;}.cls-2{fill:#a65151;stroke:#020000;stroke-miterlimit:10;stroke-width:.2px;}</style></defs><g id="Layer_1-2"><path class="cls-2" d="m2.65.56c-.18-.28-.47-.46-.81-.46s-.63.19-.82.47c-.44.12-.77.56-.77,1.09s.34.98.79,1.09c.18.27.47.45.8.45s.61-.18.79-.44c.47-.09.84-.55.84-1.1s-.36-1-.82-1.1Z"/><circle class="cls-1" cx="1.86" cy="1.65" r=".64"/><line class="cls-2" x1="1.84" y1="3.2" x2="1.86" y2="6.34"/><path d="m1.86,5.27s.14-.86.85-1.07,1.16-.16,1.16-.16c0,0-.41,1.63-2.01,1.23Z"/><path d="m1.86,5.15s-.86.17-1.31-.43-.55-1.04-.55-1.04c0,0,1.68-.19,1.86,1.46Z"/></g></svg>