<?xml version="1.0" encoding="UTF-8"?><svg id="Layer_2" xmlns="http://www.w3.org/2000/svg" viewBox="0 0 12.3 12.3"><defs><style>.cls-1{fill:#fff;stroke:#8c5153;stroke-width:.2px;}.cls-1,.cls-2{stroke-miterlimit:10;}.cls-2{fill:#a65252;stroke:#804b4f;stroke-width:.25px;}</style></defs><g id="Layer_1-2"><path class="cls-2" d="m2.26.12h7.78c1.18,0,2.13.98,2.13,2.19v7.67c0,1.21-.95,2.19-2.13,2.19H2.26c-1.18,0-2.13-.98-2.13-2.19V2.31C.12,1.1,1.08.12,2.26.12Z"/><path class="cls-1" d="m2.84,8.57V3.28s.02-.06.05-.06c.09,0,.17,0,.28,0,.12,0,.25,0,.38-.01s.28,0,.44-.01.31,0,.46,0c.41,0,.75.05,1.03.16.25.09.48.23.67.42.16.16.29.37.37.59.08.22.12.44.12.67,0,.44-.1.81-.3,1.1s-.48.5-.81.63c-.34.13-.72.18-1.13.18-.12,0-.2,0-.25,0s-.12,0-.22,0v1.65s-.02.07-.06.07h-.97s-.06-.02-.06-.07h0Zm1.09-4.36v1.73c.07,0,.14.01.2.01h.27c.2,0,.39-.03.58-.09.16-.05.3-.14.41-.27.11-.13.16-.3.16-.53,0-.16-.04-.32-.12-.46-.09-.13-.21-.24-.35-.29-.19-.08-.39-.11-.59-.1-.13,0-.25,0-.34,0-.1,0-.17,0-.21,0h0Zm5.83,1.42c-.15-.08-.31-.14-.48-.18-.19-.04-.37-.07-.56-.07-.1,0-.21.01-.3.04-.07.02-.12.05-.16.1-.03.04-.04.09-.04.14s.02.09.05.13c.05.06.11.1.17.14.12.06.24.12.36.17.27.09.53.22.77.38.17.11.3.25.4.43.08.16.12.34.12.53,0,.24-.07.48-.2.68-.14.21-.34.37-.56.46-.25.11-.55.16-.91.16-.23,0-.46-.02-.68-.07-.18-.03-.35-.09-.51-.16-.04-.02-.06-.06-.06-.1v-.9s0-.04.02-.05.03,0,.05,0c.2.12.4.2.62.25.19.05.39.08.59.08s.33-.03.42-.07c.08-.04.14-.12.14-.22,0-.07-.04-.14-.12-.21s-.25-.14-.49-.24c-.26-.09-.49-.22-.71-.37-.16-.11-.29-.26-.38-.44-.08-.16-.12-.34-.12-.53,0-.22.06-.43.17-.62.13-.21.31-.37.53-.47.24-.12.53-.18.89-.18.21,0,.42.02.62.05.15.02.3.06.43.12.02,0,.04.03.05.05,0,.02.01.04.01.06v.84s-.01.04-.03.05c-.05.01-.07.01-.09,0h0Z"/></g></svg>