<?xml version="1.0" encoding="UTF-8"?><svg id="Layer_2" xmlns="http://www.w3.org/2000/svg" xmlns:xlink="http://www.w3.org/1999/xlink" viewBox="0 0 219.32 219.48"><defs><style>.cls-1{filter:url(#drop-shadow-1);}.cls-2{fill:#fff;}.cls-2,.cls-3{stroke-width:0px;}.cls-3{fill:#025959;}</style><filter id="drop-shadow-1" filterUnits="userSpaceOnUse"><feOffset dx="-7" dy="7"/><feGaussianBlur result="blur" stdDeviation="5"/><feFlood flood-color="#000" flood-opacity=".63"/><feComposite in2="blur" operator="in"/><feComposite in="SourceGraphic"/></filter></defs><g id="ELEMENTS"><g class="cls-1"><path class="cls-3" d="m219.32,109.66C219.32,49.1,170.22,0,109.66,0S0,49.1,0,109.66c0,54.73,40.1,100.1,92.53,108.33v-76.63h-27.84v-31.7h27.84v-24.16c0-27.48,16.37-42.66,41.42-42.66,12,0,24.55,2.14,24.55,2.14v26.99h-13.83c-13.62,0-17.87,8.45-17.87,17.13v20.57h30.41l-4.86,31.7h-25.55v76.63c52.42-8.23,92.53-53.59,92.53-108.33Z"/><path class="cls-2" d="m152.35,141.52l4.86-31.7h-30.41v-20.57c0-8.67,4.25-17.13,17.87-17.13h13.83v-26.99s-12.55-2.14-24.55-2.14c-25.05,0-41.42,15.18-41.42,42.66v24.16h-27.84v31.7h27.84v76.63c5.58.88,11.3,1.33,17.13,1.33s11.55-.46,17.13-1.33v-76.63h25.55Z"/></g></g></svg>