<?xml version="1.0" encoding="UTF-8"?><svg id="Layer_2" xmlns="http://www.w3.org/2000/svg" xmlns:xlink="http://www.w3.org/1999/xlink" viewBox="0 0 8.87 8.87"><defs><style>.cls-1{fill:#fff;}.cls-2{fill:none;filter:url(#outer-glow-1);}.cls-3{fill:#a65151;fill-rule:evenodd;}</style><filter id="outer-glow-1" filterUnits="userSpaceOnUse"><feOffset dx="0" dy="0"/><feGaussianBlur result="blur" stdDeviation="1"/><feFlood flood-color="#a65151" flood-opacity=".75"/><feComposite in2="blur" operator="in"/><feComposite in="SourceGraphic"/></filter></defs><g id="Layer_1-2"><g class="cls-2"><rect class="cls-1" width="8.87" height="8.87" rx=".71" ry=".71"/><rect class="cls-1" x=".57" y=".57" width="7.73" height="7.73" rx=".62" ry=".62"/><path class="cls-3" d="m2.88,4.85c-.06,0-.12,0-.18,0-.06,0-.11,0-.17-.01v1.45h-.68v-3.7h1.07c.18,0,.33,0,.47.02.13.02.25.04.36.07.25.08.45.2.58.37.14.17.2.38.2.65,0,.18-.04.34-.11.48-.07.14-.18.26-.32.36-.14.1-.32.18-.52.23-.2.05-.44.08-.7.08h0Zm-.35-.58s.09.01.15.01c.06,0,.12,0,.19,0,.18,0,.33-.02.46-.04.12-.03.22-.07.3-.12.08-.05.13-.12.16-.19.03-.07.05-.16.05-.24,0-.11-.02-.2-.07-.28-.05-.08-.14-.14-.26-.18-.06-.02-.14-.04-.24-.05-.09-.01-.21-.02-.35-.02h-.38v1.12h0Zm3.82,1.24c0-.06-.02-.1-.05-.14-.03-.04-.08-.07-.13-.09-.05-.02-.11-.05-.18-.07-.07-.02-.14-.04-.22-.05-.1-.03-.19-.06-.28-.09-.09-.03-.17-.08-.23-.13-.07-.05-.12-.12-.16-.21-.04-.08-.06-.19-.06-.31,0-.15.03-.28.08-.39.05-.11.13-.2.22-.27.09-.07.2-.13.32-.16.12-.03.25-.05.38-.05.16,0,.32.01.46.04.14.03.27.06.39.1v.53c-.06-.02-.12-.04-.19-.05-.07-.02-.13-.03-.2-.04-.07-.01-.14-.02-.21-.03-.07,0-.13-.01-.19-.01-.08,0-.14,0-.2.02-.05.02-.1.03-.13.06-.03.02-.06.05-.07.08-.01.03-.02.07-.02.1,0,.06.02.11.05.15.03.04.08.07.13.09.06.02.12.04.18.06.06.02.12.03.18.05.09.02.18.05.28.08.09.03.17.07.25.13.07.06.13.13.18.22.05.09.07.2.07.34,0,.15-.03.28-.09.4-.06.11-.14.21-.24.28-.1.07-.22.13-.37.17-.14.04-.3.05-.47.05s-.32-.01-.46-.04c-.13-.03-.25-.06-.34-.1v-.53c.14.05.28.09.4.11.12.02.23.03.34.03.08,0,.16,0,.23-.02.07-.01.13-.03.18-.06.05-.03.09-.06.12-.1.03-.04.04-.09.04-.14Z"/></g></g></svg>