<?xml version="1.0" encoding="UTF-8"?><svg id="Layer_2" xmlns="http://www.w3.org/2000/svg" viewBox="0 0 7.38 7.38"><defs><style>.cls-1{fill:#fff;}.cls-1,.cls-2,.cls-3{fill-rule:evenodd;}.cls-2{fill:#001c25;}.cls-3{fill:#01c8ff;}</style></defs><g id="Layer_1-2"><path class="cls-3" d="m3.69,0h0c2.03,0,3.69,1.66,3.69,3.69h0c0,2.03-1.66,3.69-3.69,3.69h0c-2.03,0-3.69-1.66-3.69-3.69h0C0,1.66,1.66,0,3.69,0h0Zm0,.33C1.84.33.33,1.84.33,3.69H.33c0,1.85,1.51,3.36,3.36,3.36h0c1.85,0,3.36-1.51,3.36-3.36h0C7.05,1.84,5.54.33,3.69.33h0Z"/><path class="cls-2" d="m3.69.33h0c1.85,0,3.36,1.51,3.36,3.36h0c0,1.85-1.51,3.36-3.36,3.36h0C1.84,7.05.33,5.54.33,3.69H.33C.33,1.84,1.84.33,3.69.33h0Zm-1.15,3.64c.2,0,.37-.02.52-.06.15-.04.28-.1.39-.17.11-.07.19-.16.24-.27.05-.11.08-.23.08-.36,0-.19-.05-.35-.15-.48-.1-.13-.25-.22-.43-.28-.08-.02-.17-.04-.27-.05-.1-.01-.22-.02-.35-.02h-.79v2.75h.5v-1.07s.08,0,.12,0c.04,0,.09,0,.13,0h0Zm-.26-.43s.07,0,.11,0c.04,0,.09,0,.14,0,.14,0,.25-.01.34-.03.09-.02.17-.05.22-.09.06-.04.1-.09.12-.14.02-.06.04-.12.04-.18,0-.08-.02-.15-.06-.21-.04-.06-.1-.1-.19-.14-.05-.02-.11-.03-.18-.04-.07,0-.16-.01-.26-.01h-.28v.83h0Zm2.84.92s-.01.08-.03.11c-.02.03-.05.05-.09.07-.04.02-.08.03-.13.04-.05,0-.11.01-.17.01-.08,0-.16,0-.25-.02-.09-.01-.19-.04-.3-.08v.39c.07.03.15.05.25.08.1.02.21.03.34.03s.24-.01.35-.04c.11-.03.2-.07.27-.12.08-.06.13-.12.18-.21.04-.08.06-.18.06-.29,0-.1-.02-.19-.05-.25-.03-.07-.08-.12-.13-.16-.05-.04-.12-.07-.18-.1-.07-.02-.14-.04-.21-.06-.04-.01-.09-.02-.14-.03-.05-.01-.09-.03-.13-.04-.04-.02-.08-.04-.1-.07-.02-.03-.04-.07-.04-.11,0-.03,0-.05.02-.08.01-.02.03-.04.05-.06.02-.02.06-.03.1-.04.04-.01.09-.02.15-.02.05,0,.09,0,.14,0,.05,0,.1.01.15.02.05,0,.1.02.15.03.05.01.1.03.14.04v-.39c-.09-.03-.18-.06-.29-.08-.11-.02-.22-.03-.34-.03-.1,0-.19.01-.28.04s-.17.07-.24.12c-.07.05-.12.12-.16.2-.04.08-.06.18-.06.29,0,.09.01.17.04.23.03.06.07.11.12.15.05.04.11.07.17.1.07.03.13.05.21.07.06.01.11.03.16.04.05.01.1.03.14.05.04.02.07.04.1.07.02.03.04.06.04.11Z"/><path class="cls-1" d="m2.54,3.97s-.09,0-.13,0c-.04,0-.08,0-.12,0v1.07h-.5v-2.75h.79c.13,0,.25,0,.35.02.1.01.19.03.27.05.19.06.33.15.43.28.1.13.15.29.15.48,0,.13-.03.25-.08.36-.05.11-.14.2-.24.27-.11.07-.23.13-.39.17-.15.04-.33.06-.52.06h0Zm-.26-.43s.07,0,.11,0c.04,0,.09,0,.14,0,.14,0,.25-.01.34-.03.09-.02.17-.05.22-.09.06-.04.1-.09.12-.14.02-.06.04-.12.04-.18,0-.08-.02-.15-.06-.21-.04-.06-.1-.1-.19-.14-.05-.02-.11-.03-.18-.04-.07,0-.16-.01-.26-.01h-.28v.83h0Zm2.84.92s-.01-.08-.04-.11c-.02-.03-.06-.05-.1-.07-.04-.02-.08-.03-.14-.05-.05-.01-.11-.03-.16-.04-.07-.02-.14-.04-.21-.07-.07-.03-.12-.06-.17-.1-.05-.04-.09-.09-.12-.15-.03-.06-.04-.14-.04-.23,0-.11.02-.21.06-.29.04-.08.09-.15.16-.2.07-.05.15-.09.24-.12.09-.03.18-.04.28-.04.12,0,.24,0,.34.03.11.02.2.05.29.08v.39s-.09-.03-.14-.04c-.05-.01-.1-.02-.15-.03-.05,0-.1-.02-.15-.02-.05,0-.1,0-.14,0-.06,0-.11,0-.15.02-.04.01-.07.03-.1.04-.03.02-.04.04-.05.06-.01.02-.02.05-.02.08,0,.04.01.08.04.11.02.03.06.05.1.07.04.02.09.03.13.04.05.01.09.02.14.03.07.02.14.04.21.06.07.02.13.06.18.1.05.04.1.1.13.16.04.07.05.15.05.25,0,.11-.02.21-.06.29-.04.08-.1.15-.18.21-.08.06-.17.1-.27.12-.11.03-.22.04-.35.04s-.24,0-.34-.03c-.1-.02-.18-.04-.25-.08v-.39c.11.04.21.07.3.08.09.01.17.02.25.02.06,0,.12,0,.17-.01.05,0,.1-.02.13-.04.04-.02.07-.04.09-.07.02-.03.03-.06.03-.11Z"/></g></svg>