<?xml version="1.0" encoding="UTF-8"?><svg id="Layer_2" xmlns="http://www.w3.org/2000/svg" viewBox="0 0 21.43 25.7"><defs><style>.cls-1{letter-spacing:-.01em;}.cls-2{fill:#231f20;font-size:4.45px;}.cls-2,.cls-3{font-family:MyriadPro-Regular, 'Myriad Pro';}.cls-4{fill:#21093f;}.cls-4,.cls-5{stroke-width:0px;}.cls-6{letter-spacing:-.01em;}.cls-3{font-size:12.9px;}.cls-3,.cls-5{fill:#b895c5;}.cls-7{letter-spacing:0em;}.cls-8{letter-spacing:.01em;}.cls-9{letter-spacing:0em;}.cls-10{letter-spacing:.01em;}.cls-11{letter-spacing:0em;}</style></defs><g id="Layer_1-2"><path class="cls-5" d="m4.43,0h12.5c1.66,0,3,1.34,3,3v11.08c0,1.77-1.44,3.2-3.2,3.2H4.43c-1.77,0-3.2-1.44-3.2-3.2V3.2C1.23,1.44,2.67,0,4.43,0Z"/><rect class="cls-4" x="2.46" y="1.52" width="16.15" height="14.2" rx="2.61" ry="2.61"/><text class="cls-3" transform="translate(3.8 12.73)"><tspan class="cls-6" x="0" y="0">A</tspan><tspan x="7.74" y="0">e</tspan></text><text class="cls-2" transform="translate(0 24.59)"><tspan class="cls-11" x="0" y="0">A</tspan><tspan class="cls-8" x="2.69" y="0">f</tspan><tspan class="cls-7" x="4.04" y="0">t</tspan><tspan x="5.49" y="0">erE</tspan><tspan class="cls-1" x="11.37" y="0">ff</tspan><tspan class="cls-9" x="13.91" y="0">e</tspan><tspan class="cls-10" x="16.14" y="0">c</tspan><tspan class="cls-9" x="18.19" y="0">ts</tspan></text></g></svg>