<?xml version="1.0" encoding="UTF-8"?><svg id="Layer_2" xmlns="http://www.w3.org/2000/svg" viewBox="0 0 4.89 7.98"><defs><style>.cls-1{fill:#fff;}.cls-2{fill:#a65151;stroke:#020000;stroke-miterlimit:10;stroke-width:.2px;}</style></defs><g id="Layer_1-2"><path class="cls-2" d="m3.34.68c-.23-.35-.6-.58-1.02-.58s-.8.24-1.03.6c-.56.15-.98.7-.98,1.37s.43,1.24,1,1.38c.23.34.6.57,1.01.57s.77-.22,1-.56c.6-.11,1.06-.69,1.06-1.39s-.45-1.27-1.04-1.39Z"/><circle class="cls-1" cx="2.35" cy="2.06" r=".8"/><line class="cls-2" x1="2.32" y1="4.02" x2="2.35" y2="7.98"/><path d="m2.35,6.63s.17-1.09,1.08-1.35,1.47-.2,1.47-.2c0,0-.52,2.06-2.54,1.55Z"/><path d="m2.35,6.48s-1.09.22-1.65-.54-.7-1.31-.7-1.31c0,0,2.12-.23,2.35,1.85Z"/></g></svg>