<?xml version="1.0" encoding="UTF-8"?><svg id="Layer_2" xmlns="http://www.w3.org/2000/svg" viewBox="0 0 10.84 11.08"><defs><style>.cls-1{fill:none;stroke-width:0px;}.cls-2{fill:#fff;stroke:#8c5153;stroke-width:.25px;}.cls-2,.cls-3{stroke-miterlimit:10;}.cls-3{fill:#a65252;stroke:#804b4f;stroke-width:.75px;}</style></defs><g id="Layer_1-2"><path class="cls-3" d="m2.16.38h6.51c.99,0,1.79.82,1.79,1.83v6.42c0,1.01-.8,1.83-1.79,1.83H2.16c-.99,0-1.79-.82-1.79-1.83V2.21C.38,1.19,1.17.38,2.16.38Z"/><path class="cls-1" d="m2.05.99h6.72v10.08H2.05V.99Z"/><path class="cls-2" d="m5.42,5.72c0-.77.62-1.4,1.4-1.4s1.4.62,1.4,1.4-.62,1.4-1.4,1.4-1.4-.63-1.4-1.4h0Z"/><path class="cls-2" d="m2.63,8.5c0-.77.62-1.4,1.4-1.4h1.4v1.4c0,.77-.62,1.4-1.4,1.4s-1.4-.62-1.4-1.4h0Z"/><path class="cls-2" d="m5.42,1.53v2.79h1.4c.77,0,1.4-.62,1.4-1.4s-.62-1.4-1.4-1.4h-1.4Z"/><path class="cls-2" d="m2.63,2.93c0,.77.62,1.4,1.4,1.4h1.4V1.53h-1.4c-.77,0-1.4.62-1.4,1.4Z"/><path class="cls-2" d="m2.63,5.72c0,.77.62,1.4,1.4,1.4h1.4v-2.79h-1.4c-.77,0-1.4.63-1.4,1.4Z"/></g></svg>