<?xml version="1.0" encoding="UTF-8"?><svg id="Layer_2" xmlns="http://www.w3.org/2000/svg" viewBox="0 0 12.3 12.3"><defs><style>.cls-1,.cls-2,.cls-3{stroke-miterlimit:10;}.cls-1,.cls-3{fill:#fff;stroke:#8c5153;stroke-width:.2px;}.cls-2{fill:#a65252;stroke:#804b4f;stroke-width:.25px;}.cls-3{font-family:AXIS-ExtraBold, AXIS;font-size:2.48px;font-weight:700;letter-spacing:-.01em;}.cls-4{fill:#8c5153;stroke-width:0px;}</style></defs><g id="Layer_1-2"><path class="cls-2" d="m2.26.12h7.78c1.18,0,2.13.98,2.13,2.19v7.67c0,1.21-.95,2.19-2.13,2.19H2.26c-1.18,0-2.13-.98-2.13-2.19V2.31C.12,1.1,1.08.12,2.26.12Z"/><text class="cls-3" transform="translate(3.38 3)"><tspan x="0" y="0">css</tspan></text><path class="cls-4" d="m6.27,10.98l2.55-.68.6-6.42h-3.15v7.09Z"/><path class="cls-1" d="m2.61,3.38c0,.05.14,1.63.3,3.51.17,1.87.31,3.46.31,3.53v.12s1.46.4,1.46.4l1.45.4.29-.08c.16-.04.81-.22,1.45-.4.99-.27,1.16-.33,1.17-.39.02-.09.63-7,.63-7.12v-.08H2.61v.1Zm5.77,1.52c-.01.09-.11,1.11-.21,2.27-.1,1.16-.19,2.12-.2,2.13-.01.02-1.78.51-1.83.51-.04,0-1-.26-1.65-.45l-.18-.05-.04-.47c-.02-.26-.05-.58-.06-.7l-.02-.22h.45c.51,0,.49,0,.5.3,0,.08.01.2.02.27l.02.13.49.13.49.13.48-.13c.27-.07.49-.13.49-.13,0,0,.03-.22.05-.47.02-.26.05-.51.06-.57l.02-.1h-3.08l-.02-.08s-.03-.25-.05-.47l-.03-.38h3.23l.02-.24c.01-.13.04-.34.05-.45.01-.15.01-.2-.02-.19-.02.01-.79.01-1.7,0l-1.67-.02-.02-.25c-.01-.14-.03-.34-.04-.44l-.02-.19h4.5l-.02.15Z"/></g></svg>