<?xml version="1.0" encoding="UTF-8"?><svg id="Layer_2" xmlns="http://www.w3.org/2000/svg" viewBox="0 0 12.05 12.65"><defs><style>.cls-1{fill:#1f4c4e;}.cls-1,.cls-2{stroke:#112b2a;stroke-miterlimit:10;stroke-width:.25px;}.cls-3{fill:none;stroke-width:0px;}.cls-2{fill:#fff;}</style></defs><g id="Layer_1-2"><path class="cls-1" d="m2.21.12h7.62c1.16,0,2.09.96,2.09,2.14v7.51c0,1.18-.93,2.14-2.09,2.14H2.21c-1.16,0-2.09-.96-2.09-2.14V2.27C.12,1.08,1.06.12,2.21.12Z"/><path class="cls-3" d="m2.09.85h7.87v11.8H2.09V.85Z"/><path class="cls-2" d="m6.02,6.23c0-.9.73-1.63,1.63-1.63s1.63.73,1.63,1.63-.73,1.63-1.63,1.63-1.63-.73-1.63-1.63h0Z"/><path class="cls-2" d="m2.76,9.5c0-.9.73-1.63,1.63-1.63h1.63v1.63c0,.9-.73,1.63-1.63,1.63s-1.63-.73-1.63-1.63h0Z"/><path class="cls-2" d="m6.02,1.34v3.26h1.63c.9,0,1.63-.73,1.63-1.63s-.73-1.63-1.63-1.63h-1.63Z"/><path class="cls-2" d="m2.76,2.97c0,.9.73,1.63,1.63,1.63h1.63V1.34h-1.63c-.9,0-1.63.73-1.63,1.63Z"/><path class="cls-2" d="m2.76,6.23c0,.9.73,1.63,1.63,1.63h1.63v-3.27h-1.63c-.9,0-1.63.73-1.63,1.63Z"/></g></svg>