<?xml version="1.0" encoding="UTF-8"?><svg id="Layer_2" xmlns="http://www.w3.org/2000/svg" viewBox="0 0 15.29 11"><defs><style>.cls-1,.cls-2{fill:#ed225d;}.cls-2{font-family:MyriadConceptRoman-BlackSemiCn, 'Myriad Variable Concept';font-size:6.88px;font-variation-settings:'wght' 900, 'wdth' 90;font-weight:800;}.cls-3{fill:none;stroke:#ed225d;stroke-miterlimit:10;}</style></defs><g id="Layer_1-2"><path class="cls-1" d="m.03,5.79c0-.42-.01-.8-.03-1.13h1.02l.06.41h.01c.21-.31.55-.48.98-.48.74,0,1.3.7,1.3,1.73,0,1.22-.72,1.79-1.41,1.79-.34,0-.61-.15-.73-.32h-.01v1.6H.03v-3.6Zm1.19.85c0,.09,0,.17.03.23.05.18.2.32.4.32.34,0,.53-.34.53-.83,0-.52-.18-.83-.51-.83-.2,0-.38.15-.42.35-.02.05-.03.12-.03.18v.57Z"/><path class="cls-1" d="m6.63,3.32h-1.89s.02.53.02.53c.08,0,.37,0,.44,0,.37,0,.83.1,1.14.35.31.24.47.6.47,1.09,0,.83-.68,1.59-1.92,1.59-.5,0-.93-.11-1.17-.22l.19-.9c.2.09.56.19.91.19.4,0,.78-.17.78-.58,0-.45-.39-.66-1.16-.66-.2,0-.35.01-.51.03l.04-2.39h2.65s0,.98,0,.98Z"/><text class="cls-2" transform="translate(9.54 9.28)"><tspan x="0" y="0">J</tspan></text><text class="cls-2" transform="translate(12.42 5.76)"><tspan x="0" y="0">s</tspan></text><polyline class="cls-3" points="7.93 6.95 8.57 6.08 8.57 5.01"/><polyline class="cls-3" points="7.54 5.72 8.57 6.08 9.2 7"/><line class="cls-3" x1="9.59" y1="5.76" x2="8.57" y2="6.08"/></g></svg>