<?xml version="1.0" encoding="UTF-8"?><svg id="Layer_2" xmlns="http://www.w3.org/2000/svg" viewBox="0 0 12.3 12.3"><defs><style>.cls-1{fill:#fff;stroke:#8c5153;stroke-width:.2px;}.cls-1,.cls-2{stroke-miterlimit:10;}.cls-2{fill:#a65252;stroke:#804b4f;stroke-width:.25px;}</style></defs><g id="Layer_1-2"><path class="cls-2" d="m2.26.12h7.78c1.18,0,2.13.98,2.13,2.19v7.67c0,1.21-.95,2.19-2.13,2.19H2.26c-1.18,0-2.13-.98-2.13-2.19V2.31C.12,1.1,1.08.12,2.26.12Z"/><path class="cls-1" d="m5.95,7.33h-1.87l-.38,1.21s-.05.08-.1.07h-.94c-.06,0-.07-.03-.06-.09l1.62-4.77c.02-.05.03-.11.05-.17.02-.11.03-.22.03-.33,0-.03.02-.05.04-.06h1.3s.06.02.07.04l1.83,5.3c.02.06,0,.08-.05.08h-1.05s-.07-.02-.08-.06l-.41-1.23Zm-1.58-1.05h1.28c-.03-.11-.07-.24-.12-.37-.05-.14-.09-.29-.14-.44-.05-.16-.1-.31-.15-.47s-.1-.31-.14-.46c-.04-.14-.08-.28-.11-.4h-.01c-.05.22-.1.44-.17.66-.08.25-.15.5-.23.76-.07.26-.15.5-.22.72h0Zm4.29-2.2c-.17,0-.33-.06-.45-.18-.12-.13-.18-.3-.17-.47,0-.18.06-.34.18-.46s.28-.18.45-.18c.2,0,.35.06.46.18.11.12.17.29.17.46,0,.18-.06.34-.18.47-.12.12-.29.19-.46.18h0Zm-.56,4.47v-3.96c0-.05.02-.07.07-.07h.99s.07.03.07.07v3.96c0,.06-.02.08-.07.08h-.98c-.05,0-.08-.03-.08-.08Z"/></g></svg>