<?xml version="1.0" encoding="UTF-8"?><svg id="Layer_2" xmlns="http://www.w3.org/2000/svg" viewBox="0 0 13.76 10.16"><defs><style>.cls-1,.cls-2{fill:#fff;}.cls-3{fill:#a65151;stroke:#020000;}.cls-3,.cls-2,.cls-4{stroke-miterlimit:10;stroke-width:.03px;}.cls-2,.cls-4{stroke:#000;}.cls-4{fill:none;}.cls-5{fill:#010101;}</style></defs><g id="Layer_1-2"><polygon class="cls-1" points="8.39 6.19 8.15 7.35 8.51 7.7 9.59 7.02 9.68 5.98 9.15 5.71 8.39 6.19"/><path class="cls-5" d="m12.24,1.9c-.18-.1-.36-.2-.55-.29,0,0,0,0,0-.01-.01,0-.03-.02-.05-.03,0,0,0,0,0,.01h-.02c-.17-.16-.46.68-.59.81-.69,1.19-1.42,2.35-2.12,3.53,0,0,0,.01-.01.02-.12.35-.2.73-.3,1.09h0c-.04.19-.07.38-.1.58-.01.06-.02.11-.03.17-.01,0-.02-.01-.03-.02.01.03.02.06.03.09,0,0,.01,0,.02,0,.31-.17.61-.37.92-.55.22-.14.43-.3.63-.47,0,0,0,0,0,0,0,0,0,0,0,0,.02-.02.04-.04.05-.06,0,0,0,0,0,0,.06-.1.11-.2.16-.3.34-.61.71-1.19,1.01-1.83.23-.47.52-.91.75-1.38,0,0,0,0,0,0,0-.02.02-.03.03-.05,0,0,0,0,0,0,.02-.03.04-.07.05-.1.04-.08.09-.17.13-.25,0,0,0,0,0,0,.1-.19.22-.36.3-.55,0,0,0,0,0,0,.04-.08.08-.2-.02-.25-.1-.04-.18-.1-.27-.15Zm-2.31,4.92c-.27.21-.54.43-.85.6-.09-.07-.19-.13-.28-.19-.02-.02-.04-.03-.07-.05-.03-.02-.05-.04-.08-.06,0,0,0-.01,0-.02,0-.03.01-.05.02-.08.09-.34.18-.69.27-1.02.56-.2.16.5.39.3.04-.04.1-.06.16-.06.1,0,.19.07.18.19,0,.04-.06.11,0,.14.1-.05.21-.15.32-.05,0,0,0,0,0,0,.04.02.07.06.07.1,0,0,0,.01,0,.02-.03.07-.06.13-.13.18Zm1.99-3.57c-.19.32-.37.65-.54.98,0,0,0,0,0,.01-.38.79-.84,1.55-1.27,2.31-.06-.13-.26-.19-.38-.09.06-.24-.22-.38-.4-.23.08-.21-.12-.41-.33-.32.01-.02.02-.04.03-.06.79-1.28,1.58-2.56,2.33-3.86.25.15.5.32.77.44.03.01.05.03.08.04,0,0,0,0,0,0,.03.02.07.03.1.05-.13.24-.27.48-.38.72Z"/><path class="cls-5" d="m8.54,7.76s0-.04.01-.07c.03-.16.06-.32.09-.48,0,0,0,0,0,0,0,0,0,0,0,0,0,0,0,0,0,0,.1.06.19.11.29.17.03.02.06.04.09.06-.17.09-.32.2-.48.31h0Z"/><path d="m12.31,2.53c-.13.24-.27.48-.38.72-.19.32-.37.65-.54.98,0,0,0,0,0,.01-.38.79-.84,1.55-1.27,2.31-.06-.13-.26-.19-.38-.09.06-.24-.22-.38-.4-.23.08-.21-.12-.41-.33-.32.01-.02.02-.04.03-.06.79-1.28,1.58-2.56,2.33-3.86.25.15.5.32.77.44.03.01.05.03.08.04,0,0,0,0,0,0,.03.02.07.03.1.05h0Z"/><path d="m9.02,7.46c-.17.09-.32.2-.48.31,0-.02,0-.04.01-.07.03-.16.06-.32.09-.48,0,0,0,0,0,0,0,0,0,0,0,0,0,0,0,0,0,0,.1.06.19.11.29.17.03.02.06.04.09.06h0Z"/><rect class="cls-2" x="11.53" y="1.44" width="1.29" height=".42" rx=".16" ry=".16" transform="translate(2.46 -5.87) rotate(30)"/><path class="cls-3" d="m12.11.58h.8c.07,0,.12.06.12.12v.82h-1.05v-.82c0-.07.06-.12.12-.12Z" transform="translate(2.2 -6.11) rotate(30)"/><path class="cls-4" d="m8.52,7.84c-.23.14-.52.11-.79.13s-.58.16-.6.43c-.01.15.08.3.2.38s.28.12.43.13c.75.05,1.52-.39,2.22-.13.06.02.12.05.16.1.09.11.04.28-.06.37s-.25.12-.39.13c-.33.03-.66-.02-.98,0s-.67.12-.88.38"/></g></svg>