<?xml version="1.0" encoding="UTF-8"?><svg id="Layer_2" xmlns="http://www.w3.org/2000/svg" viewBox="0 0 10.84 10.84"><defs><style>.cls-1{fill:#fff;stroke:#8c5153;stroke-width:.25px;}.cls-1,.cls-2{stroke-miterlimit:10;}.cls-2{fill:#a65252;stroke:#804b4f;stroke-width:.75px;}</style></defs><g id="Layer_1-2"><path class="cls-2" d="m2.16.38h6.51c.99,0,1.79.82,1.79,1.83v6.42c0,1.01-.8,1.83-1.79,1.83H2.16c-.99,0-1.79-.82-1.79-1.83V2.21C.38,1.19,1.17.38,2.16.38Z"/><path class="cls-1" d="m2.64,7.45V3.01s.01-.05.04-.05c.07,0,.14,0,.24,0,.1,0,.21,0,.32,0s.24,0,.37,0,.26,0,.38,0c.34,0,.63.04.87.13.21.07.4.19.56.35.13.14.24.31.31.49.06.18.1.37.1.56,0,.37-.08.68-.25.92s-.4.42-.68.53c-.29.11-.6.15-.95.15-.1,0-.17,0-.21,0s-.1,0-.18,0v1.38s-.02.06-.05.06h-.82s-.05-.02-.05-.06h0Zm.92-3.65v1.45c.06,0,.11,0,.16,0h.22c.16,0,.33-.03.48-.08.13-.04.25-.12.34-.23.09-.11.13-.25.13-.44,0-.13-.03-.27-.1-.38-.07-.11-.17-.2-.29-.25-.16-.06-.32-.09-.5-.09-.11,0-.21,0-.29,0-.08,0-.14,0-.17,0h0Zm4.88,1.19c-.13-.07-.26-.12-.4-.15-.16-.03-.31-.06-.47-.06-.08,0-.17,0-.25.03-.05.01-.1.04-.13.09-.02.03-.03.08-.03.12s.02.08.04.11c.04.05.09.09.14.12.1.05.2.1.3.14.23.08.45.19.65.31.14.09.25.21.33.36.07.14.1.29.1.44,0,.2-.05.41-.16.57-.12.17-.28.31-.47.38-.21.09-.46.14-.76.14-.19,0-.38-.02-.57-.06-.15-.03-.29-.07-.43-.14-.03-.02-.05-.05-.05-.08v-.75s0-.03.02-.04.03,0,.04,0c.16.1.34.17.52.21.16.04.33.06.5.06s.27-.02.35-.06c.07-.03.11-.1.11-.18,0-.06-.03-.12-.1-.17s-.21-.12-.41-.2c-.21-.08-.41-.18-.6-.31-.13-.09-.24-.22-.32-.37-.07-.14-.1-.29-.1-.44,0-.19.05-.36.14-.52.11-.17.26-.31.44-.4.2-.1.45-.15.74-.15.17,0,.35.01.52.04.13.02.25.05.36.1.02,0,.03.02.04.04,0,.02,0,.03,0,.05v.7s0,.03-.02.04c-.04,0-.06,0-.08,0h0Z"/></g></svg>