<?xml version="1.0" encoding="UTF-8"?><svg id="Layer_2" xmlns="http://www.w3.org/2000/svg" viewBox="0 0 779.06 378.16"><defs><style>.cls-1{letter-spacing:-.03em;}.cls-2{letter-spacing:-.04em;}.cls-3{letter-spacing:-.04em;}.cls-4{letter-spacing:-.05em;}.cls-5{letter-spacing:.04em;}.cls-6{letter-spacing:0em;}.cls-7{letter-spacing:-.01em;}.cls-8{letter-spacing:0em;}.cls-9{letter-spacing:-.01em;}.cls-10{letter-spacing:-.01em;}.cls-11{letter-spacing:-.04em;}.cls-12{letter-spacing:0em;}.cls-13{letter-spacing:-.05em;}.cls-14{letter-spacing:0em;}.cls-15{letter-spacing:0em;}.cls-16{font-size:11.31px;}.cls-16,.cls-17,.cls-18,.cls-19{fill:#231f20;}.cls-16,.cls-18{font-family:MyriadPro-Regular, 'Myriad Pro';}.cls-20,.cls-21{fill:#fff;}.cls-20,.cls-19{stroke:#231f20;stroke-miterlimit:10;}.cls-22{letter-spacing:0em;}.cls-23{letter-spacing:-.03em;}.cls-24{letter-spacing:0em;}.cls-25{letter-spacing:-.04em;}.cls-26{letter-spacing:-.01em;}.cls-27{letter-spacing:0em;}.cls-28{letter-spacing:0em;}.cls-29{letter-spacing:0em;}.cls-30{letter-spacing:.02em;}.cls-31{letter-spacing:0em;}.cls-32{letter-spacing:-.07em;}.cls-33{letter-spacing:0em;}.cls-34{letter-spacing:.03em;}.cls-35{letter-spacing:.02em;}.cls-36{letter-spacing:-.03em;}.cls-21{stroke-width:0px;}.cls-37{letter-spacing:0em;}.cls-38{letter-spacing:.05em;}.cls-39{letter-spacing:0em;}.cls-17{font-family:AXIS-ExtraBold, AXIS;font-size:20px;font-weight:700;}.cls-40{letter-spacing:0em;}.cls-41{letter-spacing:0em;}.cls-42{letter-spacing:.01em;}.cls-43{letter-spacing:.02em;}.cls-44{letter-spacing:0em;}.cls-45{letter-spacing:-.03em;}.cls-46{letter-spacing:.01em;}.cls-47{letter-spacing:-.01em;}.cls-48{letter-spacing:-.05em;}.cls-49{letter-spacing:.01em;}.cls-50{letter-spacing:0em;}.cls-51{letter-spacing:0em;}.cls-52{letter-spacing:.11em;}.cls-53{letter-spacing:-.03em;}.cls-54{letter-spacing:-.07em;}.cls-55{letter-spacing:0em;}.cls-56{letter-spacing:-.04em;}.cls-57{letter-spacing:-.01em;}.cls-58{letter-spacing:0em;}.cls-59{letter-spacing:0em;}.cls-18{font-size:21.13px;}.cls-60{letter-spacing:0em;}.cls-61{letter-spacing:0em;}.cls-62{letter-spacing:.01em;}.cls-19{stroke-width:5px;}.cls-63{letter-spacing:0em;}.cls-64{letter-spacing:.03em;}.cls-65{letter-spacing:-.01em;}.cls-66{letter-spacing:-.03em;}.cls-67{letter-spacing:.01em;}</style></defs><g id="Layer_1-2"><rect class="cls-21" width="779.06" height="378.16"/><line class="cls-19" x1="403.46" y1="166.77" x2="494.43" y2="131.03"/><text class="cls-16" transform="translate(518.19 124.27)"><tspan class="cls-33" x="0" y="0">G</tspan><tspan x="7.36" y="0">e</tspan><tspan class="cls-49" x="13.02" y="0">o</tspan><tspan x="19.4" y="0">-</tspan><tspan class="cls-10" x="22.87" y="0">L</tspan><tspan x="28.05" y="0">oc</tspan><tspan class="cls-6" x="39.32" y="0">a</tspan><tspan x="44.73" y="0">tion - </tspan><tspan class="cls-1" x="71.86" y="0">F</tspan><tspan x="77.07" y="0">ing </tspan><tspan class="cls-7" x="94.71" y="0">m</tspan><tspan class="cls-14" x="103.99" y="0">y loc</tspan><tspan class="cls-6" x="125.65" y="0">a</tspan><tspan x="131.06" y="0">tion and </tspan><tspan class="cls-57" x="172.82" y="0">r</tspan><tspan x="176.4" y="0">et</tspan><tspan class="cls-12" x="185.81" y="0">r</tspan><tspan x="189.55" y="0">i</tspan><tspan class="cls-61" x="192.2" y="0">v</tspan><tspan x="197.52" y="0">e </tspan><tspan class="cls-57" x="205.58" y="0">w</tspan><tspan class="cls-22" x="213.79" y="0">e</tspan><tspan class="cls-27" x="219.46" y="0">a</tspan><tspan x="224.86" y="0">ther</tspan><tspan x="0" y="13.57"> </tspan><tspan class="cls-38" x="2.4" y="13.57">(</tspan><tspan class="cls-4" x="6.15" y="13.57">T</tspan><tspan class="cls-37" x="11.26" y="13.57">r</tspan><tspan x="15" y="13.57">igge</tspan><tspan class="cls-57" x="35.95" y="13.57">r</tspan><tspan x="39.54" y="13.57">ed f</tspan><tspan class="cls-57" x="57.27" y="13.57">r</tspan><tspan x="60.86" y="13.57">om </tspan><tspan class="cls-10" x="78.89" y="13.57">L</tspan><tspan x="84.07" y="13.57">oc</tspan><tspan class="cls-6" x="95.34" y="13.57">a</tspan><tspan x="100.75" y="13.57">tion but</tspan><tspan class="cls-40" x="138.42" y="13.57">t</tspan><tspan x="142.09" y="13.57">on)</tspan><tspan x="0" y="27.13">p5.js Lib</tspan><tspan class="cls-60" x="38.61" y="27.13">r</tspan><tspan x="42.25" y="27.13">a</tspan><tspan class="cls-35" x="47.7" y="27.13">r</tspan><tspan x="51.68" y="27.13">y</tspan></text><line class="cls-19" x1="408.57" y1="229.88" x2="493.21" y2="278.74"/><text class="cls-16" transform="translate(515.53 304.22)"><tspan x="0" y="0">Cha</tspan><tspan class="cls-15" x="18.28" y="0">r</tspan><tspan class="cls-31" x="21.92" y="0">a</tspan><tspan class="cls-42" x="27.37" y="0">c</tspan><tspan class="cls-24" x="32.58" y="0">t</tspan><tspan class="cls-22" x="36.26" y="0">e</tspan><tspan class="cls-29" x="41.92" y="0">r</tspan><tspan class="cls-22" x="45.72" y="0">:</tspan><tspan class="cls-25" x="48.06" y="0"> </tspan><tspan class="cls-54" x="49.99" y="0">T</tspan><tspan x="54.81" y="0">eddy </tspan><tspan class="cls-12" x="80.95" y="0">B</tspan><tspan x="87.12" y="0">ea</tspan><tspan class="cls-48" x="98.23" y="0">r</tspan><tspan x="101.33" y="0">,</tspan><tspan class="cls-2" x="103.67" y="0"> </tspan><tspan class="cls-13" x="105.61" y="0">T</tspan><tspan x="110.72" y="0">u</tspan><tspan class="cls-43" x="116.95" y="0">r</tspan><tspan x="120.91" y="0">tl</tspan><tspan class="cls-9" x="127.32" y="0">e</tspan><tspan x="132.85" y="0">, Bun</tspan><tspan class="cls-7" x="156.22" y="0">n</tspan><tspan class="cls-3" x="162.35" y="0">y</tspan><tspan x="167.23" y="0" xml:space="preserve">,  </tspan><tspan class="cls-45" x="174.37" y="0">P</tspan><tspan x="180.09" y="0">anda</tspan><tspan class="cls-37" x="0" y="13.57">D</tspan><tspan x="7.57" y="13.57">esi</tspan><tspan class="cls-8" x="20.36" y="13.57">g</tspan><tspan x="26.61" y="13.57">n in illust</tspan><tspan class="cls-60" x="69.03" y="13.57">r</tspan><tspan class="cls-6" x="72.67" y="13.57">a</tspan><tspan class="cls-24" x="78.08" y="13.57">t</tspan><tspan x="81.75" y="13.57">or</tspan></text><line class="cls-19" x1="417.8" y1="207.27" x2="515.53" y2="207.27"/><text class="cls-16" transform="translate(526.98 209.83)"><tspan class="cls-53" x="0" y="0">V</tspan><tspan x="5.94" y="0">oi</tspan><tspan class="cls-24" x="14.79" y="0">c</tspan><tspan x="19.79" y="0">e </tspan><tspan class="cls-57" x="27.85" y="0">r</tspan><tspan x="31.43" y="0">e</tspan><tspan class="cls-40" x="37.09" y="0">c</tspan><tspan class="cls-14" x="42.09" y="0">o</tspan><tspan class="cls-24" x="48.3" y="0">g</tspan><tspan class="cls-22" x="54.55" y="0">nition-</tspan><tspan class="cls-40" x="85.81" y="0">U</tspan><tspan class="cls-14" x="93.06" y="0">ser can speak </tspan><tspan class="cls-40" x="158.2" y="0">t</tspan><tspan x="161.88" y="0">o </tspan><tspan x="0" y="13.57">get the </tspan><tspan class="cls-57" x="36.2" y="13.57">w</tspan><tspan x="44.41" y="13.57">e</tspan><tspan class="cls-6" x="50.07" y="13.57">a</tspan><tspan x="55.48" y="13.57">ther </tspan><tspan class="cls-26" x="77.25" y="13.57">f</tspan><tspan class="cls-14" x="80.41" y="13.57">or the loc</tspan><tspan class="cls-6" x="124.72" y="13.57">a</tspan><tspan x="130.13" y="13.57">tion spoke </tspan><tspan x="0" y="27.13">p5,js Lib</tspan><tspan class="cls-60" x="38.61" y="27.13">r</tspan><tspan x="42.25" y="27.13">a</tspan><tspan class="cls-35" x="47.7" y="27.13">r</tspan><tspan x="51.68" y="27.13">y</tspan></text><line class="cls-19" x1="316.96" y1="231.5" x2="316.96" y2="329.23"/><text class="cls-16" transform="translate(224.03 354.53)"><tspan class="cls-51" x="0" y="0">G</tspan><tspan x="7.39" y="0">amif</tspan><tspan class="cls-30" x="28.22" y="0">y</tspan><tspan class="cls-31" x="33.82" y="0">: D</tspan><tspan class="cls-28" x="46.08" y="0">r</tspan><tspan x="49.67" y="0">ess Cha</tspan><tspan class="cls-15" x="84.96" y="0">r</tspan><tspan x="88.6" y="0">a</tspan><tspan class="cls-67" x="94.05" y="0">c</tspan><tspan class="cls-8" x="99.26" y="0">t</tspan><tspan x="102.94" y="0">er a</tspan><tspan class="cls-8" x="120.15" y="0">cc</tspan><tspan x="130.14" y="0">o</tspan><tspan class="cls-28" x="136.35" y="0">r</tspan><tspan x="139.93" y="0">ding </tspan><tspan class="cls-8" x="163.94" y="0">t</tspan><tspan x="167.62" y="0">o the </tspan><tspan class="cls-28" x="194.3" y="0">w</tspan><tspan class="cls-50" x="202.51" y="0">e</tspan><tspan class="cls-58" x="208.17" y="0">a</tspan><tspan x="213.58" y="0">ther</tspan></text><line class="cls-19" x1="369.71" y1="58.86" x2="369.71" y2="156.59"/><text class="cls-16" transform="translate(311.34 24.5)"><tspan x="0" y="0">Cha</tspan><tspan class="cls-15" x="18.28" y="0">r</tspan><tspan x="21.92" y="0">a</tspan><tspan class="cls-67" x="27.37" y="0">c</tspan><tspan class="cls-8" x="32.58" y="0">t</tspan><tspan x="36.26" y="0">er speaks </tspan><tspan class="cls-8" x="82.21" y="0">t</tspan><tspan class="cls-31" x="85.89" y="0">o user</tspan><tspan class="cls-65" x="0" y="13.57">A</tspan><tspan x="6.78" y="13.57">dvises them </tspan><tspan class="cls-8" x="65.77" y="13.57">t</tspan><tspan x="69.44" y="13.57">o engage and o</tspan><tspan class="cls-47" x="142.84" y="13.57">ff</tspan><tspan x="149.28" y="13.57">ers </tspan><tspan class="cls-47" x="165.52" y="13.57">f</tspan><tspan x="168.67" y="13.57">eedback</tspan><tspan x="0" y="27.13">p5.js Lib</tspan><tspan class="cls-15" x="38.61" y="27.13">r</tspan><tspan x="42.25" y="27.13">a</tspan><tspan class="cls-64" x="47.7" y="27.13">r</tspan><tspan class="cls-31" x="51.68" y="27.13">y/</tspan><tspan class="cls-65" x="60.88" y="27.13">A</tspan><tspan x="67.66" y="27.13">udio </tspan><tspan class="cls-28" x="91.52" y="27.13">r</tspan><tspan x="95.1" y="27.13">e</tspan><tspan class="cls-8" x="100.77" y="27.13">c</tspan><tspan x="105.76" y="27.13">o</tspan><tspan class="cls-28" x="111.97" y="27.13">r</tspan><tspan x="115.56" y="27.13">d ph</tspan><tspan class="cls-15" x="137.04" y="27.13">r</tspan><tspan x="140.68" y="27.13">ases </tspan></text><line class="cls-19" x1="118.39" y1="194.6" x2="216.13" y2="194.6"/><text class="cls-16" transform="translate(15.59 194.58)"><tspan class="cls-23" x="0" y="0">W</tspan><tspan x="9.19" y="0">e</tspan><tspan class="cls-58" x="14.86" y="0">a</tspan><tspan x="20.26" y="0">ther AP</tspan><tspan class="cls-15" x="54.97" y="0">I</tspan><tspan class="cls-32" x="57.61" y="0">’</tspan><tspan x="59.14" y="0">s</tspan><tspan x="0" y="13.57">Open </tspan><tspan class="cls-28" x="28.56" y="13.57">w</tspan><tspan x="36.77" y="13.57">e</tspan><tspan class="cls-6" x="42.43" y="13.57">a</tspan><tspan x="47.83" y="13.57">ther(</tspan><tspan class="cls-36" x="70.42" y="13.57">F</tspan><tspan class="cls-28" x="75.64" y="13.57">r</tspan><tspan x="79.22" y="13.57">ee </tspan><tspan class="cls-57" x="92.94" y="13.57">v</tspan><tspan x="98.27" y="13.57">ersion </tspan><tspan class="cls-41" x="129.63" y="13.57">a</tspan><tspan class="cls-6" x="134.99" y="13.57">v</tspan><tspan x="140.38" y="13.57">ailable)</tspan><tspan x="0" y="27.13">Open-</tspan><tspan class="cls-39" x="29.63" y="27.13">M</tspan><tspan x="38.79" y="27.13">e</tspan><tspan class="cls-8" x="44.45" y="27.13">t</tspan><tspan x="48.13" y="27.13">eo(</tspan><tspan class="cls-45" x="63.21" y="27.13">F</tspan><tspan class="cls-28" x="68.42" y="27.13">r</tspan><tspan x="72.01" y="27.13">ee </tspan><tspan class="cls-28" x="85.73" y="27.13">v</tspan><tspan x="91.06" y="27.13">ersion </tspan><tspan class="cls-41" x="122.42" y="27.13">a</tspan><tspan class="cls-58" x="127.78" y="27.13">v</tspan><tspan class="cls-50" x="133.17" y="27.13">ailable)</tspan></text><line class="cls-19" x1="167.46" y1="299.77" x2="232.5" y2="226.82"/><text class="cls-16" transform="translate(57.19 319.9)"><tspan class="cls-62" x="0" y="0">R</tspan><tspan x="6.22" y="0">ain e</tspan><tspan class="cls-47" x="28.65" y="0">ff</tspan><tspan x="35.09" y="0">e</tspan><tspan class="cls-67" x="40.76" y="0">c</tspan><tspan x="45.97" y="0">t when </tspan><tspan class="cls-60" x="81.04" y="0">r</tspan><tspan class="cls-50" x="84.68" y="0">aining</tspan><tspan x="0" y="13.57">Sn</tspan><tspan class="cls-59" x="11.85" y="13.57">o</tspan><tspan class="cls-50" x="17.98" y="13.57">w e</tspan><tspan class="cls-7" x="34.36" y="13.57">ff</tspan><tspan x="40.8" y="13.57">e</tspan><tspan class="cls-42" x="46.47" y="13.57">c</tspan><tspan x="51.68" y="13.57">t when sn</tspan><tspan class="cls-55" x="97.5" y="13.57">o</tspan><tspan class="cls-50" x="103.63" y="13.57">wing</tspan></text><line class="cls-19" x1="233.93" y1="72.5" x2="265.23" y2="165.09"/><text class="cls-16" transform="translate(118.6 47.98)"><tspan class="cls-55" x="0" y="0">T</tspan><tspan x="5.54" y="0">heme: Hap</tspan><tspan class="cls-55" x="56.56" y="0">p</tspan><tspan class="cls-11" x="62.92" y="0">y</tspan><tspan x="67.8" y="0">, fun, cu</tspan><tspan class="cls-8" x="104.37" y="0">t</tspan><tspan class="cls-9" x="108.05" y="0">e</tspan><tspan x="113.58" y="0">, </tspan><tspan class="cls-8" x="118.31" y="0">c</tspan><tspan x="123.31" y="0">olo</tspan><tspan class="cls-34" x="138.39" y="0">r</tspan><tspan x="142.43" y="0">ful</tspan></text><line class="cls-19" x1="139.89" y1="102.58" x2="217.82" y2="161.56"/><text class="cls-16" transform="translate(58.87 107.73)"><tspan class="cls-62" x="0" y="0">R</tspan><tspan x="6.22" y="0">ainb</tspan><tspan class="cls-55" x="27.02" y="0">o</tspan><tspan x="33.15" y="0">w </tspan><tspan class="cls-8" x="43.87" y="0">c</tspan><tspan x="48.86" y="0">olors</tspan></text><rect class="cls-20" x="216.13" y="156.59" width="201.67" height="76.02" rx="12" ry="12"/><text class="cls-18" transform="translate(239.54 198.15)"><tspan class="cls-46" x="0" y="0">K</tspan><tspan x="11.66" y="0">ids</tspan><tspan class="cls-56" x="36.9" y="0"> </tspan><tspan class="cls-66" x="40.61" y="0">W</tspan><tspan x="57.79" y="0">e</tspan><tspan class="cls-63" x="68.38" y="0">a</tspan><tspan x="78.48" y="0">ther </tspan><tspan class="cls-44" x="119.18" y="0">A</tspan><tspan x="132.05" y="0">pp</tspan></text><text class="cls-17" transform="translate(279.82 217.93)"><tspan class="cls-52" x="0" y="0">Ide</tspan><tspan class="cls-5" x="41.38" y="0">a</tspan><tspan class="cls-52" x="58.88" y="0">s</tspan></text></g></svg>