<?xml version="1.0" encoding="UTF-8"?><svg id="Layer_2" xmlns="http://www.w3.org/2000/svg" viewBox="0 0 12.3 12.91"><defs><style>.cls-1{fill:none;stroke-width:0px;}.cls-2{fill:#a65252;stroke:#804b4f;}.cls-2,.cls-3{stroke-miterlimit:10;stroke-width:.25px;}.cls-3{fill:#fff;stroke:#8c5153;}</style></defs><g id="Layer_1-2"><path class="cls-2" d="m2.26.12h7.78c1.18,0,2.13.98,2.13,2.19v7.67c0,1.21-.95,2.19-2.13,2.19H2.26c-1.18,0-2.13-.98-2.13-2.19V2.31C.12,1.1,1.08.12,2.26.12Z"/><path class="cls-1" d="m2.13.86h8.03v12.04H2.13V.86Z"/><path class="cls-3" d="m6.15,6.51c0-.92.74-1.67,1.67-1.67s1.67.74,1.67,1.67-.74,1.67-1.67,1.67-1.67-.75-1.67-1.67h0Z"/><path class="cls-3" d="m2.82,9.84c0-.92.74-1.67,1.67-1.67h1.67v1.67c0,.92-.74,1.67-1.67,1.67s-1.67-.74-1.67-1.67h0Z"/><path class="cls-3" d="m6.15,1.51v3.33h1.67c.92,0,1.67-.74,1.67-1.67s-.74-1.67-1.67-1.67h-1.67Z"/><path class="cls-3" d="m2.82,3.18c0,.92.74,1.67,1.67,1.67h1.67V1.51h-1.67c-.92,0-1.67.74-1.67,1.67Z"/><path class="cls-3" d="m2.82,6.51c0,.92.74,1.67,1.67,1.67h1.67v-3.33h-1.67c-.92,0-1.67.75-1.67,1.67Z"/></g></svg>