<?xml version="1.0" encoding="UTF-8"?><svg id="Layer_2" xmlns="http://www.w3.org/2000/svg" viewBox="0 0 6.5 9.23"><defs><style>.cls-1{fill:#fff;}.cls-2{fill:#0065f4;}.cls-3{stroke:#fff;stroke-miterlimit:10;stroke-width:.25px;}.cls-4{fill:#004ce8;}</style></defs><g id="Layer_1-2"><polygon class="cls-4" points="0 1.85 .61 8.5 3.27 9.23 5.93 8.49 6.5 1.85 0 1.85"/><polygon class="cls-2" points="3.3 8.85 3.19 2.24 6.13 2.24 5.67 8.22 3.3 8.85"/><polygon class="cls-3" points="1.49 .13 1.49 1.44 2.52 1.44 2.52 1 1.91 1 1.92 .56 2.52 .56 2.52 .13 1.49 .13"/><polygon class="cls-3" points="2.73 .12 2.73 .98 3.34 .98 3.34 1.06 2.73 1.06 2.73 1.45 3.77 1.45 3.77 .58 3.16 .58 3.16 .5 3.77 .5 3.77 .12 2.73 .12"/><polygon class="cls-3" points="3.98 .12 3.98 .98 4.59 .98 4.59 1.06 3.98 1.06 3.98 1.45 5.02 1.45 5.02 .58 4.41 .58 4.41 .5 5.02 .5 5.02 .12 3.98 .12"/><polygon class="cls-1" points="1.14 3.21 1.2 4.05 4.44 4.05 4.36 4.92 1.27 4.92 1.37 5.77 4.28 5.77 4.18 6.85 3.25 7.1 2.31 6.87 2.26 6.19 1.39 6.18 1.53 7.53 3.25 8.01 4.98 7.51 5.36 3.21 1.14 3.21"/></g></svg>