<?xml version="1.0" encoding="UTF-8"?><svg id="Layer_2" xmlns="http://www.w3.org/2000/svg" xmlns:xlink="http://www.w3.org/1999/xlink" viewBox="0 0 443 444"><defs><style>.cls-1{fill:#025959;filter:url(#drop-shadow-1);}.cls-1,.cls-2{stroke-width:0px;}.cls-2{fill:#f2f2f2;fill-rule:evenodd;}.cls-3{filter:url(#drop-shadow-2);}</style><filter id="drop-shadow-1" filterUnits="userSpaceOnUse"><feOffset dx="-12" dy="7"/><feGaussianBlur result="blur" stdDeviation="5"/><feFlood flood-color="#000" flood-opacity=".75"/><feComposite in2="blur" operator="in"/><feComposite in="SourceGraphic"/></filter><filter id="drop-shadow-2" filterUnits="userSpaceOnUse"><feOffset dx="-12" dy="7"/><feGaussianBlur result="blur-2" stdDeviation="5"/><feFlood flood-color="#000" flood-opacity=".75"/><feComposite in2="blur-2" operator="in"/><feComposite in="SourceGraphic"/></filter></defs><g id="Layer_1-2"><circle class="cls-1" cx="233.22" cy="215.1" r="206.12"/><g class="cls-3"><path class="cls-2" d="m335.73,272.24h0c0,25.21-20.71,45.92-45.92,45.92h-113.08c-25.3,0-45.92-20.71-45.92-45.92v-114.2c0-25.3,20.62-45.92,45.92-45.92h113.08c25.22,0,45.92,20.62,45.92,45.92v114.2h0Zm-33.1-183.7h-138.82c-31.02,0-56.41,25.39-56.41,56.41v140.29c0,31.02,25.39,56.41,56.41,56.41h138.82c31.02,0,56.41-25.39,56.41-56.41v-140.29c0-31.02-25.39-56.41-56.41-56.41h0Z"/><path class="cls-2" d="m233.22,256.47h0c-22.79,0-41.33-18.54-41.33-41.33s18.54-41.33,41.33-41.33,41.33,18.54,41.33,41.33-18.54,41.33-41.33,41.33h0Zm0-103.81c-34.4,0-62.39,28.07-62.39,62.47s27.99,62.39,62.39,62.39,62.48-27.99,62.48-62.39-28.08-62.47-62.48-62.47h0Z"/><path class="cls-2" d="m308.38,165.38c7.11,0,12.82-5.72,12.82-12.74s-5.72-12.82-12.82-12.82-12.74,5.72-12.74,12.82,5.72,12.74,12.74,12.74h0Z"/></g></g></svg>