<?xml version="1.0" encoding="UTF-8"?><svg id="Layer_2" xmlns="http://www.w3.org/2000/svg" viewBox="0 0 20.37 25.68"><defs><style>.cls-1{fill-rule:evenodd;}.cls-1,.cls-2,.cls-3{stroke-width:0px;}.cls-1,.cls-3{fill:#30c5f4;}.cls-4{letter-spacing:0em;}.cls-5{letter-spacing:0em;}.cls-2{fill:#061d24;}.cls-6{letter-spacing:0em;}.cls-7{fill:#231f20;font-family:MyriadPro-Regular, 'Myriad Pro';font-size:4.45px;}.cls-8{letter-spacing:0em;}</style></defs><g id="Layer_1-2"><path class="cls-3" d="m3.81,0h12.5c1.66,0,3,1.34,3,3v11.08c0,1.77-1.44,3.2-3.2,3.2H3.81c-1.77,0-3.2-1.44-3.2-3.2V3.2C.6,1.44,2.04,0,3.81,0Z"/><rect class="cls-2" x="1.83" y="1.52" width="16.15" height="14.2" rx="2.61" ry="2.61"/><path class="cls-1" d="m14.93,11.14c0-.15-.04-.27-.12-.37-.08-.1-.18-.17-.31-.24-.13-.06-.27-.12-.44-.17-.17-.05-.34-.1-.52-.14-.23-.07-.45-.15-.66-.24-.21-.09-.4-.2-.56-.35-.16-.14-.29-.32-.39-.54-.1-.22-.14-.48-.14-.8,0-.39.06-.73.19-1.01.13-.29.3-.52.52-.71.22-.19.48-.33.77-.42.29-.09.6-.14.92-.14.39,0,.76.03,1.11.1.34.07.66.16.94.27v1.38c-.15-.05-.3-.1-.46-.14-.16-.04-.32-.08-.49-.12-.17-.03-.33-.06-.5-.08-.16-.02-.32-.03-.46-.03-.19,0-.34.02-.47.06-.13.04-.23.09-.31.15-.08.06-.14.14-.17.22-.03.08-.05.17-.05.26,0,.16.04.29.12.39.08.1.19.18.32.24.14.06.28.12.43.15.15.04.3.08.44.12.22.06.44.13.66.21.22.08.42.19.6.34.18.15.32.33.43.57.11.23.17.53.17.89,0,.39-.07.74-.21,1.03-.14.29-.33.54-.57.73-.25.19-.54.34-.88.43-.34.09-.72.14-1.13.14s-.77-.03-1.1-.1c-.32-.07-.59-.16-.81-.26v-1.37c.35.14.66.23.96.28.29.05.56.07.82.07.19,0,.38-.01.54-.05.17-.03.31-.08.44-.15.12-.07.22-.15.29-.25.07-.1.11-.23.11-.37h0Zm-9.19-3.23c.09.01.21.03.35.03.15,0,.29,0,.45,0,.44,0,.8-.04,1.1-.12.3-.08.53-.18.72-.32.18-.14.31-.3.39-.5.08-.19.12-.41.12-.64,0-.28-.06-.53-.18-.74-.12-.21-.33-.37-.62-.48-.15-.06-.34-.1-.57-.13-.23-.03-.51-.04-.84-.04h-.92v2.91h0Zm.83,1.52c-.14,0-.29,0-.43,0-.14,0-.27-.01-.4-.03v3.77h-1.63V3.54h2.56c.43,0,.8.02,1.13.06.32.04.61.1.86.18.61.2,1.07.52,1.4.97.33.44.49,1,.49,1.68,0,.46-.09.88-.27,1.25-.18.37-.44.69-.78.95-.34.26-.76.46-1.25.6-.49.14-1.06.21-1.69.21h0Z"/><text class="cls-7" transform="translate(0 24.57)"><tspan class="cls-4" x="0" y="0">P</tspan><tspan class="cls-5" x="2.35" y="0">ho</tspan><tspan class="cls-6" x="7.26" y="0">t</tspan><tspan class="cls-8" x="8.71" y="0">oshop</tspan></text></g></svg>