<?xml version="1.0" encoding="UTF-8"?><svg id="Layer_2" xmlns="http://www.w3.org/2000/svg" viewBox="0 0 12.3 12.3"><defs><style>.cls-1{fill:#fff;stroke:#8c5153;stroke-width:.2px;}.cls-1,.cls-2{stroke-miterlimit:10;}.cls-2{fill:#a65252;stroke:#804b4f;stroke-width:.25px;}</style></defs><g id="Layer_1-2"><path class="cls-2" d="m2.26.12h7.78c1.18,0,2.13.98,2.13,2.19v7.67c0,1.21-.95,2.19-2.13,2.19H2.26c-1.18,0-2.13-.98-2.13-2.19V2.31C.12,1.1,1.08.12,2.26.12Z"/><path class="cls-1" d="m11.47,9.41c-.09-.55-.45-1.01-1.51-1.44-.37-.17-.78-.29-.9-.57-.04-.16-.05-.25-.02-.35.08-.32.46-.42.76-.33.19.07.38.22.49.45.52-.34.52-.33.88-.57-.13-.21-.2-.3-.29-.39-.31-.35-.74-.53-1.42-.52-.12.01-.24.03-.36.05-.34.09-.66.26-.85.5-.57.65-.41,1.78.29,2.25.68.51,1.69.63,1.82,1.11.12.59-.43.78-.98.71-.41-.08-.63-.29-.88-.67q-.45.26-.92.53c.11.24.23.35.41.56.87.89,3.06.84,3.45-.5.02-.05.12-.35.04-.83Zm-4.51-3.64h-1.13c0,.97,0,1.94,0,2.91,0,.62.03,1.19-.07,1.36-.16.34-.59.3-.79.23-.2-.1-.3-.24-.42-.43-.03-.06-.06-.1-.06-.1-.31.19-.61.37-.92.56.15.31.38.58.66.76.43.26,1.01.34,1.61.2.39-.11.73-.35.91-.71.26-.47.2-1.05.2-1.68,0-1.03,0-2.07,0-3.1h0Z"/></g></svg>