<?xml version="1.0" encoding="UTF-8"?><svg id="Layer_2" xmlns="http://www.w3.org/2000/svg" viewBox="0 0 5.82 5.71"><defs><style>.cls-1{fill:#a65151;stroke:#020000;stroke-miterlimit:10;stroke-width:.2px;}</style></defs><g id="Layer_1-2"><path class="cls-1" d="m2.37,2.3c.37.2.74-.43.76-.89.01-.46-.31-.96-.53-1.19-.21-.23-.56-.1-.63.01,0,0-.1.08-.17.29-.04.11-.06.26-.06.45,0,.16.02.32.06.48.1.37.3.69.57.84"/><path class="cls-1" d="m3.82,2.78c.31.09.62-.3.8-.69.09-.18.15-.37.17-.51.04-.24,0-.61-.17-.82-.13-.17-.35-.24-.66-.05,0,0-.51.33-.59.83-.07.5-.01,1.11.44,1.24"/><path class="cls-1" d="m4.89,2.18s-.28.2-.47.49c-.09.14-.16.29-.17.46-.03.33.03.58.17.73.09.08.2.13.35.13.41,0,.94-.6.94-1.16s-.3-.99-.83-.64"/><path class="cls-1" d="m1.49,3.02c.07-.13.08-.32.04-.59,0-.06-.02-.11-.04-.17-.14-.48-.55-.78-.55-.78-.29-.13-.49-.09-.63.03-.25.22-.26.74-.14,1.02.17.43.5.81.9.74.21-.04.35-.11.42-.25"/><path class="cls-1" d="m4.23,4.52c-.22-.61-.65-1.19-.85-1.4-.24-.25-.68-.38-.92-.14,0,0-.61.37-1.09.86-.18.19-.35.39-.46.6-.34.66-.05,1.01.31,1.07.06,0,.12.01.18,0,.42-.05,1.1-.4,1.76-.07.38.19.76.21.99.06.17-.11.26-.32.2-.63-.02-.12-.06-.24-.11-.36"/></g></svg>