<?xml version="1.0" encoding="UTF-8"?><svg id="Layer_2" xmlns="http://www.w3.org/2000/svg" viewBox="0 0 10.84 10.84"><defs><style>.cls-1{fill:#fff;stroke-width:0px;}.cls-2{fill:#a65252;stroke:#804b4f;stroke-miterlimit:10;stroke-width:.75px;}</style></defs><g id="Layer_1-2"><path class="cls-2" d="m2.16.38h6.51c.99,0,1.79.82,1.79,1.83v6.42c0,1.01-.8,1.83-1.79,1.83H2.16c-.99,0-1.79-.82-1.79-1.83V2.21C.38,1.19,1.17.38,2.16.38Z"/><path class="cls-1" d="m9.79,5.38c0-.65-.73-1.27-1.84-1.65.26-1.27.14-2.28-.36-2.61-.12-.08-.25-.11-.4-.11v.45c.08,0,.15.02.2.05.24.16.35.75.27,1.51-.02.19-.05.39-.09.59-.35-.1-.73-.17-1.13-.22-.24-.37-.49-.71-.74-1,.58-.61,1.13-.94,1.5-.94v-.45c-.49,0-1.13.39-1.78,1.07-.65-.68-1.29-1.06-1.78-1.06v.45c.37,0,.92.33,1.5.93-.25.29-.5.63-.74,1-.4.05-.78.12-1.13.22-.04-.2-.07-.39-.09-.58-.08-.76.02-1.36.26-1.52.05-.04.12-.05.2-.05v-.45c-.15,0-.29.04-.4.11-.5.32-.61,1.33-.35,2.6-1.11.38-1.83,1-1.83,1.65s.73,1.27,1.84,1.65c-.26,1.27-.14,2.28.36,2.61.12.08.25.11.4.11.49,0,1.13-.39,1.78-1.07.65.68,1.29,1.06,1.78,1.06.15,0,.29-.04.4-.11.5-.32.61-1.33.35-2.6,1.1-.38,1.83-1,1.83-1.65h0Zm-2.32-1.33c-.07.26-.15.52-.24.79-.07-.16-.15-.32-.23-.48-.08-.16-.17-.32-.26-.47.25.04.5.09.73.16h0Zm-.82,2.13c-.14.27-.28.53-.43.76-.27.03-.53.04-.81.04s-.54-.01-.8-.04c-.15-.24-.29-.49-.43-.76-.14-.26-.26-.53-.37-.8.11-.27.24-.54.37-.8.14-.27.28-.53.43-.76.27-.03.53-.04.81-.04s.54.01.8.04c.15.24.29.49.43.76.14.26.26.53.37.8-.11.27-.24.54-.37.8h0Zm.58-.26c.1.27.18.54.25.8-.23.06-.48.12-.73.16.09-.15.17-.31.26-.47.08-.16.16-.32.23-.48h0Zm-1.81,2.13c-.17-.19-.33-.41-.5-.64.16,0,.32.01.49.01s.33,0,.5-.01c-.16.23-.33.45-.49.64Zm-1.33-1.18c-.25-.04-.5-.09-.73-.16.07-.26.15-.52.24-.79.07.16.15.32.23.48s.17.32.26.47Zm1.32-4.16c.17.19.33.41.5.64-.16,0-.32-.01-.49-.01s-.33,0-.5.01c.16-.23.33-.45.49-.64Zm-1.32,1.18c-.09.15-.17.31-.26.47-.08.16-.16.32-.23.48-.1-.27-.18-.54-.25-.8.23-.06.48-.12.73-.16h0Zm-1.61,2.5c-.63-.3-1.04-.7-1.04-1.01s.41-.71,1.04-1.01c.15-.07.32-.14.49-.2.1.39.24.8.4,1.22-.16.42-.3.82-.4,1.21-.18-.06-.34-.13-.5-.2h0Zm.96,2.86c-.24-.16-.35-.75-.27-1.51.02-.19.05-.39.09-.59.35.1.73.17,1.13.22.24.37.49.71.74,1-.58.61-1.13.94-1.5.94-.08,0-.15-.02-.2-.05h0Zm4.23-1.52c.08.76-.02,1.36-.26,1.52-.05.04-.12.05-.2.05-.37,0-.92-.33-1.5-.93.25-.29.5-.63.74-1,.4-.05.78-.12,1.13-.22.04.2.07.4.09.58Zm.69-1.33c-.15.07-.32.14-.49.2-.1-.39-.24-.8-.4-1.22.16-.42.3-.82.4-1.21.18.06.34.13.5.2.63.3,1.04.7,1.04,1.01,0,.31-.41.71-1.04,1.01h0Z"/><ellipse class="cls-1" cx="5.42" cy="5.38" rx=".81" ry=".91"/></g></svg>