<?xml version="1.0" encoding="UTF-8"?><svg id="Layer_2" xmlns="http://www.w3.org/2000/svg" viewBox="0 0 137.38 192.17"><defs><style>.cls-1{fill:#d25824;}.cls-2{fill:#a1361b;}.cls-3{fill:#c74321;}.cls-4{fill:#aa471d;}.cls-5{fill:#9c9c9c;}.cls-6{fill:#a0361b;}.cls-7{fill:#9a341a;}.cls-8{fill:#a9471d;}.cls-9{fill:#732713;}.cls-10{fill:#959595;}.cls-11{fill:#7b3315;}.cls-12{fill:#b4b4b4;}.cls-13{fill:#818181;}.cls-14{fill:gray;}.cls-15{fill:#828282;}.cls-16{fill:none;isolation:isolate;}.cls-17{fill:#7d3515;}.cls-18{fill:#adadad;}.cls-19{fill:#b3b3b3;}.cls-20{fill:#762814;}.cls-21{fill:#838383;}.cls-22{fill:#7b3415;}.cls-23{fill:#dfdfdf;}</style></defs><g id="Layer_1-2"><g class="cls-16"><polygon class="cls-2" points="74.07 183.02 64.95 178.06 110.78 159.62 119.9 164.58 74.07 183.02"/><polygon class="cls-17" points="104.96 145.02 95.85 140.06 100.31 88.55 109.42 93.51 104.96 145.02"/><polygon class="cls-11" points="74.07 183.02 64.95 178.06 64.62 154.08 73.74 159.04 74.07 183.02"/><polygon class="cls-8" points="73.74 159.04 64.62 154.08 95.85 140.06 104.96 145.02 73.74 159.04"/><polygon class="cls-6" points="73.36 159.21 64.24 154.25 64.62 154.08 73.74 159.04 73.36 159.21"/><polygon class="cls-21" points="90.62 134.09 81.51 129.13 82.1 108.42 91.21 113.38 90.62 134.09"/><polygon class="cls-20" points="119.9 164.58 110.78 159.62 120 35.52 129.12 40.48 119.9 164.58"/><polygon class="cls-19" points="73.5 141.46 64.38 136.5 81.51 129.13 90.62 134.09 73.5 141.46"/><polygon class="cls-19" points="72.95 141.7 63.83 136.74 64.38 136.5 73.5 141.46 72.95 141.7"/><polygon class="cls-22" points="111.36 76.94 102.24 71.98 102.27 54.65 111.39 59.61 111.36 76.94"/><polygon class="cls-11" points="73.5 141.46 64.38 136.5 64.04 110.96 73.15 115.92 73.5 141.46"/><polygon class="cls-4" points="73.15 115.92 64.04 110.96 82.1 108.42 91.21 113.38 73.15 115.92"/><polygon class="cls-18" points="56.01 139.34 46.89 134.38 63.83 136.74 72.95 141.7 56.01 139.34"/><polygon class="cls-12" points="72.92 98.62 63.8 93.66 100.31 88.55 109.42 93.51 72.92 98.62"/><polygon class="cls-7" points="41.74 153.9 32.62 148.94 64.24 154.25 73.36 159.21 41.74 153.9"/><polygon class="cls-9" points="56.01 139.34 46.89 134.38 46.12 120.19 55.24 125.15 56.01 139.34"/><polygon class="cls-12" points="53.46 101.34 44.34 96.38 63.8 93.66 72.92 98.62 53.46 101.34"/><polygon class="cls-11" points="72.92 98.62 63.8 93.66 63.58 77.41 72.7 82.37 72.92 98.62"/><polygon class="cls-4" points="72.7 82.37 63.58 77.41 102.24 71.98 111.36 76.94 72.7 82.37"/><polygon class="cls-12" points="39.08 127.36 29.96 122.4 46.12 120.19 55.24 125.15 39.08 127.36"/><polygon class="cls-14" points="41.74 153.9 32.62 148.94 29.96 122.4 39.08 127.36 41.74 153.9"/><polygon class="cls-12" points="72.46 65.08 63.34 60.12 102.27 54.65 111.39 59.61 72.46 65.08"/><polygon class="cls-2" points="38.51 120.79 29.4 115.83 64.04 110.96 73.15 115.92 38.51 120.79"/><polygon class="cls-4" points="72.25 49.51 63.13 44.55 120 35.52 129.12 40.48 72.25 49.51"/><polygon class="cls-1" points="72.25 49.51 129.12 40.48 119.9 164.58 74.07 183.02 73.74 159.04 104.96 145.02 109.42 93.51 72.92 98.62 72.7 82.37 111.36 76.94 111.39 59.61 72.46 65.08 72.25 49.51"/><polygon class="cls-11" points="72.46 65.08 63.34 60.12 63.13 44.55 72.25 49.51 72.46 65.08"/><polygon class="cls-9" points="53.46 101.34 44.34 96.38 43.49 80.23 52.61 85.19 53.46 101.34"/><polygon class="cls-2" points="52.61 85.19 43.49 80.23 63.58 77.41 72.7 82.37 52.61 85.19"/><polygon class="cls-3" points="52.61 85.19 72.7 82.37 72.92 98.62 53.46 101.34 52.61 85.19"/><polygon class="cls-12" points="34.84 70.37 25.72 65.41 63.34 60.12 72.46 65.08 34.84 70.37"/><polygon class="cls-13" points="38.51 120.79 29.4 115.83 25.72 65.41 34.84 70.37 38.51 120.79"/><path class="cls-3" d="m12.22,49.68l122.27-17.18-11,136.34-50.07,21.98-49.97-7.77L12.22,49.68Zm107.68,114.89l9.22-124.1-56.87,9.03.21,15.57-37.63,5.29,3.68,50.42,34.64-4.87.35,25.54-.55.24-16.94-2.36-.77-14.2-16.16,2.21,2.66,26.54,31.62,5.31.38-.17.33,23.99,45.83-18.45"/><polygon class="cls-1" points="73.15 115.92 73.5 141.46 90.62 134.09 91.21 113.38 73.15 115.92"/><polygon class="cls-23" points="111.39 59.61 111.36 76.94 72.7 82.37 52.61 85.19 53.46 101.34 72.92 98.62 109.42 93.51 104.96 145.02 73.74 159.04 73.36 159.21 41.74 153.9 39.08 127.36 55.24 125.15 56.01 139.34 72.95 141.7 73.5 141.46 90.62 134.09 91.21 113.38 73.15 115.92 38.51 120.79 34.84 70.37 72.46 65.08 111.39 59.61"/><polygon class="cls-2" points="12.22 49.68 3.1 44.72 125.37 27.54 134.49 32.5 12.22 49.68"/><polygon class="cls-9" points="23.46 183.06 14.34 178.1 3.1 44.72 12.22 49.68 23.46 183.06"/></g><g class="cls-16"><polygon class="cls-15" points="123.61 25.12 114.5 20.16 114.51 11.58 123.63 16.54 123.61 25.12"/><polygon class="cls-12" points="113.01 18.03 103.89 13.07 114.51 11.58 123.63 16.54 113.01 18.03"/><polygon class="cls-12" points="113.9 16.95 104.78 11.99 115.4 10.5 124.52 15.46 113.9 16.95"/><polygon class="cls-12" points="105.02 27.73 95.9 22.77 114.5 20.16 123.61 25.12 105.02 27.73"/><polygon class="cls-15" points="113.01 18.03 103.89 13.07 103.92 -3.3 113.04 1.66 113.01 18.03"/><polygon class="cls-12" points="105.07 2.78 95.95 -2.18 103.92 -3.3 113.04 1.66 105.07 2.78"/><polygon class="cls-15" points="105.02 27.73 95.9 22.77 95.95 -2.18 105.07 2.78 105.02 27.73"/><polygon class="cls-23" points="113.04 1.66 113.01 18.03 123.63 16.54 123.61 25.12 105.02 27.73 105.07 2.78 113.04 1.66"/><polygon class="cls-12" points="104.18 1.94 95.06 -3.02 104.81 -4.39 113.93 .57 104.18 1.94"/><polygon class="cls-15" points="104.13 28.82 95.01 23.86 95.06 -3.02 104.18 1.94 104.13 28.82"/><path class="cls-23" d="m113.9,16.95l10.62-1.49-.02,10.5-20.37,2.86.05-26.87,9.75-1.37-.03,16.38Zm9.72,8.17l.02-8.58-10.62,1.49.03-16.38-7.97,1.12-.05,24.95,18.59-2.61"/></g><g class="cls-16"><polygon class="cls-12" points="93.37 29.39 84.25 24.43 92.29 23.24 101.41 28.2 93.37 29.39"/><polygon class="cls-15" points="101.41 28.2 92.29 23.24 92.34 -1.67 101.45 3.29 101.41 28.2"/><polygon class="cls-15" points="93.37 29.39 84.25 24.43 84.33 12.92 93.45 17.88 93.37 29.39"/><polygon class="cls-15" points="92.47 30.48 83.35 25.52 83.42 15.85 92.54 20.81 92.47 30.48"/><polygon class="cls-5" points="88.07 26.01 78.95 21.05 84.33 12.92 93.45 17.88 88.07 26.01"/><polygon class="cls-12" points="93.28 4.43 84.17 -.53 92.34 -1.67 101.45 3.29 93.28 4.43"/><polygon class="cls-10" points="88.06 15.28 78.94 10.32 84.17 -.53 93.28 4.43 88.06 15.28"/><polygon class="cls-14" points="88.07 26.01 78.95 21.05 73.62 14.43 82.73 19.39 88.07 26.01"/><polygon class="cls-14" points="88.07 27.56 78.95 22.6 74.5 17.09 83.62 22.05 88.07 27.56"/><polygon class="cls-10" points="88.06 13.28 78.94 8.32 83.65 -1.41 92.76 3.55 88.06 13.28"/><polygon class="cls-12" points="92.76 3.55 83.65 -1.41 93.23 -2.76 102.34 2.2 92.76 3.55"/><polygon class="cls-15" points="82.72 30.89 73.6 25.93 73.62 14.43 82.73 19.39 82.72 30.89"/><polygon class="cls-12" points="74.73 32.01 65.62 27.05 73.6 25.93 82.72 30.89 74.73 32.01"/><polygon class="cls-14" points="88.06 15.28 78.94 10.32 73.83 .93 82.95 5.89 88.06 15.28"/><polygon class="cls-15" points="74.73 32.01 65.62 27.05 65.65 2.08 74.76 7.04 74.73 32.01"/><polygon class="cls-12" points="74.76 7.04 65.65 2.08 73.83 .93 82.95 5.89 74.76 7.04"/><polygon class="cls-23" points="101.45 3.29 101.41 28.2 93.37 29.39 93.45 17.88 88.07 26.01 82.73 19.39 82.72 30.89 74.73 32.01 74.76 7.04 82.95 5.89 88.06 15.28 93.28 4.43 101.45 3.29"/><path class="cls-23" d="m92.76,3.55l9.58-1.35-.05,26.84-9.83,1.44.07-9.67-4.47,6.76-4.45-5.51v9.67s-9.77,1.37-9.77,1.37l.03-26.9,9.6-1.35,4.58,8.43,4.7-9.74Zm8.64,24.66l.05-24.92-8.17,1.15-5.23,10.85-5.11-9.4-8.19,1.15-.03,24.98,7.99-1.12v-11.5s5.35,6.61,5.35,6.61l5.38-8.13-.09,11.51,8.04-1.18"/><polygon class="cls-15" points="73.84 33.1 64.72 28.14 64.76 1.24 73.88 6.2 73.84 33.1"/><polygon class="cls-12" points="73.88 6.2 64.76 1.24 74.36 -.11 83.48 4.85 73.88 6.2"/></g><g class="cls-16"><polygon class="cls-12" points="56.93 34.52 47.81 29.56 55.79 28.43 64.9 33.39 56.93 34.52"/><polygon class="cls-15" points="71.17 16.13 62.05 11.17 62.07 2.58 71.18 7.54 71.17 16.13"/><polygon class="cls-15" points="64.9 33.39 55.79 28.43 55.82 12.05 64.93 17.01 64.9 33.39"/><polygon class="cls-12" points="64.93 17.01 55.82 12.05 62.05 11.17 71.17 16.13 64.93 17.01"/><polygon class="cls-15" points="56.93 34.52 47.81 29.56 47.81 13.18 56.93 18.14 56.93 34.52"/><polygon class="cls-15" points="56.04 35.6 46.93 30.64 46.92 14.26 56.04 19.22 56.04 35.6"/><polygon class="cls-12" points="49.82 19.13 40.7 14.18 47.81 13.18 56.93 18.14 49.82 19.13"/><polygon class="cls-12" points="49.83 10.54 40.72 5.58 62.07 2.58 71.18 7.54 49.83 10.54"/><polygon class="cls-15" points="49.82 19.13 40.7 14.17 40.72 5.58 49.83 10.54 49.82 19.13"/><path class="cls-23" d="m48.95,9.71l23.13-3.25-.02,10.51-6.23.88-.03,16.38-9.75,1.37v-16.38s-7.11,1-7.11,1l.02-10.51Zm22.22,6.43l.02-8.59-21.35,3-.02,8.59,7.11-1v16.38s7.97-1.12,7.97-1.12l.03-16.38,6.23-.88"/><polygon class="cls-23" points="71.18 7.54 71.17 16.13 64.93 17.01 64.9 33.39 56.93 34.52 56.93 18.14 49.82 19.13 49.83 10.54 71.18 7.54"/><polygon class="cls-15" points="48.93 20.22 39.81 15.26 39.83 4.75 48.95 9.71 48.93 20.22"/><polygon class="cls-12" points="48.95 9.71 39.83 4.75 62.96 1.5 72.07 6.46 48.95 9.71"/></g><g class="cls-16"><polygon class="cls-12" points="39.13 37.02 30.02 32.06 37.09 31.06 46.21 36.02 39.13 37.02"/><polygon class="cls-15" points="46.21 36.02 37.09 31.06 37.14 6.08 46.25 11.04 46.21 36.02"/><polygon class="cls-15" points="39.13 37.02 30.02 32.06 30.03 23.36 39.15 28.32 39.13 37.02"/><polygon class="cls-15" points="38.24 38.1 29.13 33.14 29.14 24.44 38.26 29.4 38.24 38.1"/><polygon class="cls-12" points="31.08 29.44 21.97 24.48 30.03 23.36 39.15 28.32 31.08 29.44"/><polygon class="cls-15" points="31.07 38.15 21.95 33.19 21.97 24.48 31.08 29.44 31.07 38.15"/><polygon class="cls-12" points="39.16 12.04 30.04 7.08 37.14 6.08 46.25 11.04 39.16 12.04"/><polygon class="cls-15" points="39.13 20.7 30.02 15.74 30.04 7.08 39.16 12.04 39.13 20.7"/><polygon class="cls-12" points="24.03 39.14 14.92 34.18 21.95 33.19 31.07 38.15 24.03 39.14"/><polygon class="cls-12" points="38.27 11.21 29.15 6.25 38.03 5 47.14 9.96 38.27 11.21"/><polygon class="cls-15" points="38.25 19.86 29.13 14.9 29.15 6.25 38.27 11.21 38.25 19.86"/><polygon class="cls-12" points="31.11 21.82 22 16.86 30.02 15.74 39.13 20.7 31.11 21.82"/><polygon class="cls-12" points="32.01 20.73 22.9 15.77 29.13 14.9 38.25 19.86 32.01 20.73"/><polygon class="cls-15" points="31.11 21.82 22 16.86 22.01 8.21 31.13 13.17 31.11 21.82"/><polygon class="cls-15" points="24.03 39.14 14.92 34.18 14.96 9.25 24.08 14.21 24.03 39.14"/><polygon class="cls-12" points="24.08 14.21 14.96 9.25 22.01 8.21 31.13 13.17 24.08 14.21"/><polygon class="cls-23" points="46.25 11.04 46.21 36.02 39.13 37.02 39.15 28.32 31.08 29.44 31.07 38.15 24.03 39.14 24.08 14.21 31.13 13.17 31.11 21.82 39.13 20.7 39.16 12.04 46.25 11.04"/><path class="cls-23" d="m38.27,11.21l8.88-1.25-.05,26.9-8.85,1.24.02-8.7-6.29.88-.02,8.71-8.81,1.24.05-26.84,8.84-1.31-.02,8.65,6.23-.87.02-8.66Zm7.94,24.82l.05-24.98-7.1,1-.02,8.66-8.02,1.12.02-8.65-7.05,1.04-.05,24.93,7.03-.99.02-8.71,8.07-1.13-.02,8.7,7.07-.99"/><polygon class="cls-15" points="23.14 40.22 14.03 35.26 14.08 8.43 23.19 13.39 23.14 40.22"/><polygon class="cls-12" points="23.19 13.39 14.08 8.43 22.91 7.12 32.03 12.08 23.19 13.39"/></g></g></svg>