<?xml version="1.0" encoding="UTF-8"?><svg id="Layer_2" xmlns="http://www.w3.org/2000/svg" viewBox="0 0 27.61 34.8"><defs><style>.cls-1{fill-rule:evenodd;}.cls-1,.cls-2,.cls-3{stroke-width:0px;}.cls-1,.cls-3{fill:#30c5f4;}.cls-4{letter-spacing:0em;}.cls-2{fill:#061d24;}.cls-5{letter-spacing:0em;}.cls-6{fill:#231f20;font-family:MyriadPro-Regular, 'Myriad Pro';font-size:6.04px;}</style></defs><g id="Layer_1-2"><path class="cls-3" d="m4.02,0h19.14c1.66,0,3,1.34,3,3v17.22c0,1.77-1.44,3.2-3.2,3.2H4.02c-1.77,0-3.2-1.44-3.2-3.2V3.2C.82,1.44,2.25,0,4.02,0Z"/><rect class="cls-2" x="2.48" y="2.07" width="21.88" height="19.24" rx="2.61" ry="2.61"/><path class="cls-1" d="m20.23,15.1c0-.2-.05-.37-.16-.5-.1-.13-.25-.24-.42-.33-.17-.09-.37-.16-.6-.23-.23-.06-.46-.13-.71-.19-.31-.09-.61-.2-.9-.32-.29-.12-.54-.28-.76-.47-.22-.19-.39-.44-.52-.74-.13-.3-.19-.66-.19-1.09,0-.53.09-.99.26-1.37.18-.39.41-.71.71-.96.3-.26.65-.44,1.04-.57.39-.12.81-.19,1.25-.19.53,0,1.03.05,1.5.14.47.09.89.22,1.27.36v1.88c-.2-.07-.41-.13-.63-.19-.22-.06-.44-.11-.66-.16-.23-.04-.45-.08-.67-.11-.22-.03-.43-.04-.63-.04-.25,0-.46.03-.64.08-.17.05-.31.12-.42.21-.11.09-.19.19-.24.3-.05.11-.07.23-.07.36,0,.21.05.39.16.53.1.14.25.25.44.33.18.09.38.16.58.21.2.06.4.11.59.16.3.08.6.17.9.28.3.11.57.26.81.46.24.2.44.45.59.77.15.32.23.72.23,1.21,0,.53-.09,1-.28,1.4-.18.4-.44.73-.77.99-.33.26-.73.46-1.2.59-.46.13-.97.19-1.53.19s-1.05-.05-1.49-.14c-.44-.1-.8-.21-1.09-.36v-1.86c.47.19.9.31,1.3.38.4.07.76.1,1.11.1.26,0,.51-.02.74-.06.23-.04.42-.11.59-.2.16-.09.29-.2.39-.34.1-.14.14-.31.14-.5h0Zm-12.45-4.37c.13.02.29.04.48.05.2,0,.4.01.61.01.59,0,1.09-.05,1.49-.16.4-.1.72-.25.97-.43.25-.19.42-.41.53-.67.11-.26.16-.55.16-.86,0-.38-.08-.72-.24-1-.16-.28-.44-.5-.84-.65-.21-.08-.47-.13-.78-.17-.31-.04-.68-.05-1.13-.05h-1.24v3.94h0Zm1.12,2.06c-.2,0-.39,0-.58,0-.19,0-.37-.02-.54-.04v5.11h-2.21V4.79h3.48c.58,0,1.09.03,1.53.08.43.05.82.14,1.16.25.82.27,1.46.71,1.9,1.31.45.6.67,1.36.67,2.28,0,.63-.12,1.2-.36,1.7-.24.51-.59.93-1.05,1.28-.46.35-1.03.62-1.69.81-.67.19-1.43.28-2.29.28h0Z"/><text class="cls-6" transform="translate(0 33.29)"><tspan class="cls-5" x="0" y="0">P</tspan><tspan x="3.18" y="0">ho</tspan><tspan class="cls-4" x="9.84" y="0">t</tspan><tspan x="11.81" y="0">oshop</tspan></text></g></svg>