<?xml version="1.0" encoding="UTF-8"?><svg id="Layer_2" xmlns="http://www.w3.org/2000/svg" viewBox="0 0 8.69 9.98"><defs><style>.cls-1{letter-spacing:.01em;}.cls-2{font-family:MyriadPro-Regular, 'Myriad Pro';font-size:1.62px;}.cls-2,.cls-3{fill:#58bedd;}.cls-4{fill:none;stroke:#58bedd;stroke-miterlimit:10;stroke-width:.5px;}.cls-5{letter-spacing:0em;}</style></defs><g id="Layer_1-2"><circle class="cls-3" cx="4.35" cy="3.68" r=".77"/><path class="cls-4" d="m2.02,2.34s-.73-3.71,2.17-1.24c0,0,1.9,1.84,2.45,4.23s-.58,2.17-.58,2.17c0,0-.9.01-1.84-1.16s-1.58-2.36-1.73-2.64-.45-1.16-.48-1.36Z"/><path class="cls-4" d="m6.69,2.39s.73-3.71-2.17-1.24c0,0-1.9,1.84-2.45,4.23s.58,2.17.58,2.17c0,0,.9.01,1.84-1.16s1.58-2.36,1.73-2.64.45-1.16.48-1.36Z"/><path class="cls-4" d="m6.88,5.09s3.56-1.28-.05-2.5c0,0-2.55-.69-4.89.07s-1.57,1.61-1.57,1.61c0,0,.45.78,1.94.99s2.84.14,3.16.12,1.23-.21,1.42-.29Z"/><text class="cls-2" transform="translate(1.59 9.57)"><tspan class="cls-5" x="0" y="0">R</tspan><tspan x=".88" y="0">ea</tspan><tspan class="cls-1" x="2.46" y="0">c</tspan><tspan x="3.21" y="0">t JS</tspan></text></g></svg>