<?xml version="1.0" encoding="UTF-8"?><svg id="Layer_2" xmlns="http://www.w3.org/2000/svg" viewBox="0 0 12.3 12.3"><defs><style>.cls-1{fill:#fff;stroke:#8c5153;stroke-width:.2px;}.cls-1,.cls-2{stroke-miterlimit:10;}.cls-2{fill:#a65252;stroke:#804b4f;stroke-width:.25px;}</style></defs><g id="Layer_1-2"><path class="cls-2" d="m2.26.12h7.78c1.18,0,2.13.98,2.13,2.19v7.67c0,1.21-.95,2.19-2.13,2.19H2.26c-1.18,0-2.13-.98-2.13-2.19V2.31C.12,1.1,1.08.12,2.26.12Z"/><path class="cls-1" d="m.81,4.57s-.25-.19.05-.43l.71-.64s.2-.22.42-.03l6.56,5.02v2.41s0,.38-.48.34L.81,4.57Z"/><path class="cls-1" d="m2.5,6.12l-1.69,1.55s-.17.13,0,.36l.79.72s.19.2.46-.03l1.79-1.37-1.35-1.24Z"/><path class="cls-1" d="m5.47,6.13l3.1-2.39-.02-2.4s-.13-.52-.57-.25l-4.13,3.8,1.62,1.24Z"/><path class="cls-1" d="m8.06,11.24c.18.19.4.13.4.13l2.42-1.2c.31-.21.27-.48.27-.48V2.49c0-.32-.32-.43-.32-.43l-2.09-1.02c-.46-.29-.76.05-.76.05,0,0,.39-.28.57.25v9.51c0,.07-.01.13-.04.19-.06.11-.17.22-.46.17l.02.02Z"/></g></svg>