<?xml version="1.0" encoding="UTF-8"?><svg id="Layer_2" xmlns="http://www.w3.org/2000/svg" viewBox="0 0 7.1 7.39"><defs><style>.cls-1{fill:#1f4c4e;stroke:#112b2a;stroke-width:.25px;}.cls-1,.cls-2{stroke-miterlimit:10;}.cls-2{fill:#fff;stroke:#f18721;stroke-width:.2px;}.cls-3{fill:none;stroke-width:0px;}</style></defs><g id="Layer_1-2"><path class="cls-1" d="m1.34.12h4.42c.67,0,1.21.56,1.21,1.24v4.36c0,.69-.54,1.24-1.21,1.24H1.34c-.67,0-1.21-.56-1.21-1.24V1.37C.12.68.67.12,1.34.12Z"/><path class="cls-3" d="m1.27.55h4.57v6.85H1.27V.55Z"/><path class="cls-2" d="m3.55,3.67c0-.52.42-.95.95-.95s.95.42.95.95-.42.95-.95.95-.95-.43-.95-.95h0Z"/><path class="cls-2" d="m1.66,5.56c0-.52.42-.95.95-.95h.95v.95c0,.52-.42.95-.95.95s-.95-.42-.95-.95h0Z"/><path class="cls-2" d="m3.55.83v1.89h.95c.52,0,.95-.42.95-.95s-.42-.95-.95-.95h-.95Z"/><path class="cls-2" d="m1.66,1.78c0,.52.42.95.95.95h.95V.83h-.95c-.52,0-.95.42-.95.95Z"/><path class="cls-2" d="m1.66,3.67c0,.52.42.95.95.95h.95v-1.9h-.95c-.52,0-.95.43-.95.95Z"/></g></svg>