<?xml version="1.0" encoding="UTF-8"?><svg id="Layer_2" xmlns="http://www.w3.org/2000/svg" viewBox="0 0 10.84 10.84"><defs><style>.cls-1{fill:#fff;stroke:#8c5153;stroke-width:.25px;}.cls-1,.cls-2{stroke-miterlimit:10;}.cls-2{fill:#a65252;stroke:#804b4f;stroke-width:.75px;}</style></defs><g id="Layer_1-2"><path class="cls-2" d="m2.16.38h6.51c.99,0,1.79.82,1.79,1.83v6.42c0,1.01-.8,1.83-1.79,1.83H2.16c-.99,0-1.79-.82-1.79-1.83V2.21C.38,1.19,1.17.38,2.16.38Z"/><path class="cls-1" d="m.94,4.1s-.21-.16.04-.36l.6-.54s.17-.18.35-.02l5.49,4.2v2.02s0,.32-.4.28L.94,4.1Z"/><path class="cls-1" d="m2.36,5.4l-1.42,1.3s-.15.11,0,.3l.66.6s.16.17.39-.02l1.5-1.15-1.13-1.04Z"/><path class="cls-1" d="m4.85,5.41l2.6-2-.02-2.01s-.11-.44-.48-.21l-3.46,3.18,1.36,1.04Z"/><path class="cls-1" d="m7.02,9.68c.15.16.33.1.33.1l2.02-1.01c.26-.18.22-.4.22-.4V2.35c0-.26-.27-.36-.27-.36l-1.75-.85c-.38-.24-.63.04-.63.04,0,0,.32-.23.48.21v7.96c0,.05-.01.11-.03.16-.05.09-.15.18-.39.15l.02.02Z"/></g></svg>