<?xml version="1.0" encoding="UTF-8"?><svg id="Layer_2" xmlns="http://www.w3.org/2000/svg" xmlns:xlink="http://www.w3.org/1999/xlink" viewBox="0 0 443 444"><defs><style>.cls-1{fill:#025959;filter:url(#drop-shadow-1);}.cls-1,.cls-2{stroke-width:0px;}.cls-2{fill:#f2f2f2;fill-rule:evenodd;}.cls-3{filter:url(#drop-shadow-2);}</style><filter id="drop-shadow-1" filterUnits="userSpaceOnUse"><feOffset dx="-12" dy="7"/><feGaussianBlur result="blur" stdDeviation="5"/><feFlood flood-color="#000" flood-opacity=".75"/><feComposite in2="blur" operator="in"/><feComposite in="SourceGraphic"/></filter><filter id="drop-shadow-2" filterUnits="userSpaceOnUse"><feOffset dx="-12" dy="7"/><feGaussianBlur result="blur-2" stdDeviation="5"/><feFlood flood-color="#000" flood-opacity=".75"/><feComposite in2="blur-2" operator="in"/><feComposite in="SourceGraphic"/></filter></defs><g id="Layer_1-2"><circle class="cls-1" cx="233.22" cy="215.1" r="206.12"/><g class="cls-3"><path class="cls-2" d="m315.82,260.59h0c0,19.14-16.36,34.86-36.28,34.86h-89.32c-19.98,0-36.28-15.72-36.28-34.86v-86.69c0-19.21,16.29-34.86,36.28-34.86h89.32c19.92,0,36.28,15.65,36.28,34.86v86.69h0Zm-22.76-148.12h-118.34c-26.45,0-48.09,21.37-48.09,47.48v118.07c0,26.11,21.64,47.48,48.09,47.48h118.34c26.44,0,48.09-21.37,48.09-47.48v-118.07c0-26.11-21.64-47.48-48.09-47.48h0Z"/><path class="cls-2" d="m234.88,249.69h0c-17.54,0-31.8-13.76-31.8-30.66s14.27-30.66,31.8-30.66,31.8,13.76,31.8,30.66-14.27,30.66-31.8,30.66h0Zm-.04-83.21c-30.03,0-54.46,23.63-54.46,52.58s24.43,52.51,54.46,52.51,54.54-23.56,54.54-52.51-24.51-52.58-54.54-52.58h0Z"/><path class="cls-2" d="m286.45,178.63c7.69,0,13.88-5.97,13.88-13.29s-6.19-13.38-13.88-13.38-13.79,5.97-13.79,13.38,6.19,13.29,13.79,13.29h0Z"/></g></g></svg>