<?xml version="1.0" encoding="UTF-8"?><svg id="Layer_2" xmlns="http://www.w3.org/2000/svg" xmlns:xlink="http://www.w3.org/1999/xlink" viewBox="0 0 219.32 219.32"><defs><style>.cls-1{filter:url(#drop-shadow-1);}.cls-2{fill:#fff;}.cls-2,.cls-3{stroke-width:0px;}.cls-3{fill:#025959;}</style><filter id="drop-shadow-1" filterUnits="userSpaceOnUse"><feOffset dx="-7" dy="7"/><feGaussianBlur result="blur" stdDeviation="5"/><feFlood flood-color="#000" flood-opacity=".63"/><feComposite in2="blur" operator="in"/><feComposite in="SourceGraphic"/></filter></defs><g id="ELEMENTS"><g class="cls-1"><circle class="cls-3" cx="109.66" cy="109.66" r="109.66"/></g><path class="cls-2" d="m115.77,129.36c0,3.34-.67,6.27-2,8.79-1.34,2.52-3.17,4.64-5.51,6.34-2.34,1.71-5.05,3.01-8.12,3.89-3.08.89-6.36,1.34-9.85,1.34h-38.18v-79.02h42.29c2.74,0,5.23.59,7.46,1.78,2.23,1.19,4.12,2.73,5.68,4.62,1.56,1.89,2.76,4.05,3.62,6.46.85,2.41,1.28,4.84,1.28,7.29,0,3.86-.97,7.48-2.89,10.85-1.93,3.38-4.75,5.88-8.46,7.51,4.53,1.33,8.11,3.73,10.74,7.18,2.63,3.45,3.95,7.77,3.95,12.97Zm-48.3-45.52v19.92h20.48c2.6,0,4.8-.89,6.62-2.67,1.82-1.78,2.73-4.23,2.73-7.34s-.83-5.45-2.51-7.23c-1.67-1.78-3.73-2.67-6.18-2.67h-21.15Zm32.83,42.63c0-1.41-.24-2.76-.72-4.06-.48-1.3-1.13-2.43-1.95-3.39-.82-.96-1.78-1.73-2.89-2.28-1.11-.56-2.34-.83-3.67-.83h-23.59v20.81h22.82c1.41,0,2.73-.26,3.95-.78,1.22-.52,2.28-1.24,3.17-2.17.89-.93,1.59-2.02,2.11-3.28.52-1.26.78-2.6.78-4.01Z"/><path class="cls-2" d="m149.03,149.73c-4.53,0-8.63-.77-12.29-2.32-7.26-3.09-12.39-8.29-15.37-15.58-1.4-3.52-2.1-7.22-2.1-11.11s.68-7.82,2.05-11.38c2.93-7.39,8.05-12.65,15.37-15.8,3.7-1.58,7.85-2.37,12.46-2.37s8.72.79,12.35,2.37c11.93,5.2,17.56,16.77,17.04,29.33-.04.86-.13,1.58-.27,2.16h-43.68c.22,2.23.76,4.21,1.62,5.93.86,1.73,1.98,3.2,3.34,4.42,1.36,1.22,2.91,2.16,4.64,2.8,1.72.65,3.52.97,5.39.97,2.87,0,5.59-.7,8.14-2.1,2.55-1.4,4.3-3.25,5.23-5.55l12.4,3.45c-2.09,4.31-5.41,7.86-9.97,10.62-4.57,2.77-10.01,4.15-16.34,4.15Zm14.67-34.08c-.36-4.24-1.92-7.64-4.69-10.19-2.77-2.55-6.13-3.83-10.08-3.83-1.94,0-3.76.34-5.45,1.02-1.69.68-3.18,1.64-4.48,2.86-1.29,1.22-2.36,2.7-3.18,4.42-.83,1.72-1.31,3.63-1.45,5.71h29.33Z"/><path class="cls-2" d="m130.02,74.46h37.81v9.38h-37.81v-9.38Z"/></g></svg>