<?xml version="1.0" encoding="UTF-8"?><svg id="Layer_2" xmlns="http://www.w3.org/2000/svg" xmlns:xlink="http://www.w3.org/1999/xlink" viewBox="0 0 443 444"><defs><style>.cls-1{fill:#025959;filter:url(#drop-shadow-1);}.cls-1,.cls-2{stroke-width:0px;}.cls-2{fill:#f2f2f2;fill-rule:evenodd;}.cls-3{filter:url(#drop-shadow-2);}</style><filter id="drop-shadow-1" filterUnits="userSpaceOnUse"><feOffset dx="-12" dy="7"/><feGaussianBlur result="blur" stdDeviation="5"/><feFlood flood-color="#000" flood-opacity=".75"/><feComposite in2="blur" operator="in"/><feComposite in="SourceGraphic"/></filter><filter id="drop-shadow-2" filterUnits="userSpaceOnUse"><feOffset dx="-12" dy="7"/><feGaussianBlur result="blur-2" stdDeviation="5"/><feFlood flood-color="#000" flood-opacity=".75"/><feComposite in2="blur-2" operator="in"/><feComposite in="SourceGraphic"/></filter></defs><g id="Layer_1-2"><circle class="cls-1" cx="233.22" cy="215.1" r="206.12"/><g class="cls-3"><path class="cls-2" d="m320.8,267.08h0c0,21.22-18.08,38.65-40.09,38.65h-98.71c-22.08,0-40.09-17.43-40.09-38.65v-96.12c0-21.3,18-38.65,40.09-38.65h98.71c22.01,0,40.09,17.36,40.09,38.65v96.12h0Zm-28.89-154.61h-121.18c-27.08,0-49.24,21.37-49.24,47.48v118.07c0,26.11,22.16,47.48,49.24,47.48h121.18c27.08,0,49.24-21.37,49.24-47.48v-118.07c0-26.11-22.16-47.48-49.24-47.48h0Z"/><path class="cls-2" d="m231.32,253.81h0c-19.9,0-36.08-15.61-36.08-34.79s16.18-34.79,36.08-34.79,36.08,15.61,36.08,34.79-16.19,34.79-36.08,34.79h0Zm0-87.37c-30.03,0-54.46,23.63-54.46,52.58s24.43,52.51,54.46,52.51,54.54-23.56,54.54-52.51-24.51-52.58-54.54-52.58h0Z"/><path class="cls-2" d="m296.93,177.14c6.2,0,11.19-4.81,11.19-10.72s-4.99-10.79-11.19-10.79-11.12,4.81-11.12,10.79,4.99,10.72,11.12,10.72h0Z"/></g></g></svg>