<?xml version="1.0" encoding="UTF-8"?><svg id="Layer_2" xmlns="http://www.w3.org/2000/svg" viewBox="0 0 6.11 5.88"><defs><style>.cls-1{stroke-width:.08px;}.cls-1,.cls-2{fill:#a65151;stroke:#020000;stroke-miterlimit:10;}.cls-2{stroke-width:.2px;}.cls-3{fill-rule:evenodd;}</style></defs><g id="Layer_1-2"><path class="cls-3" d="m5.6,3.15c.3.19.51.53.51.91s-.2.72-.51.91v-1.83h0Z"/><path class="cls-3" d="m.51,3.15c-.3.19-.51.53-.51.91s.2.72.51.91v-1.83h0Z"/><path d="m5.6,3.83v-1.09c0-.7-.29-1.34-.75-1.8S3.75.19,3.05.19s-1.34.29-1.8.75c-.46.46-.75,1.1-.75,1.8v1.09h-.19v-1.09c0-.75.31-1.44.8-1.94.5-.5,1.18-.8,1.94-.8s1.44.31,1.94.8c.5.5.8,1.18.8,1.94v1.09h-.19Z"/><path class="cls-1" d="m5.15,1.28c-.09.02-.18,0-.24-.08-.23-.27-.51-.5-.83-.65-.31-.15-.66-.23-1.02-.23s-.71.08-1.02.23c-.32.15-.61.37-.83.65-.06.07-.16.1-.24.08.09-.13.19-.24.29-.35.46-.46,1.1-.75,1.8-.75s1.34.29,1.8.75c.11.11.21.23.29.35h0Z"/><rect class="cls-2" x=".59" y="2.68" width=".94" height="2.88" rx=".47" ry=".47"/><rect class="cls-2" x="4.59" y="2.89" width=".94" height="2.88" rx=".47" ry=".47"/></g></svg>