<?xml version="1.0" encoding="UTF-8"?><svg id="Layer_2" xmlns="http://www.w3.org/2000/svg" viewBox="0 0 30.75 30.75"><defs><style>.cls-1{font-family:AXIS-ExtraBold, AXIS;font-size:6.18px;font-weight:700;letter-spacing:-.01em;}.cls-1,.cls-2{fill:#fff;stroke:#8c5153;stroke-width:.25px;}.cls-1,.cls-2,.cls-3{stroke-miterlimit:10;}.cls-3{fill:#a65252;stroke:#804b4f;stroke-width:.75px;}.cls-4{fill:#8c5153;stroke-width:0px;}</style></defs><g id="Layer_1-2"><path class="cls-3" d="m5.69.38h19.38c2.94,0,5.31,2.44,5.31,5.45v19.1c0,3.01-2.38,5.45-5.31,5.45H5.69c-2.94,0-5.31-2.44-5.31-5.45V5.82C.38,2.81,2.75.38,5.69.38Z"/><text class="cls-1" transform="translate(8.47 7.53)"><tspan x="0" y="0">css</tspan></text><path class="cls-4" d="m15.68,27.4l6.36-1.68,1.5-15.99h-7.85v17.67Z"/><path class="cls-2" d="m6.57,8.48c0,.13.34,4.07.76,8.74.41,4.66.77,8.62.78,8.79l.03.3,3.62,1,3.61,1,.72-.2c.39-.11,2.01-.55,3.6-.99,2.47-.68,2.89-.82,2.92-.97.04-.21,1.56-17.43,1.56-17.72v-.2H6.57v.24Zm14.36,3.8c-.04.21-.27,2.75-.52,5.66-.26,2.89-.47,5.29-.49,5.31-.04.04-4.42,1.26-4.55,1.26-.09,0-2.48-.65-4.12-1.12l-.46-.13-.11-1.18c-.05-.65-.13-1.44-.16-1.75l-.05-.55h1.12c1.26,0,1.22-.02,1.23.76,0,.2.03.5.05.68l.05.32,1.22.32,1.22.32,1.21-.32c.66-.18,1.22-.33,1.22-.33,0,0,.06-.54.12-1.17.05-.64.12-1.27.14-1.41l.04-.24h-7.67l-.04-.21c-.03-.11-.08-.63-.12-1.16l-.06-.96h8.05l.05-.61c.04-.33.09-.84.12-1.13.04-.37.03-.51-.04-.46-.05.03-1.96.03-4.24,0l-4.15-.05-.05-.63c-.04-.35-.08-.85-.11-1.11l-.05-.46h11.2l-.04.38Z"/></g></svg>