<?xml version="1.0" encoding="UTF-8"?><svg id="Layer_2" xmlns="http://www.w3.org/2000/svg" viewBox="0 0 6.23 9.22"><defs><style>.cls-1{fill:#ea593b;}.cls-2{fill:#6cc1f2;}.cls-3{fill:#f37d71;}.cls-4{fill:#71e097;}.cls-5{fill:#8759f6;}</style></defs><g id="Layer_1-2"><rect class="cls-3" x="1.24" y="1.52" width=".06" height=".06"/><path class="cls-1" d="m6.23,1.58c0,.42-.19.98-.68,1.26-.53.3-1.41.3-2.25.31-1.36,0-2.02,0-2.42-.2C.32,2.66.1,2.02.1,1.51c0-.46.13-.88.68-1.22C1.23.02,2.05.01,3.3.01c.73,0,1.38-.09,2.03.22.62.29.89.87.89,1.35Z"/><ellipse class="cls-5" cx="4.6" cy="4.62" rx="1.54" ry="1.52"/><path class="cls-4" d="m3.07,7.69c0,.85-.69,1.53-1.53,1.53s-1.53-.69-1.53-1.53.65-1.47,1.49-1.47c.4,0,.8.09,1.07.34.31.28.5.69.5,1.14Z"/><polygon class="cls-4" points="1.49 7.62 3.06 7.87 3.07 6.21 1.49 6.21 1.49 7.62"/><path class="cls-2" d="m3.07,3.12c-1.13,0-1.9.02-2.32.28-.56.34-.68.76-.68,1.22,0,.51.23,1.15.79,1.44.37.19.99.21,2.21.2v-3.14Z"/><path class="cls-3" d="m3.1.01c-1.13,0-1.9.02-2.32.28C.22.64.1,1.05.1,1.51c0,.51.23,1.15.79,1.44.37.19.99.21,2.21.2V.01Z"/></g></svg>