<?xml version="1.0" encoding="UTF-8"?><svg id="Layer_2" xmlns="http://www.w3.org/2000/svg" xmlns:xlink="http://www.w3.org/1999/xlink" viewBox="0 0 219.32 219.32"><defs><style>.cls-1{filter:url(#drop-shadow-1);}.cls-2{fill:#fff;}.cls-2,.cls-3{stroke-width:0px;}.cls-3{fill:#025959;}</style><filter id="drop-shadow-1" filterUnits="userSpaceOnUse"><feOffset dx="-7" dy="7"/><feGaussianBlur result="blur" stdDeviation="5"/><feFlood flood-color="#000" flood-opacity=".63"/><feComposite in2="blur" operator="in"/><feComposite in="SourceGraphic"/></filter></defs><g id="ELEMENTS"><g class="cls-1"><circle class="cls-3" cx="109.66" cy="109.66" r="109.66"/><path class="cls-2" d="m143.7,68.33c-4.16,0-7.54,3.37-7.54,7.54s3.37,7.54,7.54,7.54,7.54-3.37,7.54-7.54-3.37-7.54-7.54-7.54Z"/><path class="cls-2" d="m110.19,78c-17.46,0-31.66,14.2-31.66,31.66s14.2,31.66,31.66,31.66,31.66-14.2,31.66-31.66-14.2-31.66-31.66-31.66Zm0,51.95c-11.18,0-20.28-9.1-20.28-20.28s9.1-20.28,20.28-20.28,20.28,9.1,20.28,20.28-9.1,20.28-20.28,20.28Z"/><path class="cls-2" d="m135.33,173.95h-51.33c-21.3,0-38.62-17.32-38.62-38.62v-51.34c0-21.3,17.32-38.62,38.62-38.62h51.33c21.3,0,38.62,17.32,38.62,38.62v51.34c0,21.3-17.33,38.62-38.62,38.62Zm-51.33-116.48c-14.63,0-26.52,11.9-26.52,26.52v51.34c0,14.63,11.9,26.52,26.52,26.52h51.33c14.63,0,26.53-11.9,26.53-26.52v-51.34c0-14.63-11.9-26.52-26.53-26.52h-51.33Z"/></g></g></svg>