<?xml version="1.0" encoding="UTF-8"?><svg id="Layer_2" xmlns="http://www.w3.org/2000/svg" viewBox="0 0 10.84 10.84"><defs><style>.cls-1,.cls-2,.cls-3{stroke-width:0px;}.cls-1,.cls-4{fill:#a65252;}.cls-2{fill:#ededed;}.cls-5{fill:#fff;stroke:#8c5153;stroke-width:.25px;}.cls-5,.cls-4{stroke-miterlimit:10;}.cls-4{stroke:#804b4f;stroke-width:.75px;}.cls-3{fill:#8c5153;}</style></defs><g id="Layer_1-2"><path class="cls-4" d="m2.16.38h6.51c.99,0,1.79.82,1.79,1.83v6.42c0,1.01-.8,1.83-1.79,1.83H2.16c-.99,0-1.79-.82-1.79-1.83V2.21C.38,1.19,1.17.38,2.16.38Z"/><path class="cls-5" d="m2.9,9.1l-.56-6.29h6.16l-.56,6.29-2.52.7-2.52-.7Z"/><path class="cls-2" d="m5.42,9.27l2.14-.57.5-5.37h-2.64v5.94Z"/><path class="cls-1" d="m5.42,5.66h-1.02l-.07-.79h1.09v-.77h-1.93l.02.21.19,2.13h1.73v-.77Zm0,2h0s-.86-.23-.86-.23l-.05-.62h-.77l.11,1.21,1.58.44h0s0-.8,0-.8Z"/><path class="cls-5" d="m2.91,1.1h.39v.39h.36v-.39h.39v1.17h-.39v-.39h-.36v.39h-.39v-1.17h0Zm1.66.39h-.35v-.39h1.08v.39h-.35v.78h-.39v-.78Zm.91-.39h.41l.25.41.25-.41h.41v1.17h-.39v-.58l-.27.42h0l-.27-.42v.58h-.38v-1.17h0Zm1.52,0h.39v.79h.55v.39h-.94v-1.17Z"/><path class="cls-3" d="m5.42,5.66v.77h.95l-.09,1-.86.23v.8l1.58-.44v-.13s.19-2.03.19-2.03l.02-.21h-1.79Zm0-1.56v.77h1.86l.02-.17.04-.39.02-.21h-1.93Z"/></g></svg>