<?xml version="1.0" encoding="UTF-8"?><svg id="Layer_2" xmlns="http://www.w3.org/2000/svg" viewBox="0 0 7.53 4.14"><defs><style>.cls-1{fill:#a65151;font-family:MyriadConceptRoman-Semibold, 'Myriad Variable Concept';font-size:.34px;font-variation-settings:'wght' 600, 'wdth' 100;font-weight:600;letter-spacing:.01em;}.cls-2{fill:none;stroke:#fff;stroke-miterlimit:10;stroke-width:.1px;}</style></defs><g id="Layer_1-2"><text class="cls-1" transform="translate(.49 1.73) rotate(-2.06) scale(.85 1) skewX(-.65)"><tspan x="0" y="0">Dw</tspan></text><path d="m7.36,1.18l-.03,1.92c0,.06-.02.1-.03.11h-.45s-.02-.05-.03-.09l.03-1.98s.02-.08.03-.08h.45s.03.06.03.12h0Zm-.73,2.36h-.45s-.02-.05-.03-.09l.04-2.66s.02-.08.03-.08h.45s.03.06.03.12v.3s0,.02,0,.04l-.03,1.92s0,.03,0,.04v.3c0,.06-.02.1-.03.11h0Zm-.65.3c0,.06-.02.1-.03.11h-.45s-.03-.06-.03-.12l.05-3.44c0-.06.02-.1.03-.11h.45s.03.06.03.12v.38s0,.02,0,.04l-.03,2.6s0,.02,0,.04v.39h0Zm-3.79-1.96l3.15.06v.34s-3.15-.06-3.15-.06v-.34h0Zm-.19,1.89c0,.06-.02.1-.03.11h-.45s-.03-.06-.03-.12v-.39s0-.02,0-.04l.03-2.6s0-.03,0-.04v-.38c0-.06.03-.1.03-.11h.45s.03.06.03.12l-.05,3.44h0Zm-.69-.32h-.45s-.03-.06-.03-.12v-.3s0-.02,0-.04l.03-1.92s0-.03,0-.04v-.3c0-.06.03-.1.03-.11h.45s.02.05.03.09l-.04,2.66s-.02.08-.03.08h0Zm-.67-.35H.19s-.03-.06-.03-.12l.03-1.92c0-.06.02-.1.03-.11h.45s.02.05.03.09l-.03,1.98s-.02.08-.03.08h0ZM7.34.87h-.46s-.01,0-.02,0v-.03c0-.18-.08-.31-.19-.31h-.46s-.01,0-.02,0v-.11c0-.07-.01-.14-.04-.2-.03-.07-.09-.11-.15-.11h-.46c-.06,0-.11.03-.15.1-.03.05-.04.12-.05.2l-.02,1.36-3.15-.06.02-1.36c0-.07-.01-.14-.04-.2-.03-.07-.09-.11-.15-.11h-.46c-.11-.01-.19.12-.19.3v.11s-.02,0-.02,0h-.46c-.11-.01-.19.12-.19.3v.03s-.01,0-.02,0H.22c-.06,0-.11.03-.15.1-.03.05-.04.12-.05.2L0,2.96c0,.18.08.31.19.31h.46s.01,0,.02,0v.03c0,.07.01.14.04.2.03.07.09.11.15.11h.46s.01,0,.02,0v.11c0,.07.01.14.04.2.03.07.09.11.15.11h.46s.08-.01.11-.05c.05-.05.08-.14.08-.25l.02-1.36,3.15.06-.02,1.36c0,.07.01.14.04.2.03.07.09.11.15.11h.46s.08-.01.11-.05c.01-.01.02-.03.03-.05.03-.05.04-.12.05-.2v-.11s.02,0,.02,0h.46s.08-.01.11-.05c.01-.01.02-.03.03-.05.03-.05.04-.12.05-.2v-.03s.01,0,.02,0h.46s.08-.01.11-.05c.05-.05.08-.14.08-.25l.03-1.92c0-.07-.01-.14-.04-.2-.03-.07-.09-.11-.15-.11h0Z"/><path d="m7.34,1.06s.03.05.03.11l-.03,1.92c0,.06-.02.1-.03.11h-.45s-.02-.05-.03-.09l.03-1.98s.02-.08.03-.08h.45Z"/><path d="m6.67.71s.03.05.03.11v.3s0,.02,0,.04l-.03,1.92s0,.03,0,.04v.3c0,.06-.02.1-.03.11h-.45s-.02-.05-.03-.09l.04-2.66s.02-.08.03-.08h.45Z"/><path d="m6.01.28s.03.05.03.11v.38s0,.02,0,.04l-.03,2.6s0,.02,0,.04v.39c0,.06-.03.1-.04.11h-.45s-.03-.06-.03-.12l.05-3.44c0-.06.02-.1.03-.11h.45Z"/><polygon points="5.34 1.93 5.34 2.27 2.19 2.21 2.19 1.87 5.34 1.93 5.34 1.93"/><path d="m2.02.2s.03.05.03.11l-.05,3.44c0,.06-.02.1-.03.11h-.45s-.03-.06-.03-.12v-.39s0-.02,0-.04l.04-2.6s0-.03,0-.04v-.38c0-.06.03-.1.03-.11h.45Z"/><path d="m1.34.61s.02.04.03.08l-.04,2.66s-.02.08-.03.08h-.45s-.03-.06-.03-.12v-.3s0-.02,0-.04l.03-1.92s0-.03,0-.04v-.3c0-.06.03-.1.03-.11h.45Z"/><path d="m.67.94s.02.04.03.09l-.03,1.98s-.02.08-.03.08H.19s-.03-.06-.03-.12l.03-1.92c0-.06.02-.1.03-.11h.45Z"/><line class="cls-2" x1=".69" y1="1.13" x2=".67" y2="2.8"/><line class="cls-2" x1="1.35" y1=".81" x2="1.33" y2="3.11"/><line class="cls-2" x1="6.23" y1=".88" x2="6.21" y2="3.19"/><line class="cls-2" x1="6.93" y1="1.24" x2="6.92" y2="2.91"/></g></svg>