<?xml version="1.0" encoding="UTF-8"?><svg id="Layer_2" xmlns="http://www.w3.org/2000/svg" viewBox="0 0 1641 1043.75"><defs><style>.cls-1,.cls-2{stroke-width:0px;}.cls-2{fill:#fff;}</style></defs><g id="Layer_1-2"><rect class="cls-2" width="1641" height="872.56" rx="12" ry="12"/><path class="cls-1" d="m403.52,111.4h43.29v8.71h-32.92v26.71h30.41v8.59h-30.41v36.37h-10.37v-80.38Z"/><path class="cls-1" d="m509.79,162.45c0,21.35-14.79,30.65-28.74,30.65-15.62,0-27.67-11.45-27.67-29.7,0-19.32,12.64-30.65,28.62-30.65s27.79,12.05,27.79,29.7Zm-45.8.6c0,12.64,7.27,22.18,17.53,22.18s17.53-9.42,17.53-22.42c0-9.78-4.89-22.18-17.29-22.18s-17.77,11.45-17.77,22.42Z"/><path class="cls-1" d="m523.03,149.69c0-5.96-.12-10.85-.48-15.62h9.3l.6,9.54h.24c2.86-5.49,9.54-10.85,19.08-10.85,7.99,0,20.39,4.77,20.39,24.57v34.47h-10.5v-33.27c0-9.3-3.46-17.05-13.36-17.05-6.92,0-12.28,4.89-14.07,10.73-.48,1.31-.72,3.1-.72,4.89v34.7h-10.49v-42.1Z"/><path class="cls-1" d="m601.39,117.49v16.58h15.03v7.99h-15.03v31.13c0,7.16,2.03,11.21,7.87,11.21,2.74,0,4.77-.36,6.08-.72l.48,7.87c-2.03.83-5.25,1.43-9.3,1.43-4.89,0-8.83-1.55-11.33-4.41-2.98-3.1-4.05-8.23-4.05-15.03v-31.48h-8.94v-7.99h8.94v-13.83l10.26-2.74Z"/><path class="cls-1" d="m626.79,181.05c3.1,2.03,8.59,4.17,13.83,4.17,7.63,0,11.21-3.82,11.21-8.59,0-5.01-2.98-7.75-10.73-10.61-10.38-3.7-15.27-9.42-15.27-16.34,0-9.3,7.51-16.94,19.92-16.94,5.84,0,10.97,1.67,14.19,3.58l-2.62,7.63c-2.27-1.43-6.44-3.34-11.81-3.34-6.2,0-9.66,3.58-9.66,7.87,0,4.77,3.46,6.92,10.97,9.78,10.02,3.82,15.15,8.83,15.15,17.41,0,10.14-7.87,17.29-21.59,17.29-6.32,0-12.16-1.55-16.22-3.94l2.62-7.99Z"/><path class="cls-1" d="m757.27,189.16c-3.82,1.91-11.45,3.82-21.23,3.82-22.66,0-39.71-14.31-39.71-40.67s17.05-42.22,41.98-42.22c10.02,0,16.34,2.15,19.08,3.58l-2.5,8.47c-3.94-1.91-9.54-3.34-16.22-3.34-18.84,0-31.37,12.05-31.37,33.15,0,19.68,11.33,32.32,30.89,32.32,6.32,0,12.76-1.31,16.94-3.34l2.15,8.23Z"/><path class="cls-1" d="m820.84,162.45c0,21.35-14.79,30.65-28.74,30.65-15.62,0-27.67-11.45-27.67-29.7,0-19.32,12.64-30.65,28.62-30.65s27.79,12.05,27.79,29.7Zm-45.8.6c0,12.64,7.28,22.18,17.53,22.18s17.53-9.42,17.53-22.42c0-9.78-4.89-22.18-17.29-22.18s-17.77,11.45-17.77,22.42Z"/><path class="cls-1" d="m834.08,149.69c0-5.96-.12-10.85-.48-15.62h9.3l.6,9.54h.24c2.86-5.49,9.54-10.85,19.08-10.85,7.99,0,20.39,4.77,20.39,24.57v34.47h-10.5v-33.27c0-9.3-3.46-17.05-13.36-17.05-6.92,0-12.28,4.89-14.07,10.73-.48,1.31-.72,3.1-.72,4.89v34.7h-10.49v-42.1Z"/><path class="cls-1" d="m898.84,181.05c3.1,2.03,8.59,4.17,13.83,4.17,7.63,0,11.21-3.82,11.21-8.59,0-5.01-2.98-7.75-10.73-10.61-10.38-3.7-15.27-9.42-15.27-16.34,0-9.3,7.51-16.94,19.92-16.94,5.84,0,10.97,1.67,14.19,3.58l-2.62,7.63c-2.27-1.43-6.44-3.34-11.81-3.34-6.2,0-9.66,3.58-9.66,7.87,0,4.77,3.46,6.92,10.97,9.78,10.02,3.82,15.15,8.83,15.15,17.41,0,10.14-7.87,17.29-21.59,17.29-6.32,0-12.17-1.55-16.22-3.94l2.62-7.99Z"/><path class="cls-1" d="m959.19,117.85c.12,3.58-2.5,6.44-6.68,6.44-3.7,0-6.32-2.86-6.32-6.44s2.74-6.56,6.56-6.56,6.44,2.86,6.44,6.56Zm-11.69,73.94v-57.72h10.5v57.72h-10.5Z"/><path class="cls-1" d="m1025.26,107.11v69.77c0,5.13.12,10.97.48,14.91h-9.42l-.48-10.02h-.24c-3.22,6.44-10.26,11.33-19.68,11.33-13.95,0-24.69-11.81-24.69-29.34-.12-19.2,11.81-31.01,25.88-31.01,8.83,0,14.79,4.17,17.41,8.83h.24v-34.47h10.49Zm-10.49,50.45c0-1.31-.12-3.1-.48-4.41-1.55-6.68-7.27-12.16-15.15-12.16-10.85,0-17.29,9.54-17.29,22.3,0,11.69,5.72,21.35,17.05,21.35,7.04,0,13.48-4.65,15.38-12.52.36-1.43.48-2.86.48-4.53v-10.02Z"/><path class="cls-1" d="m1048.52,164.83c.24,14.19,9.3,20.04,19.8,20.04,7.51,0,12.05-1.31,15.98-2.98l1.79,7.51c-3.7,1.67-10.02,3.58-19.2,3.58-17.77,0-28.38-11.69-28.38-29.1s10.26-31.13,27.07-31.13c18.84,0,23.85,16.58,23.85,27.19,0,2.15-.24,3.82-.36,4.89h-40.55Zm30.77-7.51c.12-6.68-2.74-17.05-14.55-17.05-10.61,0-15.27,9.78-16.1,17.05h30.65Z"/><path class="cls-1" d="m1102.43,152.07c0-6.8-.12-12.64-.48-18.01h9.18l.36,11.33h.48c2.62-7.75,8.94-12.64,15.98-12.64,1.19,0,2.03.12,2.98.36v9.9c-1.07-.24-2.15-.36-3.58-.36-7.39,0-12.64,5.6-14.07,13.48-.24,1.43-.48,3.1-.48,4.89v30.77h-10.38v-39.71Z"/><path class="cls-1" d="m1146.08,164.83c.24,14.19,9.3,20.04,19.8,20.04,7.51,0,12.05-1.31,15.98-2.98l1.79,7.51c-3.7,1.67-10.02,3.58-19.2,3.58-17.77,0-28.38-11.69-28.38-29.1s10.26-31.13,27.07-31.13c18.84,0,23.85,16.58,23.85,27.19,0,2.15-.24,3.82-.36,4.89h-40.55Zm30.77-7.51c.12-6.68-2.74-17.05-14.55-17.05-10.61,0-15.27,9.78-16.1,17.05h30.65Z"/><path class="cls-1" d="m1249.84,107.11v69.77c0,5.13.12,10.97.48,14.91h-9.42l-.48-10.02h-.24c-3.22,6.44-10.26,11.33-19.68,11.33-13.95,0-24.69-11.81-24.69-29.34-.12-19.2,11.81-31.01,25.88-31.01,8.83,0,14.79,4.17,17.41,8.83h.24v-34.47h10.49Zm-10.49,50.45c0-1.31-.12-3.1-.48-4.41-1.55-6.68-7.27-12.16-15.15-12.16-10.85,0-17.29,9.54-17.29,22.3,0,11.69,5.72,21.35,17.05,21.35,7.04,0,13.48-4.65,15.38-12.52.36-1.43.48-2.86.48-4.53v-10.02Z"/><path class="cls-1" d="m611.28,331.47v-7.97h44.59v7.97h-18.14v73.41h-8.3v-73.41h-18.14Z"/><path class="cls-1" d="m666.33,321.46h7.74v34.02c3.13-4.13,6.58-7.22,10.34-9.27s7.84-3.07,12.23-3.07,8.49,1.14,11.98,3.43c3.48,2.29,6.06,5.36,7.72,9.21,1.66,3.85,2.49,9.89,2.49,18.12v30.98h-7.75v-28.71c0-6.93-.28-11.56-.83-13.89-.96-3.98-2.7-6.98-5.23-8.99-2.53-2.01-5.84-3.02-9.93-3.02-4.68,0-8.88,1.55-12.59,4.65-3.71,3.1-6.15,6.93-7.33,11.51-.74,2.95-1.11,8.41-1.11,16.37v22.07h-7.74v-83.42Z"/><path class="cls-1" d="m732.49,344.69h7.91v8.8c2.36-3.47,4.85-6.06,7.47-7.77,2.62-1.71,5.35-2.57,8.19-2.57,2.14,0,4.43.68,6.86,2.05l-4.04,6.53c-1.62-.7-2.99-1.05-4.09-1.05-2.58,0-5.07,1.06-7.47,3.18-2.4,2.12-4.22,5.41-5.48,9.87-.96,3.43-1.44,10.36-1.44,20.8v20.36h-7.91v-60.19Z"/><path class="cls-1" d="m820.17,384.91l6.53,3.43c-2.14,4.2-4.61,7.6-7.42,10.18-2.81,2.58-5.96,4.55-9.47,5.89-3.51,1.35-7.48,2.02-11.9,2.02-9.82,0-17.5-3.22-23.03-9.65s-8.31-13.71-8.31-21.82c0-7.63,2.34-14.44,7.03-20.41,5.94-7.6,13.9-11.4,23.86-11.4s18.46,3.89,24.58,11.67c4.36,5.5,6.57,12.36,6.64,20.58h-54.16c.15,6.99,2.38,12.72,6.7,17.19,4.32,4.47,9.66,6.71,16.01,6.71,3.06,0,6.05-.53,8.94-1.6,2.9-1.06,5.36-2.48,7.39-4.24,2.03-1.76,4.23-4.61,6.59-8.54Zm0-16.21c-1.03-4.13-2.54-7.43-4.51-9.9-1.98-2.47-4.59-4.46-7.84-5.97-3.25-1.51-6.67-2.27-10.25-2.27-5.91,0-10.99,1.9-15.23,5.7-3.1,2.77-5.45,6.92-7.03,12.45h44.86Z"/><path class="cls-1" d="m903.09,344.69v60.19h-7.63v-10.34c-3.25,3.95-6.89,6.91-10.93,8.91-4.04,1.99-8.46,2.99-13.25,2.99-8.52,0-15.79-3.09-21.82-9.27-6.03-6.18-9.04-13.69-9.04-22.54s3.04-16.08,9.13-22.24c6.08-6.16,13.41-9.24,21.96-9.24,4.94,0,9.41,1.05,13.41,3.15,4,2.1,7.51,5.26,10.54,9.46v-11.06h7.63Zm-30.95,5.92c-4.31,0-8.29,1.06-11.94,3.18-3.65,2.12-6.55,5.09-8.7,8.92-2.15,3.83-3.23,7.88-3.23,12.16s1.09,8.29,3.26,12.16c2.17,3.87,5.09,6.88,8.76,9.03,3.67,2.16,7.6,3.23,11.8,3.23s8.25-1.07,12.05-3.21c3.79-2.14,6.71-5.03,8.76-8.67,2.04-3.65,3.07-7.75,3.07-12.32,0-6.96-2.29-12.78-6.88-17.46-4.59-4.68-10.23-7.02-16.94-7.02Z"/><path class="cls-1" d="m980.59,321.46v83.42h-7.63v-10.34c-3.25,3.95-6.89,6.91-10.93,8.91-4.04,1.99-8.46,2.99-13.25,2.99-8.52,0-15.79-3.09-21.82-9.27-6.03-6.18-9.04-13.69-9.04-22.54s3.04-16.08,9.13-22.24c6.09-6.16,13.41-9.24,21.96-9.24,4.94,0,9.41,1.05,13.42,3.15,4,2.1,7.51,5.26,10.54,9.46v-34.3h7.63Zm-30.95,29.15c-4.31,0-8.29,1.06-11.94,3.18-3.65,2.12-6.55,5.09-8.7,8.92-2.16,3.83-3.23,7.88-3.23,12.16s1.09,8.29,3.26,12.16c2.17,3.87,5.09,6.88,8.76,9.03s7.6,3.23,11.8,3.23,8.25-1.07,12.05-3.21c3.79-2.14,6.71-5.03,8.76-8.67,2.04-3.65,3.07-7.75,3.07-12.32,0-6.96-2.29-12.78-6.88-17.46-4.59-4.68-10.23-7.02-16.94-7.02Z"/><path class="cls-1" d="m999.4,323.51h8.13v73.52h31.31v7.86h-39.44v-81.37Z"/><path class="cls-1" d="m1110.43,344.69v60.19h-7.63v-10.34c-3.25,3.95-6.89,6.91-10.93,8.91-4.04,1.99-8.46,2.99-13.25,2.99-8.52,0-15.79-3.09-21.82-9.27-6.03-6.18-9.04-13.69-9.04-22.54s3.04-16.08,9.13-22.24c6.08-6.16,13.41-9.24,21.96-9.24,4.94,0,9.41,1.05,13.41,3.15,4,2.1,7.51,5.26,10.54,9.46v-11.06h7.63Zm-30.95,5.92c-4.31,0-8.29,1.06-11.94,3.18-3.65,2.12-6.55,5.09-8.7,8.92-2.15,3.83-3.23,7.88-3.23,12.16s1.09,8.29,3.26,12.16c2.17,3.87,5.09,6.88,8.76,9.03,3.67,2.16,7.6,3.23,11.8,3.23s8.25-1.07,12.05-3.21c3.79-2.14,6.71-5.03,8.76-8.67,2.04-3.65,3.07-7.75,3.07-12.32,0-6.96-2.29-12.78-6.88-17.46-4.59-4.68-10.23-7.02-16.94-7.02Z"/><path class="cls-1" d="m1130.54,319.91c1.76,0,3.27.63,4.52,1.88,1.25,1.25,1.87,2.77,1.87,4.54s-.62,3.23-1.87,4.48c-1.25,1.25-2.75,1.88-4.52,1.88s-3.21-.63-4.46-1.88c-1.25-1.25-1.87-2.75-1.87-4.48s.62-3.28,1.87-4.54c1.25-1.25,2.74-1.88,4.46-1.88Zm-3.84,24.78h7.74v60.19h-7.74v-60.19Z"/><path class="cls-1" d="m1147.6,344.69h7.91v8.8c2.36-3.47,4.85-6.06,7.47-7.77,2.62-1.71,5.35-2.57,8.19-2.57,2.14,0,4.43.68,6.86,2.05l-4.04,6.53c-1.62-.7-2.99-1.05-4.09-1.05-2.58,0-5.07,1.06-7.47,3.18-2.4,2.12-4.22,5.41-5.48,9.87-.96,3.43-1.44,10.36-1.44,20.8v20.36h-7.91v-60.19Z"/><path class="cls-1" d="m490.77,340.66h-.23l-12.8,6.91-1.93-7.59,16.09-8.61h8.5v73.64h-9.63v-64.35Z"/><path class="cls-1" d="m528.04,399.12c0-4.19,2.83-7.14,6.8-7.14s6.68,2.95,6.68,7.14-2.61,7.14-6.8,7.14c-3.97,0-6.68-3.06-6.68-7.14Z"/><path class="cls-1" d="m442.35,526.46v61.79c0,1.51.35,2.59,1.06,3.24.71.65,2.1,1.15,4.18,1.52v1.77h-23.35v-1.77c2.07-.37,3.47-.87,4.18-1.49.71-.63,1.06-1.71,1.06-3.26v-61.79h-37.84c-2.29,0-3.92.23-4.87.7-.96.47-1.68,1.42-2.17,2.84h-2.62v-14.27h2.62c.49,1.42,1.21,2.36,2.17,2.83.96.47,2.58.71,4.87.71h88.55c2.29,0,3.92-.24,4.87-.71.96-.47,1.68-1.42,2.17-2.83h2.62v14.27h-2.62c-.49-1.42-1.22-2.37-2.17-2.84-.96-.47-2.58-.7-4.87-.7h-37.84Z"/><path class="cls-1" d="m578.9,565.9h-60.53v22.63c0,1.51.35,2.59,1.06,3.24.71.65,2.1,1.15,4.18,1.52v1.49h-22.2v-1.49c2.07-.37,3.47-.88,4.18-1.52.71-.65,1.06-1.72,1.06-3.24v-49.46c0-1.55-.36-2.64-1.06-3.26-.71-.63-2.1-1.12-4.18-1.49v-1.49h22.2v1.49c-2.08.37-3.47.87-4.18,1.49-.71.63-1.06,1.71-1.06,3.26v20.8h60.53v-20.8c0-1.55-.36-2.64-1.06-3.26-.71-.63-2.1-1.12-4.18-1.49v-1.49h22.2v1.49c-2.08.37-3.47.88-4.18,1.52-.71.65-1.06,1.72-1.06,3.24v49.46c0,1.51.35,2.59,1.06,3.24.71.65,2.1,1.15,4.18,1.52v1.49h-22.2v-1.49c2.07-.37,3.47-.88,4.18-1.52.71-.65,1.06-1.72,1.06-3.24v-22.63Z"/><path class="cls-1" d="m632.47,566.73v21.8c0,1.51.35,2.59,1.06,3.24.71.65,2.1,1.15,4.18,1.52v1.49h-22.2v-1.49c2.13-.37,3.54-.88,4.22-1.52.68-.65,1.02-1.72,1.02-3.24v-49.46c0-1.55-.36-2.64-1.06-3.26-.71-.63-2.1-1.12-4.18-1.49v-1.49h54.47c6.17,0,11.21.29,15.11.88,3.9.59,7.3,1.59,10.2,2.99,6.33,3.02,9.5,7.45,9.5,13.28,0,4.76-2.21,8.51-6.64,11.26-4.42,2.75-10.92,4.4-19.5,4.95l23.02,24.67c.82.85,1.62,1.42,2.42,1.72.79.3,2.2.54,4.22.71v1.49h-22.71v-1.49c2.13-.29,3.2-.76,3.2-1.38,0-.44-.63-1.33-1.89-2.66l-21.1-22.51h-33.35Zm0-6.03h34.9c5.62,0,9.84-.14,12.66-.42,2.81-.28,5.2-.78,7.17-1.52,4.31-1.62,6.47-4.44,6.47-8.46s-2.02-6.79-6.06-8.74c-3.71-1.81-10.02-2.71-18.92-2.71h-36.21v21.85Z"/><path class="cls-1" d="m739.86,565.79v22.96h56.68c2.29,0,3.92-.24,4.87-.71.96-.47,1.68-1.42,2.17-2.83h2.29v13.11h-2.29c-.49-1.4-1.2-2.34-2.13-2.82-.93-.48-2.54-.72-4.83-.72h-73.72v-1.49c2.13-.37,3.54-.88,4.22-1.52.68-.65,1.02-1.72,1.02-3.24v-49.46c0-1.55-.36-2.64-1.06-3.26-.71-.63-2.1-1.12-4.18-1.49v-1.49h73.15c2.29,0,3.9-.24,4.83-.72.93-.48,1.67-1.42,2.21-2.82h2.21v13.11h-2.21c-.55-1.42-1.28-2.36-2.21-2.83-.93-.47-2.54-.71-4.83-.71h-56.19v20.91h35.8c2.29,0,3.9-.24,4.83-.72.93-.48,1.67-1.42,2.21-2.82h2.21v13.11h-2.21c-.55-1.42-1.3-2.36-2.25-2.83-.96-.47-2.55-.71-4.79-.71h-35.8Z"/><path class="cls-1" d="m888.2,577.35h-48.14l-6.91,10.4c-.87,1.29-1.31,2.25-1.31,2.88,0,1.25,1.42,2.14,4.27,2.66v1.49h-22.61v-1.49c2.18-.26,3.89-.84,5.12-1.74,1.23-.9,2.69-2.63,4.38-5.17l30.39-44.59c1.69-2.47,2.54-4.17,2.54-5.09,0-1.29-1.37-2.08-4.1-2.38v-1.49h26.62v1.49c-2.73.41-4.1,1.2-4.1,2.38,0,.7,1.09,2.67,3.28,5.92l29.16,42.87c1.97,2.84,3.66,4.79,5.08,5.86,1.42,1.07,3.22,1.71,5.41,1.94v1.49h-23.88v-1.49c2.55-.37,3.83-1,3.83-1.88,0-.44-.66-1.66-1.97-3.65l-7.07-10.4Zm-3.83-6.03l-20.03-30.38-20.26,30.38h40.29Z"/><path class="cls-1" d="m931.95,588.53v-49.46c0-1.51-.34-2.59-1.02-3.24-.68-.65-2.09-1.15-4.22-1.52v-1.49h46.36c12.4,0,21.63.98,27.69,2.93,7.54,2.47,13.43,6.56,17.69,12.28,3.71,4.94,5.57,10.2,5.57,15.77,0,6.53-2.46,12.52-7.37,17.98-4.26,4.76-9.65,8.11-16.18,10.07s-15.66,2.93-27.4,2.93h-46.36v-1.49c2.13-.37,3.54-.88,4.22-1.52.68-.65,1.02-1.72,1.02-3.24Zm11.71.22h28.75c10.87,0,18.81-1,23.84-2.99,5.57-2.18,9.72-5.61,12.45-10.29,2.02-3.54,3.03-7.43,3.03-11.67,0-7.56-2.87-13.61-8.6-18.14-3.17-2.47-7.08-4.22-11.75-5.26-4.67-1.03-10.99-1.55-18.96-1.55h-28.75v49.9Z"/><path class="cls-1" d="m1062.03,587.59h71.43c2.29,0,3.92-.24,4.87-.72.96-.48,1.68-1.42,2.17-2.82h2.62v14.27h-2.62c-.49-1.4-1.22-2.34-2.17-2.82-.96-.48-2.58-.72-4.87-.72h-89.53v-1.77c2.13-.37,3.54-.87,4.22-1.49.68-.63,1.02-1.71,1.02-3.26v-62.46c0-1.55-.36-2.64-1.07-3.26-.71-.63-2.1-1.12-4.18-1.49v-1.77h23.35v1.77c-2.08.37-3.47.87-4.18,1.49-.71.63-1.06,1.71-1.06,3.26v61.79Z"/><path class="cls-1" d="m1220.53,577.35h-48.14l-6.91,10.4c-.88,1.29-1.31,2.25-1.31,2.88,0,1.25,1.42,2.14,4.27,2.66v1.49h-22.61v-1.49c2.18-.26,3.89-.84,5.12-1.74,1.23-.9,2.69-2.63,4.38-5.17l30.39-44.59c1.69-2.47,2.54-4.17,2.54-5.09,0-1.29-1.37-2.08-4.1-2.38v-1.49h26.62v1.49c-2.73.41-4.1,1.2-4.1,2.38,0,.7,1.09,2.67,3.28,5.92l29.16,42.87c1.97,2.84,3.66,4.79,5.08,5.86,1.42,1.07,3.22,1.71,5.41,1.94v1.49h-23.88v-1.49c2.55-.37,3.83-1,3.83-1.88,0-.44-.66-1.66-1.97-3.65l-7.07-10.4Zm-3.83-6.03l-20.03-30.38-20.26,30.38h40.29Z"/><path class="cls-1" d="m1264.28,588.53v-49.46c0-1.55-.36-2.64-1.06-3.26-.71-.63-2.1-1.12-4.18-1.49v-1.49h22.2v1.49c-2.08.37-3.47.87-4.18,1.49-.71.63-1.06,1.71-1.06,3.26v49.46c0,1.51.35,2.59,1.06,3.24.71.65,2.1,1.15,4.18,1.52v1.49h-22.2v-1.49c2.07-.37,3.47-.88,4.18-1.52.71-.65,1.06-1.72,1.06-3.24Z"/><path class="cls-1" d="m1317.93,566.73v21.8c0,1.51.35,2.59,1.06,3.24.71.65,2.1,1.15,4.18,1.52v1.49h-22.2v-1.49c2.13-.37,3.54-.88,4.22-1.52s1.02-1.72,1.02-3.24v-49.46c0-1.55-.36-2.64-1.06-3.26-.71-.63-2.1-1.12-4.18-1.49v-1.49h54.47c6.17,0,11.21.29,15.11.88,3.9.59,7.3,1.59,10.2,2.99,6.33,3.02,9.5,7.45,9.5,13.28,0,4.76-2.21,8.51-6.63,11.26-4.42,2.75-10.92,4.4-19.5,4.95l23.02,24.67c.82.85,1.62,1.42,2.42,1.72.79.3,2.2.54,4.22.71v1.49h-22.71v-1.49c2.13-.29,3.2-.76,3.2-1.38,0-.44-.63-1.33-1.88-2.66l-21.1-22.51h-33.35Zm0-6.03h34.9c5.62,0,9.84-.14,12.66-.42,2.81-.28,5.2-.78,7.17-1.52,4.31-1.62,6.47-4.44,6.47-8.46s-2.02-6.79-6.06-8.74c-3.71-1.81-10.02-2.71-18.92-2.71h-36.21v21.85Z"/><path class="cls-1" d="m260.05,594.55v-6.12l7.82-7.59c18.81-17.9,27.3-27.42,27.42-38.52,0-7.48-3.63-14.39-14.62-14.39-6.68,0-12.24,3.4-15.63,6.23l-3.17-7.03c5.1-4.3,12.35-7.48,20.85-7.48,15.86,0,22.55,10.88,22.55,21.41,0,13.6-9.86,24.59-25.38,39.54l-5.89,5.44v.23h33.08v8.27h-47.02Z"/><path class="cls-1" d="m318.97,588.66c0-4.19,2.83-7.14,6.8-7.14s6.68,2.95,6.68,7.14-2.61,7.14-6.8,7.14c-3.97,0-6.68-3.06-6.68-7.14Z"/><path class="cls-1" d="m403.11,783.78c2.83,1.81,9.4,4.65,16.31,4.65,12.8,0,16.77-8.16,16.65-14.28-.11-10.31-9.4-14.73-19.03-14.73h-5.55v-7.48h5.55c7.25,0,16.43-3.74,16.43-12.46,0-5.89-3.74-11.1-12.92-11.1-5.89,0-11.56,2.61-14.73,4.87l-2.61-7.25c3.85-2.83,11.33-5.66,19.26-5.66,14.5,0,21.07,8.61,21.07,17.56,0,7.59-4.53,14.05-13.6,17.33v.23c9.06,1.81,16.43,8.61,16.43,18.92,0,11.78-9.18,22.09-26.85,22.09-8.27,0-15.52-2.61-19.15-4.99l2.72-7.7Z"/><path class="cls-1" d="m459.64,789.33c0-4.19,2.83-7.14,6.8-7.14s6.68,2.95,6.68,7.14-2.61,7.14-6.8,7.14c-3.97,0-6.68-3.06-6.68-7.14Z"/><path class="cls-1" d="m549.3,702.71h-42.08v-6.82h98.8v6.82h-41.93v92.68h-14.78v-92.68Z"/><path class="cls-1" d="m614.66,725.74h10.35v29.95h44.68v-29.95h10.35v69.65h-10.35v-35.03h-44.68v35.03h-10.35v-69.65Z"/><path class="cls-1" d="m752.13,789.97c1.29,2.29,2.57,3.83,3.83,4.63v.8h-10.85c-1.13-1.26-2.17-2.85-3.13-4.78-.96-1.92-2.01-4.38-3.13-7.36-1.86-4.91-3.75-8.71-5.67-11.39-1.92-2.69-4.28-4.46-7.06-5.32h-21v28.86h-10.35v-69.65h28.76c9.55,0,16.93,1.68,22.14,5.03,5.21,3.35,7.81,8.47,7.81,15.37,0,10.28-5.81,16.68-17.41,19.21,2.52,1.26,4.71,3.1,6.57,5.52,1.86,2.42,3.61,5.72,5.27,9.9,1.52,3.85,2.94,6.92,4.23,9.2Zm-28.41-28.11c13,0,19.5-5.24,19.5-15.72s-6.5-15.62-19.5-15.62h-18.61v31.34h18.61Z"/><path class="cls-1" d="m764.52,725.74h59.01v4.78h-48.66v25.17h42.99v4.68h-42.99v30.25h48.66v4.78h-59.01v-69.65Z"/><path class="cls-1" d="m883.33,777.28h-40.1l-9.06,18.11h-6.97l36.22-70.65h5.37l34.13,70.65h-11.14l-8.46-18.11Zm-2.29-4.78l-17.12-36.62-18.31,36.62h35.42Z"/><path class="cls-1" d="m911.29,725.74h27.07c13,0,22.89,2.85,29.65,8.56,6.77,5.71,10.15,14.06,10.15,25.08s-3.4,20.35-10.2,26.62c-6.8,6.27-16.47,9.4-29.01,9.4h-27.66v-69.65Zm29.06,64.88c8.82,0,15.61-2.69,20.35-8.06,4.74-5.37,7.11-13.1,7.11-23.19,0-9.49-2.32-16.67-6.97-21.54-4.64-4.88-11.48-7.31-20.5-7.31h-18.71v60.1h18.71Z"/><path class="cls-1" d="m994.25,695.88h14.78v92.68h62.55v6.82h-77.33v-99.51Z"/><path class="cls-1" d="m1131.15,777.28h-40.1l-9.06,18.11h-6.97l36.22-70.65h5.37l34.13,70.65h-11.14l-8.46-18.11Zm-2.29-4.78l-17.12-36.62-18.31,36.62h35.42Z"/><path class="cls-1" d="m1163.1,725.74h10.35v69.65h-10.35v-69.65Z"/><path class="cls-1" d="m1249.62,789.97c1.29,2.29,2.57,3.83,3.83,4.63v.8h-10.85c-1.13-1.26-2.17-2.85-3.13-4.78-.96-1.92-2.01-4.38-3.13-7.36-1.86-4.91-3.75-8.71-5.67-11.39-1.92-2.69-4.28-4.46-7.06-5.32h-21v28.86h-10.35v-69.65h28.76c9.55,0,16.93,1.68,22.14,5.03,5.21,3.35,7.81,8.47,7.81,15.37,0,10.28-5.81,16.68-17.41,19.21,2.52,1.26,4.71,3.1,6.57,5.52,1.86,2.42,3.62,5.72,5.27,9.9,1.53,3.85,2.94,6.92,4.23,9.2Zm-28.41-28.11c13,0,19.5-5.24,19.5-15.72s-6.5-15.62-19.5-15.62h-18.61v31.34h18.61Z"/></g></svg>