<?xml version="1.0" encoding="UTF-8"?><svg id="Layer_2" xmlns="http://www.w3.org/2000/svg" viewBox="0 0 4.43 6.03"><defs><style>.cls-1{stroke-width:.3px;}.cls-1,.cls-2{fill:none;stroke:#000;stroke-miterlimit:10;}.cls-3{fill:#fff;}.cls-2{stroke-width:.31px;}.cls-4{fill:#a65151;}.cls-5{letter-spacing:-.01em;}.cls-6{letter-spacing:0em;}.cls-7{font-family:MyriadConceptRoman-Semibold, 'Myriad Variable Concept';font-size:.98px;font-variation-settings:'wght' 600, 'wdth' 100;font-weight:600;}.cls-8{letter-spacing:0em;}</style></defs><g id="Layer_1-2"><polygon class="cls-3" points=".31 .64 .5 .11 4.05 .17 4.28 .77 3.99 .79 3.65 5.84 .96 5.84 .49 .96 .5 .82 .26 .75 .31 .64"/><path class="cls-4" d="m3.87,2.78c-.03-.12.04-.14.03-.26-.04-.08,0-.32-.03-.41l-.02.33c-.2-.72-1.23-.78-1.58-.18,0,0-.09-.58-1.15-.37-.19.04-.32.14-.41.27-.03.17.01.33-.06.48,0,.03.14.06.03.12.07.08.1-.15,0,.3.02.05-.02.09,0,.14l-.02-.28c.17.6.75,1.26,1.63,1.47,0,0,1.21-.46,1.54-1.29l-.03.37c.02-.27-.06-.47.09-.7Z"/><polygon class="cls-2" points=".54 .91 .92 5.88 3.65 5.88 3.99 .78 4.24 .78 4.1 .16 .44 .16 .21 .75 .52 .79 .54 .91"/><text class="cls-7" transform="translate(.95 3.15)"><tspan class="cls-6" x="0" y="0">c</tspan><tspan class="cls-8" x=".43" y="0">o</tspan><tspan class="cls-5" x=".98" y="0">ff</tspan><tspan x="1.57" y="0">ee</tspan></text><line class="cls-1" x1=".39" y1=".78" x2="4.04" y2=".78"/></g></svg>