<?xml version="1.0" encoding="UTF-8"?><svg id="Layer_2" xmlns="http://www.w3.org/2000/svg" viewBox="0 0 12.3 12.3"><defs><style>.cls-1{fill:#a65252;stroke:#804b4f;}.cls-1,.cls-2{stroke-miterlimit:10;stroke-width:.25px;}.cls-2{fill:#fff;stroke:#8c5153;}</style></defs><g id="Layer_1-2"><path class="cls-1" d="m2.26.12h7.78c1.18,0,2.13.98,2.13,2.19v7.67c0,1.21-.95,2.19-2.13,2.19H2.26c-1.18,0-2.13-.98-2.13-2.19V2.31C.12,1.1,1.08.12,2.26.12Z"/><path class="cls-2" d="m4.35,8.64H1.49c-.05,0-.07-.03-.07-.09V3.29c0-.05.02-.07.07-.07h.89s.05.02.05.06v4.32h2.09s.06.02.05.07l-.13.9s-.01.05-.03.06-.03.01-.05.01h0Zm.71-4.12h.79s.08.02.09.08c.01.03.03.08.03.12,0,.05.01.11.02.16,0,.06,0,.12,0,.18.13-.17.3-.33.48-.44.2-.13.44-.19.67-.18.05,0,.07.02.07.07v1s-.02.06-.07.06c-.16,0-.32,0-.47.03-.13.03-.25.08-.38.14-.09.05-.17.12-.24.19v2.63c0,.05-.02.07-.06.07h-.87c-.05,0-.07-.02-.07-.08v-2.85c0-.13,0-.25,0-.39,0-.13,0-.27,0-.4,0-.12-.01-.23-.03-.34,0-.01,0-.03,0-.05.01,0,.02,0,.04,0h0Zm5.73-.76c-.1-.05-.22-.07-.34-.09-.17-.02-.34-.03-.51-.03-.49,0-.93.11-1.28.32s-.64.53-.83.9c-.2.38-.29.83-.29,1.34,0,.3.03.61.11.91.07.25.17.49.32.7.14.2.3.37.49.51s.41.25.64.31c.23.07.49.1.73.1.17,0,.35,0,.52-.03.14-.01.28-.05.41-.1.05-.02.08-.08.08-.14v-.77s0-.06-.02-.08c-.01,0-.04-.02-.08,0-.11.04-.23.07-.35.09-.15.01-.29.02-.44.02-.13,0-.27-.02-.39-.06-.14-.03-.26-.09-.38-.16-.13-.08-.23-.18-.31-.3-.09-.13-.17-.28-.22-.44-.06-.2-.08-.4-.08-.6,0-.28.05-.57.16-.82.1-.22.27-.41.47-.54.22-.13.47-.2.73-.2.16,0,.31,0,.47.04.13.02.24.06.36.13.02,0,.05,0,.07,0,.02-.02.03-.05.03-.08v-.8c0-.05-.02-.1-.06-.13h0Z"/></g></svg>