<?xml version="1.0" encoding="UTF-8"?><svg id="Layer_2" xmlns="http://www.w3.org/2000/svg" viewBox="0 0 103.51 75.42"><defs><style>.cls-1{letter-spacing:.14em;}.cls-2,.cls-3{fill:#a65252;}.cls-4{letter-spacing:.15em;}.cls-3{font-family:MyriadConceptRoman-LightSemiCn, 'Myriad Variable Concept';font-size:10px;font-variation-settings:'wght' 300, 'wdth' 90;font-weight:300;}.cls-5{letter-spacing:.15em;}.cls-6{letter-spacing:.14em;}</style></defs><g id="Layer_1-2"><text/><path class="cls-2" d="m3.58,18.34c.1.08,4.91,4.12,9.8,8.22h7.68L6.5,14.34c-1-.87-2.36-2.23-2.66-3.97-.41-2.31.33-4.46,1.27-5.42,0,0,0,0,.01-.01,1.45-1.45,3.15-2.56,5.04-3.31,1.83-.72,3.76-1.07,5.73-1.03h0c3.2.06,6.25,1.14,8.75,3.07.06.04.4.32.49.4l.09.08s.09.07.13.11l.12.11c.06.05.11.1.16.15.05.04.09.08.14.13.03.03.06.06.09.09.07.07.15.14.22.21,2.8,2.8,4.34,6.53,4.34,10.49h.26V.47h-.26c0,1.99-1.62,3.61-3.61,3.61-.74,0-1.44-.22-2.05-.64C22.24,1.49,19.15.4,15.89.34c-2.01-.04-3.97.32-5.83,1.05-1.93.76-3.65,1.89-5.13,3.37,0,0-.01.01-.02.02-1.57,1.57-2.75,3.42-3.5,5.49,0,0-.04.1-.04.1-1,2.83-.12,6.03,2.19,7.97Z"/><path class="cls-2" d="m29.95,36.87h-4.73c1.65,2.12,2.55,4.7,2.55,7.43,0,3.25-1.26,6.3-3.56,8.59-2.18,2.18-5.08,3.44-8.16,3.55h0s-.09,0-.14,0h-.12c-.12,0-.23,0-.35,0h-.26c-3.31-.1-6.46-1.29-8.99-3.37-.02-.01-.03-.03-.05-.04-.07-.06-.14-.11-.2-.17-.02-.02-.04-.03-.05-.04-.08-.07-.16-.14-.23-.21-.02-.02-.03-.03-.05-.05-.06-.06-.12-.11-.18-.17-.02-.02-.04-.04-.07-.06-.08-.07-.15-.15-.23-.22-2.37-2.37-3.84-5.39-4.24-8.71-.07-.59-.11-1.18-.11-1.78v-.02h-.26v14.98h.26c0-1.99,1.62-3.61,3.61-3.61.75,0,1.47.23,2.09.66h0c2.5,1.9,5.52,2.98,8.7,3.07h.26s.12,0,.18,0,.12,0,.18,0h.12s.1,0,.14,0h0c3.86-.11,7.5-1.68,10.23-4.41,3.03-3.03,4.63-7.22,4.4-11.5-.08-1.46-.35-2.77-.73-3.93Z"/><text class="cls-3" transform="translate(0 35.13)"><tspan class="cls-4" x="0" y="0">S</tspan><tspan class="cls-6" x="5.76" y="0">A</tspan><tspan class="cls-1" x="12.54" y="0">M</tspan><tspan class="cls-5" x="21.07" y="0">ANTHA QUINLAN</tspan></text><path class="cls-2" d="m50.27,26.57c.39-6.66,2.69-12.88,6.64-17.67C61.23,3.65,67,.7,73.14.61h.6c6.14.09,11.91,3.04,16.23,8.29,3.95,4.79,6.25,11.01,6.64,17.67h4.94c-.21-3.09-.91-6.09-2.11-8.94-1.4-3.34-3.41-6.34-5.97-8.93-2.56-2.58-5.54-4.62-8.86-6.06-3.44-1.48-7.09-2.26-10.87-2.3h-.61c-3.77.04-7.43.81-10.87,2.3-3.32,1.44-6.31,3.47-8.86,6.06-2.56,2.58-4.57,5.59-5.97,8.93-1.2,2.85-1.9,5.85-2.11,8.94h4.94Z"/><path class="cls-2" d="m96.71,59.87c0,7.15-5.82,12.96-12.96,12.96s-12.96-5.82-12.96-12.96c0-1.1-.06-2.2-.17-3.28.83.08,1.67.13,2.52.14h.61c3.77-.04,7.43-.81,10.87-2.3,3.32-1.44,6.3-3.47,8.86-6.06,2.56-2.58,4.57-5.59,5.97-8.93.35-.85.67-1.7.93-2.57h-4.75c-1.09,4.21-3.01,8.08-5.66,11.3-4.32,5.25-10.09,8.19-16.23,8.29h-.6c-.86-.01-1.71-.08-2.56-.21-.26-2.31-.76-4.58-1.51-6.78-1.1-3.23-2.7-6.25-4.76-8.98-.97-1.29-2.04-2.5-3.19-3.62h-.37c1.21,1.17,2.33,2.43,3.35,3.78,2.04,2.71,3.63,5.71,4.72,8.91.74,2.16,1.23,4.38,1.49,6.65-5.07-.81-9.75-3.6-13.4-8.04-2.65-3.22-4.56-7.09-5.65-11.3h-4.76c.27.87.58,1.73.93,2.57,1.4,3.34,3.41,6.34,5.97,8.93,2.56,2.58,5.54,4.62,8.86,6.06,2.58,1.12,5.29,1.83,8.08,2.13.11,1.1.17,2.2.17,3.31,0,4.15,1.62,8.06,4.56,11,2.94,2.94,6.84,4.56,11,4.56s8.06-1.62,11-4.56c2.94-2.94,4.56-6.84,4.56-11v-.13h-4.92v.13Z"/></g></svg>