<?xml version="1.0" encoding="UTF-8"?><svg id="Layer_2" xmlns="http://www.w3.org/2000/svg" viewBox="0 0 135 135"><defs><style>.cls-1{fill:#fff;}.cls-2{fill:#9b72f2;}</style></defs><g id="Layer_1-2"><circle class="cls-2" cx="67.5" cy="67.5" r="67.5"/><path class="cls-1" d="m49.18,36.43c2.71,0,5.15.23,7.38.72,2.22.47,4.12,1.25,5.72,2.33,1.58,1.08,2.81,2.51,3.69,4.32.86,1.78,1.29,4.01,1.29,6.64,0,2.85-.65,5.23-1.94,7.13-1.3,1.9-3.22,3.46-5.78,4.67,3.48,1,6.06,2.76,7.77,5.27,1.72,2.52,2.56,5.54,2.56,9.08,0,2.87-.55,5.34-1.65,7.42-1.11,2.1-2.62,3.81-4.48,5.12-1.87,1.33-4.03,2.3-6.44,2.93-2.38.63-4.86.95-7.4.95h-27.43v-56.59h26.68Zm-1.61,22.86c2.21,0,4.04-.52,5.48-1.59,1.43-1.04,2.13-2.77,2.13-5.15,0-1.32-.23-2.4-.69-3.25-.48-.85-1.12-1.51-1.92-1.97-.8-.48-1.7-.81-2.74-.99-1.03-.2-2.1-.28-3.2-.28h-11.66v13.22h12.61Zm.69,24.09c1.23,0,2.4-.11,3.49-.36,1.11-.24,2.1-.63,2.94-1.2.83-.55,1.52-1.3,2.02-2.26.5-.95.74-2.18.74-3.67,0-2.92-.82-4.99-2.45-6.25-1.63-1.24-3.81-1.86-6.5-1.86h-13.55v15.58h13.3Z"/><path class="cls-1" d="m87.65,83.19c1.68,1.65,4.12,2.47,7.28,2.47,2.27,0,4.23-.57,5.88-1.72,1.63-1.14,2.62-2.36,3.01-3.63h9.91c-1.59,4.93-4.01,8.45-7.31,10.57-3.26,2.13-7.23,3.19-11.86,3.19-3.23,0-6.13-.52-8.74-1.55-2.61-1.04-4.78-2.5-6.62-4.4-1.79-1.91-3.17-4.17-4.16-6.83-.98-2.64-1.47-5.57-1.47-8.73s.51-5.93,1.51-8.57c1.02-2.65,2.43-4.94,4.29-6.87,1.86-1.93,4.07-3.45,6.64-4.57,2.57-1.11,5.41-1.67,8.55-1.67,3.47,0,6.5.67,9.11,2.03,2.59,1.34,4.72,3.16,6.39,5.43,1.67,2.27,2.86,4.86,3.6,7.78.74,2.9.99,5.94.78,9.12h-29.57c0,3.24,1.1,6.31,2.79,7.95Zm12.93-21.53c-1.34-1.48-3.6-2.28-6.37-2.28-1.8,0-3.29.3-4.48.92-1.16.61-2.12,1.37-2.85,2.26-.73.91-1.22,1.86-1.51,2.89-.29.99-.46,1.9-.51,2.7h18.31c-.27-2.87-1.25-4.99-2.59-6.48Z"/><rect class="cls-1" x="82.56" y="40.23" width="22.94" height="5.59"/></g></svg>