<?xml version="1.0" encoding="UTF-8"?><svg id="Layer_2" xmlns="http://www.w3.org/2000/svg" viewBox="0 0 8.46 8.84"><defs><style>.cls-1{fill:#1f4c4e;stroke:#112b2a;stroke-width:.25px;}.cls-1,.cls-2{stroke-miterlimit:10;}.cls-2{fill:#fff;stroke:#f18721;stroke-width:.2px;}.cls-3{fill:none;stroke-width:0px;}</style></defs><g id="Layer_1-2"><path class="cls-1" d="m1.58.12h5.3c.8,0,1.45.67,1.45,1.49v5.23c0,.82-.65,1.49-1.45,1.49H1.58c-.8,0-1.45-.67-1.45-1.49V1.62C.12.79.78.12,1.58.12Z"/><path class="cls-3" d="m1.49.63h5.47v8.21H1.49V.63Z"/><path class="cls-2" d="m4.23,4.38c0-.63.51-1.14,1.14-1.14s1.14.51,1.14,1.14-.51,1.14-1.14,1.14-1.14-.51-1.14-1.14h0Z"/><path class="cls-2" d="m1.96,6.65c0-.63.51-1.14,1.14-1.14h1.14v1.14c0,.63-.51,1.14-1.14,1.14s-1.14-.51-1.14-1.14h0Z"/><path class="cls-2" d="m4.23.97v2.27h1.14c.63,0,1.14-.51,1.14-1.14s-.51-1.14-1.14-1.14h-1.14Z"/><path class="cls-2" d="m1.96,2.11c0,.63.51,1.14,1.14,1.14h1.14V.97h-1.14c-.63,0-1.14.51-1.14,1.14Z"/><path class="cls-2" d="m1.96,4.38c0,.63.51,1.14,1.14,1.14h1.14v-2.27h-1.14c-.63,0-1.14.51-1.14,1.14Z"/></g></svg>