<?xml version="1.0" encoding="UTF-8"?><svg id="Layer_2" xmlns="http://www.w3.org/2000/svg" viewBox="0 0 1690.26 989.13"><defs><style>.cls-1{fill:#a913e7;}.cls-1,.cls-2,.cls-3,.cls-4,.cls-5,.cls-6,.cls-7,.cls-8,.cls-9,.cls-10,.cls-11,.cls-12,.cls-13,.cls-14,.cls-15,.cls-16,.cls-17,.cls-18{stroke-width:0px;}.cls-19{letter-spacing:-.01em;}.cls-20{font-size:72.32px;}.cls-20,.cls-21,.cls-22,.cls-23{font-family:MyriadPro-Regular, 'Myriad Pro';}.cls-21{font-size:120px;}.cls-24{letter-spacing:0em;}.cls-25{letter-spacing:-.08em;}.cls-2{fill:#ed871f;}.cls-3{fill:#8a29fc;}.cls-4{fill:#e92e19;}.cls-5{fill:#4ab11a;}.cls-6{fill:#f13005;}.cls-7{fill:#481081;}.cls-26{letter-spacing:0em;}.cls-8{fill:#f23e4d;}.cls-9{fill:#fff;}.cls-22{font-size:40px;}.cls-10{fill:#dcf238;}.cls-11{fill:#f8fa31;}.cls-12{fill:#e8cf14;}.cls-27{letter-spacing:-.03em;}.cls-28{letter-spacing:-.01em;}.cls-13{fill:#ff5f21;}.cls-14{fill:#14acff;}.cls-15{fill:#06aff2;}.cls-29{letter-spacing:.01em;}.cls-30{letter-spacing:0em;}.cls-16{fill:#0eab3a;}.cls-23{font-size:120.66px;}.cls-17{fill:#f27405;}.cls-18{fill:#4083e3;}</style></defs><g id="Layer_1-2"><rect class="cls-9" width="1690.26" height="989.13" rx="12" ry="12"/><circle class="cls-4" cx="286.48" cy="542.01" r="83.32"/><circle class="cls-2" cx="474.94" cy="542.01" r="83.32"/><circle class="cls-11" cx="663.4" cy="542.01" r="83.32"/><circle class="cls-5" cx="851.86" cy="542.01" r="83.32"/><circle class="cls-18" cx="1040.32" cy="542.01" r="83.32"/><circle class="cls-7" cx="1228.78" cy="542.01" r="83.32"/><circle class="cls-3" cx="1417.24" cy="542.01" r="83.32"/><circle class="cls-16" cx="461.76" cy="270.3" r="83.32"/><circle class="cls-12" cx="656.81" cy="270.3" r="83.32"/><circle class="cls-13" cx="851.86" cy="270.3" r="83.32"/><circle class="cls-1" cx="1046.92" cy="270.3" r="83.32"/><circle class="cls-14" cx="1241.97" cy="270.3" r="83.32"/><circle class="cls-8" cx="635.93" cy="831.44" r="83.32"/><circle class="cls-15" cx="822.02" cy="831.44" r="83.32"/><circle class="cls-10" cx="1008.1" cy="831.44" r="83.32"/><circle class="cls-17" cx="1194.19" cy="831.44" r="83.32"/><circle class="cls-6" cx="449.84" cy="831.44" r="83.32"/><text class="cls-20" transform="translate(229.27 83.89)"><tspan class="cls-28" x="0" y="0">C</tspan><tspan x="41.15" y="0">olor </tspan><tspan class="cls-27" x="176.6" y="0">P</tspan><tspan x="213.2" y="0">alet</tspan><tspan class="cls-24" x="325.29" y="0">t</tspan><tspan x="348.79" y="0">es Options(</tspan><tspan class="cls-29" x="689.85" y="0">R</tspan><tspan class="cls-30" x="729.62" y="0">ainb</tspan><tspan class="cls-26" x="862.69" y="0">o</tspan><tspan x="901.89" y="0">w theme)</tspan></text><text class="cls-22" transform="translate(382.53 397.2)"><tspan x="0" y="0">#0EAB3A</tspan></text><text class="cls-22" transform="translate(595.89 397.2)"><tspan x="0" y="0">#E8CF14</tspan></text><text class="cls-22" transform="translate(801.21 397.2)"><tspan x="0" y="0">#FF5F21</tspan></text><text class="cls-22" transform="translate(979.65 395.63)"><tspan x="0" y="0">#A913E7</tspan></text><text class="cls-22" transform="translate(1164.51 397.2)"><tspan x="0" y="0">#14</tspan><tspan class="cls-19" x="60.92" y="0">A</tspan><tspan x="84.8" y="0">CFF</tspan></text><text class="cls-22" transform="translate(211.34 667.64)"><tspan x="0" y="0">#E92E19</tspan></text><text class="cls-22" transform="translate(399.64 667.64)"><tspan x="0" y="0">#ED871F</tspan></text><text class="cls-22" transform="translate(593.64 667.64)"><tspan x="0" y="0">#F8</tspan><tspan class="cls-25" x="59.88" y="0">F</tspan><tspan x="76.24" y="0">A31</tspan></text><text class="cls-22" transform="translate(779.73 667.64)"><tspan x="0" y="0">#4AB11A</tspan></text><text class="cls-22" transform="translate(975.95 667.64)"><tspan x="0" y="0">#4083E3</tspan></text><text class="cls-22" transform="translate(1166.79 667.64)"><tspan x="0" y="0">#481081</tspan></text><text class="cls-22" transform="translate(1355.24 667.64)"><tspan x="0" y="0">#8A29FC</tspan></text><text class="cls-22" transform="translate(386.36 964.56) scale(1.02 1)"><tspan x="0" y="0">#F13005</tspan></text><text class="cls-22" transform="translate(569.01 964.56)"><tspan x="0" y="0">#F23E4D</tspan></text><text class="cls-22" transform="translate(753.8 964.56)"><tspan x="0" y="0">#06AFF2</tspan></text><text class="cls-22" transform="translate(934.48 964.56)"><tspan x="0" y="0">#DCF238</tspan></text><text class="cls-22" transform="translate(1122.49 964.56)"><tspan x="0" y="0">#F27405</tspan></text><text class="cls-21" transform="translate(228.52 315.96)"><tspan x="0" y="0">1</tspan></text><text class="cls-21" transform="translate(92.88 581.93)"><tspan x="0" y="0">2</tspan></text><text class="cls-23" transform="translate(231.13 874.73)"><tspan x="0" y="0">3</tspan></text></g></svg>