<?xml version="1.0" encoding="UTF-8"?><svg id="Layer_2" xmlns="http://www.w3.org/2000/svg" viewBox="0 0 7.71 7.4"><defs><style>.cls-1{stroke-width:.08px;}.cls-1,.cls-2{fill:#a65151;stroke:#020000;stroke-miterlimit:10;}.cls-2{stroke-width:.2px;}.cls-3{fill-rule:evenodd;}</style></defs><g id="Layer_1-2"><path class="cls-3" d="m7.08,3.98c.38.24.64.67.64,1.15s-.25.91-.64,1.15v-2.31h0Z"/><path class="cls-3" d="m.64,3.98c-.38.24-.64.67-.64,1.15s.25.91.64,1.15v-2.31h0Z"/><path d="m7.08,4.84v-1.38c0-.89-.36-1.69-.95-2.27S4.74.24,3.86.24s-1.69.36-2.27.95c-.58.58-.95,1.39-.95,2.27v1.38h-.24v-1.38c0-.95.39-1.82,1.02-2.45.63-.63,1.49-1.02,2.45-1.02s1.82.39,2.45,1.02c.63.63,1.02,1.49,1.02,2.45v1.38h-.24Z"/><path class="cls-1" d="m6.5,1.62c-.11.03-.23,0-.31-.1-.28-.34-.64-.63-1.05-.82-.39-.19-.83-.29-1.29-.29s-.9.1-1.29.29c-.41.19-.77.47-1.05.82-.08.09-.2.13-.31.1.11-.16.24-.31.37-.45C2.17.59,2.97.23,3.86.23s1.69.36,2.27.95c.14.14.26.29.37.45h0Z"/><rect class="cls-2" x=".74" y="3.39" width="1.19" height="3.64" rx=".6" ry=".6"/><rect class="cls-2" x="5.8" y="3.66" width="1.19" height="3.64" rx=".6" ry=".6"/></g></svg>