<?xml version="1.0" encoding="UTF-8"?><svg id="Layer_2" xmlns="http://www.w3.org/2000/svg" viewBox="0 0 10.84 10.84"><defs><style>.cls-1{fill:#fff;stroke:#8c5153;stroke-width:.25px;}.cls-1,.cls-2{stroke-miterlimit:10;}.cls-2{fill:#a65252;stroke:#804b4f;stroke-width:.75px;}</style></defs><g id="Layer_1-2"><path class="cls-2" d="m2.16.38h6.51c.99,0,1.79.82,1.79,1.83v6.42c0,1.01-.8,1.83-1.79,1.83H2.16c-.99,0-1.79-.82-1.79-1.83V2.21C.38,1.19,1.17.38,2.16.38Z"/><path class="cls-1" d="m.73,5.03c0-.34,0-.62-.02-.86h.59l.03.36h0c.16-.27.41-.42.73-.42.48,0,.91.49.91,1.31,0,.93-.51,1.37-.99,1.37-.26,0-.47-.12-.57-.29h0v1.27h-.68v-2.74Zm.68.6c0,.06,0,.12.01.17.04.21.2.38.4.38.29,0,.47-.29.47-.72,0-.41-.16-.72-.46-.72-.19,0-.36.17-.41.4-.01.05-.02.09-.02.14v.35Z"/><path class="cls-1" d="m4.98,3.94h-1.12l-.06.52c.06,0,.12-.01.19-.01.28,0,.56.08.76.25.22.18.35.46.35.86,0,.64-.46,1.19-1.24,1.19-.35,0-.64-.09-.81-.19l.12-.6c.13.07.39.17.65.17.28,0,.58-.16.58-.52,0-.35-.24-.57-.82-.57-.16,0-.27.01-.39.03l.19-1.79h1.6v.66Z"/><path class="cls-1" d="m6.88,4.71l-.46.64h0s.68-.15.68-.15v.5l-.69-.14h0s.46.63.46.63l-.38.26-.24-.77h0s-.25.77-.25.77l-.37-.26.46-.63h0s-.67.13-.67.13v-.5l.66.16h0s-.45-.64-.45-.64l.38-.25.24.77h0l.24-.77.37.25Z"/><path class="cls-1" d="m7.58,4.37h.68v2.23c0,1-.41,1.35-1.07,1.35-.16,0-.36-.03-.5-.08l.08-.64c.09.03.22.06.35.06.29,0,.46-.15.46-.7v-2.22Z"/><path class="cls-1" d="m8.6,6.14c.12.09.38.19.58.19s.29-.08.29-.21-.07-.2-.32-.3c-.45-.18-.62-.46-.62-.77,0-.48.35-.84.89-.84.26,0,.48.07.61.15l-.12.55c-.1-.06-.29-.14-.47-.14-.17,0-.26.08-.26.21s.09.19.35.3c.41.17.59.42.59.79,0,.48-.32.83-.94.83-.28,0-.54-.08-.71-.18l.12-.57Z"/></g></svg>