<?xml version="1.0" encoding="UTF-8"?><svg id="Layer_2" xmlns="http://www.w3.org/2000/svg" viewBox="0 0 6.5 9.2"><defs><style>.cls-1{fill:#fff;}.cls-2{fill:#f16529;}.cls-3{fill:#e44d26;}.cls-4{stroke:#fff;stroke-miterlimit:10;stroke-width:.25px;}</style></defs><g id="Layer_1-2"><polygon class="cls-3" points="0 1.82 .61 8.47 3.27 9.2 5.93 8.46 6.5 1.82 0 1.82"/><polygon class="cls-4" points=".6 .13 .6 1.4 1.03 1.4 1.03 .98 1.41 .98 1.41 1.4 1.83 1.4 1.83 .13 1.41 .13 1.41 .55 1.03 .55 1.03 .13 .6 .13"/><polygon class="cls-4" points="1.97 .13 1.97 .6 2.35 .6 2.35 1.4 2.83 1.4 2.83 .6 3.16 .6 3.16 .13 1.97 .13"/><polygon class="cls-4" points="3.3 1.4 3.3 .13 3.77 .13 4.03 .6 4.29 .13 4.77 .13 4.77 1.4 4.29 1.4 4.29 .88 4.03 1.22 3.77 .88 3.77 1.4 3.3 1.4"/><polygon class="cls-4" points="4.91 .13 5.38 .13 5.38 .93 5.95 .93 5.95 1.4 4.91 1.4 4.91 .13"/><polygon class="cls-2" points="3.3 8.82 3.19 2.22 6.13 2.22 5.67 8.19 3.3 8.82"/><polygon class="cls-1" points="2.16 4.07 5.29 4.07 5.29 3.21 1.22 3.21 1.42 5.72 4.22 5.72 4.19 6.74 3.25 6.99 2.35 6.76 2.31 6.06 1.45 6.05 1.59 7.38 3.27 7.86 4.95 7.38 5.19 4.87 2.21 4.87 2.16 4.07"/></g></svg>