<?xml version="1.0" encoding="UTF-8"?><svg id="Layer_2" xmlns="http://www.w3.org/2000/svg" viewBox="0 0 12.3 12.3"><defs><style>.cls-1,.cls-2{fill:#a65252;}.cls-1,.cls-3,.cls-4{stroke-width:0px;}.cls-2{stroke:#804b4f;}.cls-2,.cls-5{stroke-miterlimit:10;stroke-width:.25px;}.cls-3{fill:#ededed;}.cls-5{fill:#fff;stroke:#8c5153;}.cls-4{fill:#8c5153;}</style></defs><g id="Layer_1-2"><path class="cls-2" d="m2.26.12h7.78c1.18,0,2.13.98,2.13,2.19v7.67c0,1.21-.95,2.19-2.13,2.19H2.26c-1.18,0-2.13-.98-2.13-2.19V2.31C.12,1.1,1.08.12,2.26.12Z"/><path class="cls-5" d="m3.14,10.55l-.67-7.51h7.36l-.67,7.51-3.01.84-3.01-.83Z"/><path class="cls-3" d="m6.15,10.75l2.55-.68.6-6.42h-3.15v7.09Z"/><path class="cls-1" d="m6.15,6.43h-1.22l-.08-.94h1.3v-.92h-2.31l.02.25.23,2.54h2.06v-.92Zm0,2.39h0s-1.03-.28-1.03-.28l-.07-.73h-.93l.13,1.45,1.89.52h0s0-.96,0-.96Z"/><path class="cls-5" d="m3.15.99h.47v.46h.43v-.46h.47v1.4h-.47v-.47h-.43v.47h-.47V.99h0Zm1.98.46h-.41v-.46h1.29v.46h-.41v.94h-.47v-.94Zm1.09-.46h.49l.3.49.3-.49h.49v1.4h-.47v-.69l-.32.5h0l-.32-.5v.69h-.46V.99h0Zm1.81,0h.47v.94h.66v.46h-1.13V.99Z"/><path class="cls-4" d="m6.15,6.43v.92h1.13l-.11,1.2-1.03.28v.96l1.89-.52v-.16s.23-2.43.23-2.43l.02-.25h-2.14Zm0-1.87v.92h2.23l.02-.21.04-.47.02-.25h-2.31Z"/></g></svg>