<?xml version="1.0" encoding="UTF-8"?><svg id="Layer_2" xmlns="http://www.w3.org/2000/svg" viewBox="0 0 43.2 44.8"><defs><style>.cls-1,.cls-2,.cls-3,.cls-4,.cls-5,.cls-6,.cls-7,.cls-8,.cls-9,.cls-10,.cls-11,.cls-12,.cls-13{stroke-miterlimit:10;}.cls-1,.cls-2,.cls-3,.cls-4,.cls-14{fill:#fff;}.cls-1,.cls-2,.cls-4{stroke-width:.5px;}.cls-1,.cls-3,.cls-6,.cls-8,.cls-9,.cls-11,.cls-12,.cls-13{stroke:#1c232b;}.cls-2,.cls-5,.cls-7{stroke:#231f20;}.cls-3,.cls-9,.cls-12,.cls-13{stroke-width:.25px;}.cls-4{stroke:#000;}.cls-15{fill:#63823b;}.cls-15,.cls-16,.cls-17,.cls-18,.cls-19,.cls-14,.cls-20,.cls-21,.cls-22,.cls-23{stroke-width:0px;}.cls-16{fill:#d3a1a2;}.cls-17{fill:#0a0606;}.cls-24{opacity:.07;}.cls-5,.cls-12{fill:#a65252;}.cls-18{fill:#501315;}.cls-6,.cls-7,.cls-8,.cls-10,.cls-11{stroke-width:.2px;}.cls-6,.cls-10,.cls-13{fill:none;}.cls-19{fill:#7c7779;opacity:.14;}.cls-7,.cls-22{fill:#d18b57;}.cls-20{fill:#0b111a;}.cls-21{opacity:.32;}.cls-21,.cls-23{fill:#edbfd9;}.cls-8,.cls-9{fill:#fcc295;}.cls-10{stroke:#bd8e5a;}.cls-11{fill:#f7f7f7;}.cls-23{opacity:.34;}</style></defs><g id="Layer_1-2"><path class="cls-4" d="m.36,24.23s.37-4.1,3.1-6.36S15.85,6.4,15.85,6.4l18.42,7.44s3.4,2.33,2.68,4C25.03,45.54.36,24.23.36,24.23Z"/><polyline class="cls-1" points="26.87 20.14 36.81 16.99 41.37 30.54 7.14 40.31 .65 24.5 16.6 20.83"/><path class="cls-5" d="m25.66,11.04s.84.26.48.79-1.23.56-1.23.56l.75-1.35Z"/><path class="cls-9" d="m19.95,14.42s.49,1.44-.59,1.62c0,0,.58,2.1,2.25,1.71s2.32-1.25,2.15-2.35l-.59-.17v-1.27s-.28.92-1.4.98-1.82-.52-1.82-.52Z"/><polygon class="cls-22" points="24.79 12.08 26.08 7.73 27.49 8.23 25.23 12.08 24.79 12.08"/><path class="cls-22" d="m26.48,5.14s2.27,1.12.78,3.76-3.01,2.41-3.01,2.41l-2.67-5.1,4.89-1.08Z"/><path class="cls-9" d="m16.07,7.28c.01-.36-1.83,1.33,0,2.9,1.88,1.61,0-2.9,0-2.9Z"/><path class="cls-8" d="m16.93,10.42c.05.73.29,1.43.7,2.03.49.72,1.55,1.34,2.09,2.16,1.16,1.79,2.76,1.57,3.56.08.64-1.17,1.94-.65,2.95-6.01,0,0,.25-1.12.25-1.49s-6.12.06-8-3.7c0,0-1.87,2.59-1.55,6.92Z"/><path class="cls-20" d="m24.79,7.98s.93.13,1.29-.25c0,0-.18.38-.82.48s.79,0,.95-.24,0,.3-.8.4"/><path class="cls-11" d="m22.62,8.56s-.47.71.29.79c.57.06,1.25.03,1.55.01.17,0,.33-.05.48-.12.32-.16.95-1.03,0-1.19-1.85-.31-2.32.51-2.32.51Z"/><circle class="cls-15" cx="23.96" cy="8.68" r=".63"/><circle class="cls-17" cx="23.96" cy="8.68" r=".3"/><path class="cls-20" d="m18.92,7.98s-.93.13-1.29-.25c0,0,.18.38.82.48s-.79,0-.95-.24,0,.3.8.4"/><path class="cls-11" d="m21.09,8.56s.47.71-.29.79c-.57.06-1.25.03-1.55.01-.17,0-.33-.05-.48-.12-.32-.16-.95-1.03,0-1.19,1.85-.31,2.32.51,2.32.51Z"/><circle class="cls-15" cx="19.75" cy="8.68" r=".63"/><circle class="cls-17" cx="19.75" cy="8.68" r=".3"/><path class="cls-10" d="m22.26,9.14s-.28,1.4,0,1.82"/><path class="cls-10" d="m20.7,11.32s-.06.06-.09.14c-.09.2.1.41.31.36,0,0,0,0,.01,0,.09-.02.19,0,.26.07.14.16.39.33.65.04.08-.09.21-.12.32-.07.1.05.24.05.38-.14,0-.01.02-.03.03-.04.03-.06.08-.21-.07-.36"/><path class="cls-18" d="m19.7,13.06s.83,1.03,1.46,1.06c.64.03,1.3-.07,2.09-1.2l-1.85.42-1.7-.28Z"/><path class="cls-16" d="m19.88,12.99c.22-.09,2.61-.41,3.23-.14,0,0-1.8.7-3.23.14Z"/><path class="cls-16" d="m20.3,13.75s.26.69,1.12.77,1.15-.76,1.39-1.04c.22-.26-1.14,1.61-2.52.27Z"/><path class="cls-14" d="m19.9,13.09l.36.38s1.79.2,2.69-.28l.11-.2s-2.19.35-3.17.1Z"/><path class="cls-6" d="m19.7,13.06s1.79.38,3.57-.17c0,0-.69,1.33-1.89,1.25,0,0-.63.12-1.67-1.08Z"/><path class="cls-18" d="m20.88,6.8s0,.6-.25.46-1.07-.55-1.97-.22l-.74.34s.67-.94,1.39-.92,1.11.14,1.57.34Z"/><path class="cls-18" d="m22.76,6.98s0,.6.25.46,1.07-.55,1.97-.22l.74.34s-.67-.94-1.39-.92-1.11.14-1.57.34Z"/><path class="cls-22" d="m24.79,6.44l1.34,2.98.39-3.2s-.19.42-1.74.22Z"/><path class="cls-22" d="m19.4,3.09s-2.42-.5-2.38,10.03l.21,2.14s-2.41-3.56-.97-11.29l3.14-.88Z"/><path class="cls-22" d="m16.71,2.1s-1.89,2.16-.82,5.44c.23.72,2.18-3.75,2.18-3.75v-.98l.85-.56h1.06s0-2.55-3.27-.15Z"/><path class="cls-22" d="m27.45,6.79c-.27-1.94-.34-1.83-.66-2.15-.05-.02-.1-.05-.13-.09-.16-.02-.24-.16-.24-.29-.04-.05-.06-.12-.06-.18-.11-.18-.23-.41-.38-.72-2.53-5.33-6.94-2.41-6.94-2.41-4.14,1.52-2.76,2.3-3.31,7.16-.52,4.6,1.85,7.35.79-1.04,0,0,.89-4.58,1.99-3.22,2.48,3.07,5.25,3.45,6.76,3.39.59.46,2.48,1.75,2.18-.44Z"/><path class="cls-6" d="m18.09,3.03c.54,1.35,3.93,5.08,8.87,4.04"/><path class="cls-6" d="m16.85,5.07s-2.8,3.86.46,10.26c0,0-1.11-6.86,1.09-11.74"/><path class="cls-13" d="m18.09,1.69s5.39-4.94,8.36,2.75"/><path class="cls-13" d="m25.56,3.99s1.8.51,1.85,2.13"/><path class="cls-13" d="m15.9,7.57s-1.77-5.67,3.22-6.62"/><polyline class="cls-13" points="25.23 7.26 26.15 9.48 26.48 7.2"/><path class="cls-6" d="m25.44,11.79l1.97-3.2c1.29-2.81-.95-3.03-.95-3.03"/><path class="cls-9" d="m25.76,10.78c1.4-.65,1.13-2.25.58-2.62l-.58,2.62Z"/><g class="cls-24"><path class="cls-22" d="m15.9,3.75c.06.57.12,1.02.44,1.51.18.27.4.52.6.78l-.39-.51c.15.24.33.45.51.67l-.39-.51c.13.19.25.38.38.57.16.23.33.46.52.66s.45.36.68.52l-.51-.39c.3.23.57.49.91.65s.68.29,1.03.43l-.6-.25c.09.05.18.09.26.15l-.51-.39c.25.2.48.38.75.55.29.18.61.29.92.42l-.6-.25c.28.13.54.29.81.45.12.07.24.15.37.22.53.29.95.38,1.55.41s1.34-.3,1.77-.73.76-1.15.73-1.77-.24-1.32-.73-1.77-1.08-.7-1.77-.73h-.06c.22.03.44.06.66.09-.06,0-.12-.02-.18-.04l.6.25c-.23-.12-.45-.26-.67-.39-.41-.25-.82-.44-1.28-.61l.6.25c-.14-.06-.28-.16-.4-.25l.51.39c-.24-.19-.48-.38-.75-.53-.29-.16-.6-.25-.89-.37l.6.25c-.17-.08-.34-.15-.49-.27l.51.39c-.24-.2-.5-.38-.75-.57l.51.39c-.05-.05-.1-.11-.14-.17l.39.51c-.29-.39-.52-.78-.84-1.16l.39.51c-.18-.26-.38-.51-.58-.76l.39.51c-.06-.09-.12-.17-.17-.27l.25.6-.02-.06.09.66v-.06c0-.34-.06-.67-.22-.96-.1-.31-.27-.58-.52-.8-.43-.43-1.15-.76-1.77-.73s-1.32.24-1.77.73c-.42.46-.8,1.12-.73,1.77h0Z"/></g><g class="cls-24"><path class="cls-22" d="m18.12,4.41c.21.25.41.5.65.72.3.27.49.59.85.81.26.16.52.32.76.49.3.22.52.53.82.75.63.47,1.33.64,2.09.75.72.11,1.45.42,2.18.2.79-.23.45-1.33-.33-1.21-.23.04-.67,0-.95-.01-.07,0-.1,0-.14,0-.06-.01-.13-.1-.06-.03-.14-.12-.25-.24-.42-.32-.33-.16-.72-.22-1.08-.27-.17-.02-.34-.04-.5-.08-.07-.02-.15-.03-.22-.03h.04s.07.09.05,0l-.6.79c.31.02.51.25.75.41.34.22.73.35,1.12.44s.82.18,1.24.21c.36.03.8.07,1.14-.07.31-.12.53-.42.44-.77-.08-.3-.45-.56-.77-.44-.26.1-.66.04-.93.01-.37-.04-.76-.14-1.12-.25-.32-.1-.56-.29-.83-.48-.29-.2-.69-.3-1.04-.33-.42-.03-.69.42-.6.79.12.53.5.81,1.01.92.22.04.44.07.67.1.2.03.51.06.68.16.1.06.23.22.37.3.22.12.45.18.71.19.45.02.95.04,1.4-.03l-.33-1.21c-.22.07-.48.02-.7-.03-.36-.09-.73-.14-1.09-.21-.28-.05-.58-.11-.86-.2-.3-.09-.55-.29-.76-.51-.43-.44-.91-.78-1.44-1.09-.27-.16-.45-.45-.68-.67-.27-.25-.36-.4-.6-.68-.22-.26-.66-.22-.88,0-.26.26-.22.62,0,.88h0Z"/></g><path class="cls-12" d="m36.49,10.02s-.69-1.18-1.43-1.66c-.15.58-.64,1.03-1.1,1.39-.32.24-.66.47-1,.69-.12.18-.26.34-.43.47-.09.07-.18.07-.26.02-.09.08-.18.16-.26.25-.61.62-1.2,1.25-1.82,1.86-.06.13-.12.26-.19.38-.08.15-.23.17-.34.12-.39.35-.79.69-1.23,1-.1.07-.23.05-.32-.02-.03.03-.05.06-.08.09-.11.12-.26.1-.36.02-.03.03-.06.05-.08.08-1.09,1-3.81.73-3.81.73,0,0-.95,3.33-4.42.61l-3.31.07-3.67-1.69-4.95-4.68s-2,1.09-1.82,2.13c.18,1.04,5.72,5.99,5.72,5.99,0,0,3.53,3.14,4.26,3.18.73.05,1.42,2.9,1.42,2.9,0,0,.09.5.45,1.68s-.36,3.27-.36,3.27c0,0,3.18,3.68,10.12,0,0,0-.09-7.26-.45-8.76,0,0,9.08-6.63,9.71-10.12Z"/><path class="cls-3" d="m21.69,17.11l.71,13.41s2.89-.14,5.09-1.61c0,0-.16-8.05-.45-8.76,0,0,8.74-6.57,9.46-10.01,0,0-1.06-3.14-2-1.98-5.3,6.53-8.22,7.14-8.22,7.14l-2.49.13s0,1.26-2.09,1.68Z"/><path class="cls-8" d="m4.78,10.61l-1.39-.77s-1.7-.28-1.88-.43.48-.39,1.9-.15c0,0-2.18-1.14-2.13-1.36s1.66.35,2.3.7-2.02-1.07-1.91-1.73,2.06,1.2,2.06,1.2c0,0-1.32-1.92-.9-2s1.91,2.2,2.27,2.13-.04-1.5.76-1.53-.52.46.39,2.36c0,0-.16,1.17-1.47,1.58Z"/><path class="cls-8" d="m37.32,9.13l1.43-.68s1.71-.18,1.91-.32-.45-.41-1.89-.26c0,0,2.25-1.01,2.2-1.23s-1.68.25-2.34.56,2.08-.94,2.01-1.62-2.12,1.08-2.12,1.08c0,0,1.43-1.84,1.02-1.94s-2.04,2.08-2.39,1.99.13-1.49-.67-1.58.49.49-.53,2.34c0,0,.09,1.18,1.38,1.66Z"/><path class="cls-3" d="m5.65,11.49l-.87-.88s1.09-.04,1.47-1.58l.92.87s-.41,1.5-1.53,1.58Z"/><path class="cls-12" d="m35.94,7.47l-.76.5s1.08,1.44,1.19,1.88.94-.72.94-.72c0,0-.7-1.44-1.38-1.66Z"/><path class="cls-7" d="m26.14,11.83s2.81,1.23,1.86,3.81-1.85,2.08-2.02,4.8l-1.07-2.78s-1.23-2.96,0-3.57.32-1.71.32-1.71l.91-.56Z"/><path class="cls-2" d="m.32,24.57s7.07,0,22.65,6.81-15.91,13.13-15.91,13.13c0,0-3.7-7.06-6.74-19.95Z"/><path class="cls-2" d="m24.98,29.96s9.68-12.54,12.04-12.97c0,0,6.4,17.85,5.89,18.94s-19.03,4.38-19.03,4.38h-9.35l10.44-10.36Z"/><path class="cls-2" d="m7.51,44.35s11.92-19.03,14.78-17.68c0,0,10.07.51,20.34,9.35,0,0-12.22,4.96-35.12,8.33Z"/><path class="cls-19" d="m7.17,44.35s9.7-13.61,10.47-14.44-.87-.81-.87-.81c0,0-8.4,9.36-9.37,11.92l-.9,1.77"/><path class="cls-19" d="m42.7,35.86s-6.78-6.13-15.31-8.43l.96-1.26s13.02,6.53,14.35,9.69Z"/><ellipse class="cls-21" cx="24.24" cy="10.96" rx="1.1" ry=".83"/><ellipse class="cls-23" cx="18.54" cy="10.88" rx="1.1" ry=".83"/></g></svg>