<?xml version="1.0" encoding="UTF-8"?><svg id="Layer_2" xmlns="http://www.w3.org/2000/svg" viewBox="0 0 10.28 10.28"><defs><style>.cls-1{fill:#1f4c4e;}.cls-1,.cls-2{stroke:#112b2a;stroke-miterlimit:10;stroke-width:.25px;}.cls-2{fill:#fff;}</style></defs><g id="Layer_1-2"><path class="cls-1" d="m1.9.12h6.48c.98,0,1.78.81,1.78,1.82v6.39c0,1.01-.79,1.82-1.78,1.82H1.9c-.98,0-1.78-.81-1.78-1.82V1.95C.12.94.92.12,1.9.12Z"/><path class="cls-2" d="m1.52,4.03s-.18-.13.04-.31l.5-.45s.14-.15.3-.02l4.63,3.55v1.7s0,.27-.34.24L1.52,4.03Z"/><path class="cls-2" d="m2.72,5.12l-1.19,1.1s-.12.09,0,.26l.55.51s.13.14.33-.02l1.27-.97-.95-.87Z"/><path class="cls-2" d="m4.82,5.13l2.19-1.69v-1.69s-.11-.37-.42-.18l-2.91,2.68,1.14.88Z"/><path class="cls-2" d="m6.65,8.73c.13.13.28.09.28.09l1.71-.85c.22-.15.19-.34.19-.34V2.56c0-.22-.23-.3-.23-.3l-1.48-.72c-.32-.2-.53.04-.53.04,0,0,.27-.2.41.18v6.71s0,.09-.03.13c-.04.08-.12.15-.33.12v.02Z"/></g></svg>