<?xml version="1.0" encoding="UTF-8"?><svg id="Layer_2" xmlns="http://www.w3.org/2000/svg" viewBox="0 0 10.84 10.84"><defs><style>.cls-1{fill:#fff;stroke:#8c5153;stroke-width:.25px;}.cls-1,.cls-2{stroke-miterlimit:10;}.cls-2{fill:#a65252;stroke:#804b4f;stroke-width:.75px;}</style></defs><g id="Layer_1-2"><path class="cls-2" d="m2.16.38h6.51c.99,0,1.79.82,1.79,1.83v6.42c0,1.01-.8,1.83-1.79,1.83H2.16c-.99,0-1.79-.82-1.79-1.83V2.21C.38,1.19,1.17.38,2.16.38Z"/><path class="cls-1" d="m3.92,7.5H1.52s-.06-.02-.06-.08V3.02s.02-.06.06-.06h.74s.04.02.04.05v3.62h1.75s.05.02.04.06l-.11.75s-.01.04-.02.05-.03.01-.04.01h0Zm.6-3.45h.66s.06.02.08.07c.01.03.02.06.03.1,0,.04.01.09.02.13,0,.05,0,.1,0,.15.11-.15.25-.27.41-.37.17-.1.37-.16.56-.15.04,0,.06.02.06.06v.84s-.02.05-.06.05c-.13,0-.27,0-.4.03-.11.02-.21.06-.31.12-.07.04-.15.1-.2.16v2.2s-.02.06-.05.06h-.73s-.06-.02-.06-.07v-2.39c0-.1,0-.21,0-.32,0-.11,0-.23,0-.33,0-.1-.01-.19-.02-.29,0-.01,0-.02,0-.04.01,0,.02,0,.03,0h0Zm4.8-.64c-.09-.04-.18-.06-.28-.07-.14-.02-.29-.02-.43-.02-.41,0-.77.09-1.07.27s-.54.44-.7.75c-.17.32-.24.7-.24,1.12,0,.25.03.51.09.76.06.21.15.41.27.59.11.17.25.31.41.43s.34.21.53.26c.2.06.41.08.61.08.15,0,.29,0,.43-.03.12-.01.23-.04.34-.08.04-.02.07-.06.06-.12v-.64s0-.05-.02-.06c-.01,0-.04-.02-.07,0-.09.04-.19.06-.3.07-.12.01-.24.02-.37.02-.11,0-.22-.02-.33-.05-.11-.03-.22-.08-.32-.14-.11-.06-.19-.15-.26-.25-.08-.11-.14-.24-.18-.37-.05-.17-.07-.33-.07-.5,0-.24.04-.48.14-.69.09-.19.22-.34.39-.45.18-.11.4-.17.61-.17.13,0,.26,0,.39.04.11.02.2.05.3.1.02,0,.04,0,.06,0,.02-.02.03-.04.02-.06v-.67s-.02-.08-.05-.1h0Z"/></g></svg>