<?xml version="1.0" encoding="UTF-8"?><svg id="Layer_2" xmlns="http://www.w3.org/2000/svg" viewBox="0 0 3.65 6.91"><defs><style>.cls-1,.cls-2{fill:#fff;}.cls-2,.cls-3,.cls-4{fill-rule:evenodd;}.cls-3{fill:#a65151;}</style></defs><g id="Layer_1-2"><rect class="cls-1" x=".34" y="2.93" width="3.07" height=".53" rx=".26" ry=".26"/><polygon class="cls-3" points=".44 2.89 3.37 2.89 3.5 2.59 3.5 2.41 3.3 2.19 3.04 2.15 3.06 1.93 3.13 1.74 3.17 1.46 2.97 1.3 2.68 1.2 2.33 1.05 2.12 .95 2.02 .76 1.97 .51 2.16 .27 2.21 .14 1.99 .14 1.42 .33 1.26 .56 1.26 .82 1.29 1.02 1.29 1.17 1.2 1.24 .97 1.34 .78 1.37 .62 1.51 .61 1.65 .62 1.93 .7 2.08 .56 2.09 .36 2.14 .22 2.3 .16 2.54 .12 2.78 .23 2.93 .44 2.89"/><path class="cls-4" d="m1.91,6.08c-.06.02-.14.05-.17.06-.04.01-.06.02-.06.03,0,0,.03.1.07.21.06.19.06.28.09.28.02,0,.03,0,.04-.04.02-.08.14-.54.15-.56,0,0,0-.02,0-.02s-.06.02-.12.04h0Zm-.03-.69c-.21.08-.38.15-.39.15,0,0,.02.09.05.19.04.13.06.18.07.18.02,0,.42-.14.47-.16.04-.02.04-.02.11-.26.04-.13.07-.24.08-.24,0,0-.05,0-.39.14h0Zm.54-.93c-.24.13-.66.3-.95.41-.09.03-.17.06-.17.07,0,0,.11.36.11.36,0,0,.59-.23.86-.33l.11-.04.07-.24c.04-.13.08-.25.08-.26,0-.01,0-.02,0-.02s-.06.03-.12.06h0Zm-1.51-.76s.04.12.07.21c.03.09.05.16.05.16,0,0,.34-.12.52-.2.18-.08.45-.21.45-.21,0,0-.25,0-.55,0h-.55l.02.05h0Zm1.43.06c-.34.2-.77.39-1.12.51-.06.02-.12.04-.11.05,0,.02.1.34.11.35.02.02.62-.22.91-.36.17-.08.48-.25.51-.27,0,0,.04-.08.06-.17.03-.08.05-.17.06-.19v-.03s-.11,0-.11,0h-.12l-.19.11h0Zm-1.9-.64s0,.05,0,.07c0,.03,0,.03.03.06.04.06.09.1.16.12.05.02.06.02,1.19.02h1.07s.08,0,.12-.02h0c.07-.03.12-.06.16-.12.03-.05.05-.1.04-.15v-.03H.44v.05h0ZM1.75.35c-.2.04-.34.13-.38.24-.04.11-.02.27.06.41.07.12.23.29.34.34.07.03.1.07.1.12,0,.05-.03.09-.08.11-.06.02-.09.02-.16,0-.07-.03-.21-.13-.24-.17l-.03-.03h-.16c-.09.01-.19.02-.22.02-.08.01-.14.06-.18.12-.02.04-.03.07-.03.16,0,.1,0,.11.04.18.03.06.07.1.2.21.1.09.17.15.17.17.03.06-.02.13-.1.15-.07.02-.1,0-.26-.12l-.09-.07h-.07c-.13.02-.25.07-.31.14-.08.09-.1.28-.05.38.02.03.05.07.07.09l.04.04h1.4s1.4,0,1.4,0l.04-.04c.08-.08.12-.26.08-.35-.04-.09-.18-.17-.3-.19-.05,0-.05,0-.13.07-.07.07-.09.07-.13.08-.07,0-.13-.03-.15-.08-.02-.05,0-.09.08-.17.22-.21.31-.36.31-.5,0-.07-.02-.12-.08-.18-.06-.06-.12-.09-.31-.17-.09-.04-.22-.09-.28-.12-.49-.24-.65-.5-.49-.81.01-.02,0-.02-.1,0h0ZM2.4,0c.1,0,.12.02.16.05.04.04.06.09.04.13-.02.04-.05.07-.12.09-.17.05-.44.25-.37.39.06.12.24.23.62.39.14.06.28.13.32.15.27.17.33.44.17.74l-.04.07.08.03c.27.11.41.3.38.54,0,.1-.06.23-.11.29l-.04.05v.12c.01.19-.02.27-.13.39-.05.06-.16.13-.24.16l-.06.02-.37,1.19c-.2.66-.41,1.33-.47,1.5-.05.17-.1.4-.11.42-.02.05-.09.11-.15.14-.15.07-.35.01-.42-.11-.01-.02-.13-.46-.26-.88-.13-.42-.3-.96-.37-1.19-.07-.24-.18-.57-.23-.75-.09-.3-.1-.32-.13-.33-.08-.03-.14-.06-.21-.12-.15-.12-.21-.24-.2-.45v-.1s-.04-.06-.04-.06c-.03-.03-.06-.09-.08-.13C0,2.69,0,2.66,0,2.56c0-.3.16-.5.44-.59.05-.02.1-.03.1-.03,0,0,0-.03-.02-.06-.07-.17-.05-.39.05-.53.04-.05.13-.13.2-.16.06-.03.2-.06.31-.07.07,0,.09,0,.08-.02-.04-.07-.08-.2-.09-.27-.06-.39.19-.66.7-.73C1.87.08,2.32,0,2.4,0h0Z"/><polygon class="cls-2" points=".78 3.4 1.81 6.71 2.9 3.4 .78 3.4"/></g></svg>