<?xml version="1.0" encoding="UTF-8"?><svg id="Layer_2" xmlns="http://www.w3.org/2000/svg" viewBox="0 0 10.84 10.84"><defs><style>.cls-1{fill:#fff;stroke:#8c5153;stroke-width:.25px;}.cls-1,.cls-2{stroke-miterlimit:10;}.cls-2{fill:#a65252;stroke:#804b4f;stroke-width:.75px;}</style></defs><g id="Layer_1-2"><path class="cls-2" d="m2.16.38h6.51c.99,0,1.79.82,1.79,1.83v6.42c0,1.01-.8,1.83-1.79,1.83H2.16c-.99,0-1.79-.82-1.79-1.83V2.21C.38,1.19,1.17.38,2.16.38Z"/><path class="cls-1" d="m9.87,8.15c-.07-.46-.37-.85-1.26-1.21-.31-.14-.65-.24-.76-.48-.04-.14-.04-.21-.02-.3.07-.27.39-.35.64-.27.16.05.32.18.41.38.44-.28.43-.28.74-.47-.11-.17-.17-.25-.24-.33-.26-.29-.62-.44-1.19-.43-.1.01-.2.03-.3.04-.28.07-.56.22-.72.42-.48.54-.34,1.49.24,1.88.57.43,1.41.53,1.52.93.1.49-.36.65-.82.59-.34-.07-.53-.24-.74-.56q-.38.22-.77.44c.09.2.19.29.34.47.73.74,2.56.7,2.89-.42.01-.04.1-.3.03-.69Zm-3.78-3.05h-.94c0,.81,0,1.62,0,2.44,0,.52.03.99-.06,1.14-.14.29-.5.25-.66.2-.17-.08-.25-.2-.35-.36-.03-.05-.05-.08-.05-.09-.26.16-.51.31-.77.47.13.26.32.49.56.64.36.22.84.28,1.35.17.33-.1.61-.29.76-.6.21-.4.17-.88.17-1.41,0-.86,0-1.73,0-2.6h0Z"/></g></svg>