<?xml version="1.0" encoding="UTF-8"?><svg id="Layer_2" xmlns="http://www.w3.org/2000/svg" viewBox="0 0 134.2 138.18"><defs><style>.cls-1{stroke-width:2px;}.cls-1,.cls-2,.cls-3,.cls-4,.cls-5,.cls-6,.cls-7,.cls-8,.cls-9,.cls-10,.cls-11,.cls-12,.cls-13,.cls-14,.cls-15,.cls-16,.cls-17{stroke-miterlimit:10;}.cls-1,.cls-2,.cls-3,.cls-4,.cls-8,.cls-12,.cls-14,.cls-15,.cls-16,.cls-17{stroke:#1c232b;}.cls-1,.cls-4,.cls-10,.cls-13{fill:#a65252;}.cls-1,.cls-13{opacity:.49;}.cls-2,.cls-3,.cls-7,.cls-9,.cls-11,.cls-12,.cls-17{stroke-width:.5px;}.cls-2,.cls-6,.cls-18,.cls-15{fill:#fff;}.cls-3{fill:#f7f7f7;}.cls-4,.cls-5,.cls-8,.cls-13,.cls-15{stroke-width:.75px;}.cls-5,.cls-7{fill:#d3a1a2;stroke:#d3a1a2;}.cls-6,.cls-9,.cls-10{stroke:#231f20;}.cls-19{fill:#63823b;}.cls-19,.cls-20,.cls-21,.cls-22,.cls-18,.cls-23,.cls-24,.cls-25,.cls-26,.cls-27{stroke-width:0px;}.cls-8,.cls-14,.cls-17{fill:#fcc295;}.cls-20{fill:#0a0606;}.cls-28{opacity:.07;}.cls-9,.cls-26{fill:#d18b57;}.cls-21{fill:#501315;}.cls-11{stroke:#bd8e5a;}.cls-11,.cls-12,.cls-16{fill:none;}.cls-22{opacity:.14;}.cls-22,.cls-25{fill:#7c7779;}.cls-23{fill:#0b111a;}.cls-24{opacity:.32;}.cls-24,.cls-27{fill:#edbfd9;}.cls-13{stroke:#000;}.cls-25{opacity:.21;}.cls-14,.cls-16{stroke-width:.25px;}.cls-27{opacity:.34;}</style></defs><g id="Layer_1-2"><path class="cls-13" d="m.99,75.79s1.7-13.75,10.15-20.75c8.44-7,38.35-35.49,38.35-35.49l56.99,23.02s10.75,4.6,8.53,9.75C78.12,138.04.99,75.79.99,75.79Z"/><polyline class="cls-1" points="84.08 62.08 115.01 52.32 129.22 94.25 22.63 124.49 1.4 75.79 52.1 64.19"/><path class="cls-10" d="m79.83,33.89s2.6.79,1.49,2.46-3.8,1.72-3.8,1.72l2.32-4.18Z"/><path class="cls-8" d="m62.17,44.37s1.53,4.44-1.83,5.02c0,0,1.78,6.51,6.97,5.28,5.19-1.22,7.17-3.86,6.67-7.28l-1.83-.52v-3.93s-.86,2.83-4.32,3.03-5.65-1.61-5.65-1.61Z"/><polygon class="cls-26" points="77.14 37.14 81.14 23.65 85.49 25.22 78.51 37.14 77.14 37.14"/><path class="cls-26" d="m82.39,15.66s7.02,3.46,2.42,11.64-9.32,7.47-9.32,7.47l-8.25-15.77,15.15-3.33Z"/><path class="cls-14" d="m50.16,22.28c.04-1.12-5.66,4.12,0,8.97,5.82,4.98,0-8.97,0-8.97Z"/><path class="cls-17" d="m52.83,31.97c.17,2.25.91,4.42,2.17,6.29,1.5,2.23,4.8,4.14,6.46,6.7,3.59,5.54,8.53,4.85,11.03.26,1.98-3.63,5.99-2,9.12-18.59,0,0,.78-3.47.78-4.6s-18.93.17-24.75-11.47c0,0-5.8,8.03-4.81,21.41Z"/><path class="cls-23" d="m77.14,24.43s2.87.41,4-.78c0,0-.55,1.18-2.55,1.49s2.43-.03,2.95-.74,0,.94-2.49,1.23"/><path class="cls-3" d="m70.43,26.22s-1.45,2.2.9,2.43c1.76.17,3.85.09,4.78.03.52-.03,1.03-.15,1.49-.38.98-.48,2.92-3.19,0-3.68-5.73-.96-7.18,1.59-7.18,1.59Z"/><circle class="cls-19" cx="74.57" cy="26.59" r="1.96"/><circle class="cls-20" cx="74.56" cy="26.59" r=".93"/><path class="cls-23" d="m58.98,24.43s-2.87.41-4-.78c0,0,.55,1.18,2.55,1.49s-2.43-.03-2.95-.74,0,.94,2.49,1.23"/><path class="cls-3" d="m65.7,26.22s1.45,2.2-.9,2.43c-1.76.17-3.85.09-4.78.03-.52-.03-1.03-.15-1.49-.38-.98-.48-2.92-3.19,0-3.68,5.73-.96,7.18,1.59,7.18,1.59Z"/><circle class="cls-19" cx="61.56" cy="26.59" r="1.96"/><circle class="cls-20" cx="61.56" cy="26.59" r=".93"/><path class="cls-11" d="m69.32,28.02s-.87,4.34,0,5.65"/><path class="cls-11" d="m64.49,34.77s-.17.17-.29.43c-.27.61.31,1.27.96,1.12.01,0,.03,0,.04,0,.29-.08.6,0,.8.22.45.48,1.22,1.01,2,.12.25-.28.65-.38.99-.23.32.15.74.14,1.17-.43.03-.04.06-.08.08-.12.09-.18.24-.65-.22-1.1"/><path class="cls-21" d="m61.39,40.16s2.56,3.18,4.53,3.27c1.97.09,4.02-.22,6.46-3.73l-5.74,1.31-5.25-.85Z"/><path class="cls-7" d="m61.96,39.95c.67-.28,8.08-1.28,9.99-.44,0,0-5.56,2.16-9.99.44Z"/><path class="cls-5" d="m63.26,42.39s.82,1.6,3.48,1.78,3.56-1.76,4.31-2.39c.69-.59-3.52,3.71-7.79.61Z"/><path class="cls-18" d="m62.01,40.26l1.11,1.17s5.53.63,8.34-.86l.35-.63s-6.78,1.08-9.8.32Z"/><path class="cls-12" d="m61.39,40.16s5.55,1.17,11.04-.54c0,0-2.15,4.1-5.86,3.88,0,0-1.96.36-5.18-3.34Z"/><path class="cls-21" d="m65.05,20.78s-.03,1.85-.78,1.42-3.3-1.7-6.11-.68l-2.29,1.05s2.08-2.9,4.31-2.84,3.45.43,4.86,1.04Z"/><path class="cls-21" d="m70.85,21.33s.03,1.85.78,1.42,3.3-1.7,6.11-.68l2.29,1.05s-2.08-2.9-4.31-2.84-3.45.43-4.86,1.04Z"/><path class="cls-26" d="m77.14,19.68l4.16,9.22,1.22-9.91s-.59,1.3-5.37.69Z"/><path class="cls-26" d="m60.46,9.3s-7.48-1.54-7.36,31.03l.64,6.63s-7.47-11.03-3-34.95l9.72-2.72Z"/><path class="cls-26" d="m52.14,6.24s-5.85,6.68-2.53,16.82c.73,2.22,6.75-11.6,6.75-11.6v-3.04l2.63-1.72h3.28s0-7.91-10.14-.46Z"/><path class="cls-26" d="m85.39,20.77c-.83-6-1.06-5.66-2.05-6.65-.16-.06-.3-.16-.39-.29-.49-.05-.76-.49-.75-.89-.12-.17-.19-.37-.19-.57-.34-.56-.72-1.28-1.17-2.22-7.83-16.49-21.47-7.45-21.47-7.45-12.81,4.7-8.53,7.12-10.24,22.16-1.62,14.24,5.73,22.76,2.43-3.21,0,0,2.75-14.18,6.15-9.97,7.67,9.51,16.23,10.69,20.92,10.48,1.84,1.41,7.69,5.42,6.76-1.38Z"/><path class="cls-12" d="m56.42,9.13c1.67,4.16,12.16,15.72,27.45,12.51"/><path class="cls-12" d="m52.56,15.42s-8.65,11.95,1.42,31.75c0,0-3.45-21.23,3.37-36.32"/><path class="cls-16" d="m56.42,4.96s16.68-15.29,25.88,8.51"/><path class="cls-16" d="m79.52,12.08s5.56,1.56,5.73,6.6"/><path class="cls-16" d="m49.63,23.16s-5.47-17.55,9.96-20.47"/><polyline class="cls-16" points="78.51 22.19 81.37 29.09 82.39 22.03"/><path class="cls-16" d="m79.15,36.22l6.11-9.9c4-8.69-2.95-9.38-2.95-9.38"/><path class="cls-14" d="m80.13,33.11c4.33-2,3.49-6.96,1.81-8.12l-1.81,8.12Z"/><g class="cls-28"><path class="cls-26" d="m68.88,31.58s-.57-.45-.28-.18c.18.16.39.32.59.46.19.13.39.23.59.34.75.39,1.39.49,2.23.56.97.08,1.97.08,2.94.08.52,0,1.05.03,1.56-.01.27-.02.54-.06.8-.11.2-.03.09-.02-.32.04l.66-.09c.25-.06.48-.2.72-.29-.14.05-.58.23-.18.09.23-.08,1.31-.44.17-.15s.02.08.27.03c.36-.07.78-.21,1.08-.41.12-.06.08-.05-.12.04-.28.12-.24.1.12-.05.2-.08.34-.14.5-.26.21-.14.41-.31.6-.47.16-.14.47-.33-.13.08,1.08-.74,1.66-2.23.9-3.42-.69-1.07-2.27-1.69-3.42-.9-.27.19-.55.39-.79.62s.18-.13.22-.15l.38-.15-.6.25c-.31.14.13-.05.21-.08-.36.11.2,0,.28-.01-.55.06-.94.15-1.45.39.05-.03.59-.23.26-.13-.21.07-.56.16-.72.3l.9-.23-.66.09c-.37.06.22,0,.25-.03-.07.08-.57,0-.68,0-.27,0-.54,0-.81,0-.86,0-1.74,0-2.59-.04-.19,0-.37-.05-.56-.05-.31,0,.54.08.24.02-.27-.06.44.24.2.07-.09-.06-.19-.1-.28-.15-.09-.05-.39-.27-.03.01.31.24.16.11.08.03-.17-.17-.4-.34-.6-.47-1.12-.68-2.8-.28-3.42.9s-.29,2.69.9,3.42h0Z"/></g><g class="cls-28"><path class="cls-26" d="m64.1,28.79c-.08.1-.13.21-.15.34-.06.11-.1.22-.14.34l-.09.66s0,.05,0,.07c0,.29.08.59.13.88l-.09-.66c.03.26.06.52.1.78.03.18.09.29.16.47.06.15.11.29.2.43.04.06.07.11.1.18l-.25-.6c.05.13.09.26.12.4l-.09-.66c.03.22.02.46,0,.69l.09-.66c0,.05-.02.1-.04.16l.25-.6c-.03.07-.06.14-.11.2l.39-.51c-.3.37-.54.73-.8,1.12l.39-.51s-.04.05-.07.07l.51-.39c-.46.35-.76.54-1.05,1.05-.15.26-.23.55-.34.82l.25-.6s-.03.06-.05.09l.39-.51-.02.02.51-.39s-.04.02-.06.03l.6-.25h-.03c1.03,1.03,2.05,2.06,3.08,3.08v-.04c-.07.2-.16.4-.24.6.02-.04.05-.08.08-.12l-.39.51c.23-.27.52-.6.68-.93.27-.54.57-1.1.53-1.73-.04-.67-.25-1.29-.73-1.77-.43-.43-1.15-.76-1.77-.73s-1.32.24-1.77.73-.77,1.11-.73,1.77v.05c.03-.22.06-.44.09-.66v.04c.07-.2.16-.4.24-.6-.12.26-.24.5-.41.73l.39-.51c-.36.44-.65.77-.79,1.33-.22.87,0,1.79.64,2.43.31.31.68.52,1.1.64.44.12.89.12,1.33,0,.67-.13,1.29-.67,1.63-1.24.15-.26.24-.55.35-.83l-.25.6s.03-.06.05-.09l-.39.51s.03-.04.06-.06l-.51.39c.2-.16.44-.3.62-.48.19-.19.35-.44.5-.67.09-.13.17-.28.26-.41l-.39.51c.18-.22.38-.44.52-.68.02-.03.03-.07.05-.11.1-.21.22-.45.28-.67.1-.38.12-.78.12-1.18,0-.2-.03-.39-.06-.59-.03-.21-.05-.38-.11-.57-.09-.28-.19-.56-.33-.81-.05-.09-.11-.16-.15-.25l.25.6c-.02-.06-.03-.11-.04-.17l.09.66c-.03-.33-.08-.65-.14-.97l.09.66s0-.06,0-.1l-.09.66v-.04c-.07.2-.15.4-.24.6l.03-.04c.18-.29.28-.6.3-.93.07-.33.06-.66-.04-1-.16-.58-.61-1.21-1.15-1.49-.58-.31-1.28-.46-1.93-.25l-.6.25c-.38.22-.67.52-.9.9h0Z"/></g><g class="cls-28"><path class="cls-26" d="m54.85,24.67c1.02.63,2.2.44,3.31.26l-.66.09c.51-.04.97-.05,1.49-.13l-.66.09c.73-.05,1.49,0,2.22,0,.69,0,1.44-.08,2.13,0l-.66-.09c.19.05.37.11.56.15.1.03.2.06.31.08.64.13-1.27-.92-.39-.24.28.22.81.63,1.15.59l.1.03-.49-.2s.08.04.12.07c.34.22.1-.02-.72-.73l2.16-3.76c-.1.01-.2.01-.29,0l.66.09c-.29-.05-.56-.15-.84-.24-.12-.04-.25-.07-.37-.09-.41-.08.49.11.21.09-.33-.03-.73-.33-1.1-.39-.49-.08-1-.14-1.5-.19-1.34-.14-2.65,0-3.97.22-.58.1-1.21.66-1.49,1.15-.31.54-.45,1.33-.25,1.93.45,1.39,1.69,1.98,3.08,1.75.17-.03.33-.08.51-.11l-.66.09c1.21-.15,2.43-.08,3.63.08l-.66-.09c.08.01.2.05.28.05.27,0-.58-.25-.22-.08s.7.29,1.07.39c.64.17,1.23.4,1.92.36.89-.05,1.7-.45,2.16-1.24s.39-1.69,0-2.52c-.23-.49-.73-.87-1.19-1.13-.25-.14-.58-.18-.81-.33l.4.18c.48.38.41.33-.2-.14-.72-.44-1.93-.7-2.76-.73-.73-.03-1.46.02-2.19.02-.9,0-1.79-.02-2.68.12l.66-.09c-.21.02-.42,0-.63.02-.39.02-.77.11-1.15.16l.66-.09c-.23.01-.46.03-.69.02l.66.09c-.25-.05-.15,0,.31.15-1.11-.69-2.8-.28-3.42.9s-.29,2.69.9,3.42h0Z"/></g><g class="cls-28"><path class="cls-26" d="m51.47,27.63c-.06-.33-.05.56-.05.59,0,.27.05.57.01.84.05-.36,0-.17-.09.06-.12.34-.17.66-.22,1.02.12-.82-.06.58-.07.72-.01.36,0,.72,0,1.09.01.67-.01,1.34.11,2,.03.15.27.74.1.23.12.37.14.85.22,1.23-.09-.45.16.92.21,1.11.34,1.3.96,2.69,2.01,3.56.39.32.92.46,1.29.76.33.27.56.77.87,1.17.18.24.36.47.58.67.1.09.83.67.61.48-.31-.27.16.21.22.31.21.3.42.59.65.87.27.33.59.61.9.91.21.21.44.4.65.61-.24-.23.21.23.28.33.7.99,1.43,1.82,2.07,2.62l1.1-4.18-.21.09c-1.25.51-2.13,1.66-1.75,3.08.33,1.19,1.82,2.26,3.08,1.75l.21-.09c1.84-.75,2.35-2.61,1.1-4.18.26.33-.38-.43-.46-.51-.03-.04-.35-.38-.25-.26-.24-.29-.58-.84-.89-1.27-.62-.84-1.44-1.43-2.13-2.21-.37-.42.3.46-.24-.36-.14-.2-.27-.4-.43-.59-.18-.23-.36-.41-.58-.6-.88-.75-.25-.02-.61-.52-.13-.17-.57-.84-.83-1.17-.44-.54-.99-.98-1.59-1.33-.07-.04-.64-.38-.67-.35.13-.11.54.74.12-.1-.09-.18-.19-.65-.31-1.02-.19-.6.11.71-.06-.24,0,0-.24-.9-.15-.56-.11-.43-.18-1.13-.2-1.35-.03-.65-.04-1.31-.02-1.96-.02.44.06-.52.06-.53-.18.55.11-.07.14-.18.33-1.16.24-2.66.03-3.83-.24-1.33-1.86-2.08-3.08-1.75-1.4.39-1.98,1.74-1.75,3.08h0Z"/></g><g class="cls-28"><path class="cls-26" d="m54.86,11.33c.07.71.22,1.33.6,1.94.27.44.63.82.93,1.24.16.23-.27-.39,0,.05.43.56.52.68.27.35l.12.19c.24.38.5.75.75,1.12.28.42.59.84.93,1.21.2.21.42.39.66.56.2.15.4.22.09.02.49.32.88.72,1.41.98.48.24.98.47,1.48.66.15.06.32.09.47.16-.55-.26,0,.07.1.11.21.11.22.1.04-.03-.29-.24-.17-.15.38.28.11.08.22.15.34.22.3.18.59.38.9.54-.34-.17,1.23.53.62.25.2.09.41.19.61.3,1.65.89,3.01,2.14,4.97,2.24,1.31.07,2.56-1.2,2.5-2.5-.06-1.41-1.1-2.43-2.5-2.5.88.05-.26-.03.22.07.35.07-.11-.08-.21-.14-.3-.17-.58-.37-.88-.55-.59-.34-1.16-.74-1.77-1.04-.43-.22-.88-.42-1.34-.59-.3-.12.31.23-.05-.06-.13-.1-.27-.18-.41-.26-.02-.01-.36-.21-.36-.21-.05.08.87.46-.31-.23-.33-.2-.7-.39-1.05-.54-.22-.09-.42-.17-.65-.25-.25-.08-.17-.08.02.02-.33-.17-.67-.31-.99-.49-.2-.14-.24-.16-.09-.05.11.08.11.08,0,0-.19-.23-.5-.37-.74-.56-.4-.3.31.16.08.03-.07-.04-.29-.39-.03-.01-.21-.31-.4-.63-.61-.94-.27-.4-.68-.84-.89-1.25.09.17.15.2.03,0-.15-.24-.38-.49-.56-.72-.16-.2.21.34-.03-.06-.28-.46-.13-.58-.03.42-.13-1.3-1.06-2.56-2.5-2.5-1.24.06-2.64,1.11-2.5,2.5h0Z"/></g><g class="cls-28"><path class="cls-26" d="m57.44,12.47c.65.77,1.26,1.55,2,2.23.85.77,1.35,1.7,2.35,2.3.81.48,1.6.98,2.37,1.53.95.67,1.63,1.61,2.55,2.32,1.7,1.31,3.7,1.86,5.81,2.15s4.32,1.3,6.4.68c.79-.23.45-1.33-.33-1.21-1.03.17-2.24.01-3.28,0-.64,0-1.05-.07-1.56-.49-.36-.31-.6-.59-1.05-.78-.87-.38-1.91-.54-2.85-.67-1.06-.15-2.79-.06-3.08-1.32l-.6.79c1.21.09,2.03.82,2.99,1.45s2.04.97,3.14,1.24,2.31.53,3.49.62c.99.07,2.23.21,3.18-.17.74-.29.42-1.5-.33-1.21-.91.36-2.26.19-3.22.09-1.28-.14-2.58-.43-3.8-.81-1.13-.35-1.94-.96-2.88-1.62-.71-.5-1.7-.78-2.57-.84-.42-.03-.69.42-.6.79.62,2.76,4.37,1.93,6.41,2.74.61.24.89.75,1.45,1.05.48.26.98.38,1.52.41,1.26.06,2.73.16,3.97-.05l-.33-1.21c-1.83.55-4.07-.43-5.89-.7-2.24-.33-4.33-.93-5.95-2.6-1.25-1.28-2.65-2.27-4.19-3.18-.96-.57-1.56-1.53-2.36-2.29-.69-.65-1.26-1.39-1.87-2.12-.52-.62-1.4.27-.88.88h0Z"/></g><g class="cls-28"><path class="cls-26" d="m54.99,11.98c.03.97-.08,1.09-.33,2.06-.19.72-.33,1.44-.58,2.14-.73,2.05-1.64,3.99-2.08,6.14s-1.02,4.26-1.12,6.47c-.04.84-.06,1.67-.22,2.5-.23,1.13-.65,2.3-.56,3.36.11,1.35,1.07,2.5,2.5,2.5,1.27,0,2.61-1.15,2.5-2.5.05.58,0-.15.04-.39.04-.21.08-.42.13-.63.11-.49.23-.99.31-1.49.18-1.05.27-2.11.31-3.18.06-2.06.63-4.08,1.14-6.14s1.51-3.77,2.05-5.74c.19-.69.33-1.4.51-2.09.13-.51.27-.99.33-1.52-.06.51.04-.35.05-.4.05-.38.05-.72.04-1.1-.09-3.21-5.09-3.22-5,0h0Z"/></g><g class="cls-28"><path class="cls-26" d="m54.69,11.46c0,.16,0,.32,0,.48.07-.46.06-.52-.02-.18-.09.29-.11.6-.17.89-.12.58-.31,1.17-.49,1.74-.1.31-.21.62-.32.93-.14.42.06-.06-.17.38-.39.75-.57,1.5-.79,2.3-.37,1.32-.63,2.63-1.11,3.91s-.86,2.62-1.11,3.95.35,2.76,1.75,3.08c1.23.28,2.82-.37,3.08-1.75s.64-2.68,1.11-3.95c.5-1.36.8-2.76,1.18-4.15.09-.32.13-.68.25-.99-.06.21-.03.17.09-.12.13-.28.25-.56.36-.84.24-.61.46-1.24.63-1.88.34-1.23.75-2.52.73-3.8s-1.14-2.56-2.5-2.5-2.52,1.1-2.5,2.5h0Z"/></g><path class="cls-4" d="m113.35,30.75s-2.14-3.65-4.42-5.14c-.47,1.8-1.98,3.19-3.41,4.29-.99.76-2.03,1.47-3.1,2.14-.38.54-.8,1.05-1.33,1.46-.28.21-.57.2-.8.07-.28.25-.56.5-.82.76-1.9,1.92-3.71,3.88-5.62,5.74-.19.4-.38.8-.59,1.19-.24.47-.71.54-1.06.36-1.2,1.09-2.45,2.13-3.8,3.08-.32.22-.73.15-.99-.07-.08.09-.17.19-.25.28-.34.36-.81.31-1.11.07-.09.08-.18.16-.25.23-3.37,3.09-11.78,2.27-11.78,2.27,0,0-2.93,10.31-13.67,1.9l-10.23.23-11.35-5.24-15.31-14.47s-6.18,3.37-5.62,6.6c.56,3.23,17.7,18.54,17.7,18.54,0,0,14.33,8.99,16.58,9.13,2.25.14.98,9.69.98,9.69,0,0,.28,1.55,1.4,5.2s-1.12,10.12-1.12,10.12c0,0,9.83,11.38,31.33,0,0,0-.28-22.48-1.4-27.11,0,0,28.1-20.51,30.06-31.33Z"/><path class="cls-15" d="m67.55,52.69l2.18,41.49s8.95-.43,15.75-4.99c0,0-.49-24.92-1.4-27.11,0,0,27.06-20.32,29.27-30.97,0,0-3.27-9.71-6.18-6.12-16.41,20.21-25.44,22.09-25.44,22.09l-7.71.41s0,3.89-6.46,5.19Z"/><path class="cls-14" d="m15.21,32.59l-4.3-2.37s-5.26-.87-5.83-1.34,1.48-1.2,5.89-.47c0,0-6.76-3.52-6.58-4.2s5.13,1.08,7.12,2.17-6.25-3.3-5.9-5.37c.36-2.07,6.36,3.72,6.36,3.72,0,0-4.07-5.94-2.79-6.18s5.91,6.8,7.03,6.6-.14-4.63,2.35-4.75-1.61,1.41,1.2,7.32c0,0-.48,3.63-4.56,4.88Z"/><path class="cls-14" d="m115.93,28l4.44-2.11s5.3-.55,5.9-.99-1.41-1.28-5.86-.82c0,0,6.96-3.12,6.82-3.8s-5.19.77-7.24,1.74,6.44-2.92,6.21-5.01-6.57,3.33-6.57,3.33c0,0,4.42-5.68,3.15-6.01s-6.31,6.44-7.41,6.17.41-4.62-2.06-4.88,1.52,1.5-1.63,7.23c0,0,.27,3.65,4.26,5.14Z"/><path class="cls-2" d="m17.9,35.29l-2.69-2.71s3.36-.14,4.56-4.88l2.86,2.68s-1.28,4.63-4.73,4.9Z"/><path class="cls-4" d="m111.67,22.86l-2.34,1.56s3.34,4.47,3.7,5.81,2.9-2.23,2.9-2.23c0,0-2.15-4.47-4.26-5.14Z"/><path class="cls-9" d="m81.31,36.35s8.7,3.81,5.75,11.8c-2.95,7.99-5.73,6.43-6.25,14.85l-3.3-8.6s-3.82-9.16,0-11.05,1-5.28,1-5.28l2.81-1.72Z"/><path class="cls-6" d="m1.4,75.79s21.89-.02,70.09,21.08c48.21,21.11-49.25,40.65-49.25,40.65,0,0-11.47-21.84-20.85-61.73Z"/><path class="cls-6" d="m77.75,92.44s29.97-38.82,37.26-40.13c0,0,19.8,55.24,18.24,58.63-1.56,3.39-58.89,13.55-58.89,13.55h-28.92l32.31-32.05Z"/><path class="cls-6" d="m22.24,137.52s38.3-59.41,47.16-55.24c0,0,32.05,1.3,63.84,28.66,0,0-40.13,16.16-111,26.58Z"/><path class="cls-25" d="m22.24,138.04s31.11-46.56,34.55-47.29-3.24-1.26-3.24-1.26c0,0-28.29,38.65-31.31,46.56v1.48"/><path class="cls-22" d="m132.58,110.71s-21.87-20.24-48.76-25.94l3.28-4.04s43.14,20.54,45.49,29.98Z"/><ellipse class="cls-24" cx="75.44" cy="33.67" rx="3.41" ry="2.55"/><ellipse class="cls-27" cx="57.81" cy="33.4" rx="3.41" ry="2.55"/></g></svg>