<?xml version="1.0" encoding="UTF-8"?><svg id="Layer_2" xmlns="http://www.w3.org/2000/svg" viewBox="0 0 8.41 6.94"><defs><style>.cls-1{fill:#fff;}.cls-2{fill:none;stroke:#a65151;}.cls-2,.cls-3{stroke-miterlimit:10;stroke-width:.25px;}.cls-3{stroke:#fff;}</style></defs><g id="Layer_1-2"><rect x="0" y="1.54" width="8.39" height="5.4" rx=".55" ry=".55"/><path d="m3.45,0h2.95c.21,0,.37.17.37.37v1.21s-.02.04-.04.04h-3.65V.37c0-.21.17-.37.37-.37Z"/><rect class="cls-2" x="0" y="2.51" width="8.4" height="0"/><rect class="cls-2" x="0" y="6.13" width="8.4" height="0"/><ellipse class="cls-3" cx="5.2" cy="4.35" rx="1.78" ry="1.94"/><rect x=".91" y=".81" width="1.19" height=".8"/><ellipse class="cls-1" cx="5.2" cy="4.35" rx=".95" ry="1.04"/><path class="cls-1" d="m3.65.34h2.58c.13,0,.24.11.24.24v.93h-3.09v-.9c0-.15.12-.27.27-.27Z"/></g></svg>