<?xml version="1.0" encoding="UTF-8"?><svg id="Layer_2" xmlns="http://www.w3.org/2000/svg" viewBox="0 0 6.66 5.49"><defs><style>.cls-1{fill:#fff;}.cls-2{fill:none;stroke:#a65151;}.cls-2,.cls-3{stroke-miterlimit:10;stroke-width:.25px;}.cls-3{stroke:#fff;}</style></defs><g id="Layer_1-2"><rect x="0" y="1.22" width="6.64" height="4.27" rx=".55" ry=".55"/><path d="m2.81,0h2.18c.21,0,.37.17.37.37v.87s-.02.04-.04.04h-2.88V.37c0-.21.17-.37.37-.37Z"/><rect class="cls-2" x="0" y="1.98" width="6.65" height="0"/><rect class="cls-2" x="0" y="4.85" width="6.65" height="0"/><ellipse class="cls-3" cx="4.12" cy="3.44" rx="1.41" ry="1.54"/><rect x=".72" y=".64" width=".95" height=".63"/><ellipse class="cls-1" cx="4.12" cy="3.44" rx=".75" ry=".82"/><path class="cls-1" d="m2.95.27h1.93c.13,0,.24.11.24.24v.69h-2.44v-.65c0-.15.12-.27.27-.27Z"/></g></svg>