<?xml version="1.0" encoding="UTF-8"?><svg id="Layer_2" xmlns="http://www.w3.org/2000/svg" viewBox="0 0 12.3 12.3"><defs><style>.cls-1{fill:#fff;stroke:#8c5153;stroke-width:.2px;}.cls-1,.cls-2{stroke-miterlimit:10;}.cls-2{fill:#a65252;stroke:#804b4f;stroke-width:.25px;}</style></defs><g id="Layer_1-2"><path class="cls-2" d="m2.26.12h7.78c1.18,0,2.13.98,2.13,2.19v7.67c0,1.21-.95,2.19-2.13,2.19H2.26c-1.18,0-2.13-.98-2.13-2.19V2.31C.12,1.1,1.08.12,2.26.12Z"/><path class="cls-1" d="m4.96,7.33h-1.87l-.38,1.22s-.05.08-.1.07h-.94c-.06,0-.07-.03-.06-.09l1.62-4.75c.02-.05.03-.1.05-.16.02-.11.03-.22.03-.33,0-.03.02-.05.04-.06h1.3s.06.02.07.04l1.83,5.25c.02.06,0,.08-.05.08h-1.05s-.07-.02-.08-.06l-.41-1.24v.03h0Zm-1.58-1.02h1.28c-.03-.11-.07-.24-.12-.37-.05-.14-.09-.29-.14-.44-.05-.16-.1-.31-.15-.47s-.1-.31-.14-.46c-.04-.14-.08-.28-.11-.4h-.01c-.05.22-.1.44-.17.66-.08.25-.15.5-.23.76-.07.26-.15.5-.22.72h0Zm6.12.56h-1.59c.02.16.07.32.16.46.09.14.22.25.37.31.2.09.42.13.64.13.18,0,.35-.02.52-.06.16-.02.31-.06.45-.12.03-.02.04-.01.04.04v.79s0,.04-.01.06c-.01.02-.02.03-.04.04-.16.07-.33.12-.5.15-.24.05-.47.07-.71.06-.38,0-.7-.06-.96-.18-.25-.11-.46-.28-.63-.49-.16-.2-.28-.43-.35-.67-.07-.24-.11-.49-.11-.75,0-.28.04-.55.13-.82.08-.26.21-.49.38-.71.17-.21.37-.37.61-.49s.52-.16.84-.16c.27,0,.53.05.78.16.21.09.39.23.53.41.13.18.24.37.3.59.07.21.1.42.1.63,0,.12,0,.23-.01.33-.01.1-.02.17-.02.22,0,.04-.04.07-.07.07-.03,0-.09,0-.17.01-.08.01-.18.02-.29.02s-.24-.02-.37-.02h0Zm-1.59-.75h1.06c.13,0,.23,0,.29,0,.04,0,.08-.02.12-.04v-.05c0-.07-.01-.13-.03-.19-.09-.29-.36-.48-.65-.47-.28-.02-.54.13-.67.39-.06.12-.1.24-.11.37h0Z"/></g></svg>