<?xml version="1.0" encoding="UTF-8"?><svg id="Layer_2" xmlns="http://www.w3.org/2000/svg" viewBox="0 0 1641 760.14"><defs><style>.cls-1{letter-spacing:0em;}.cls-2{fill:#4083e3;}.cls-2,.cls-3,.cls-4,.cls-5,.cls-6,.cls-7,.cls-8,.cls-9,.cls-10,.cls-11,.cls-12{stroke-miterlimit:10;}.cls-13{letter-spacing:0em;}.cls-14{font-family:ShowcardGothic-Reg, 'Showcard Gothic';stroke:#000;stroke-width:6px;}.cls-14,.cls-15,.cls-16,.cls-17{font-size:118.39px;}.cls-3{fill:#e92e19;}.cls-18,.cls-7,.cls-10,.cls-11{letter-spacing:0em;}.cls-19{letter-spacing:0em;}.cls-20,.cls-5,.cls-9{letter-spacing:0em;}.cls-21{letter-spacing:0em;}.cls-22{letter-spacing:0em;}.cls-4{fill:#4ab11a;}.cls-23{letter-spacing:-.01em;}.cls-5,.cls-10{fill:#481081;}.cls-24{letter-spacing:-.05em;}.cls-25{fill:#fff;stroke-width:0px;}.cls-26{letter-spacing:-.03em;}.cls-6,.cls-11{fill:#f8fa31;}.cls-15{font-family:GillSans-UltraBold, 'Gill Sans Ultra Bold';}.cls-15,.cls-16{font-weight:700;}.cls-7,.cls-9,.cls-12{fill:#ed871f;}.cls-16{font-family:CarlMarx-Bold, CarlMarx;}.cls-8{fill:#8a29fc;}.cls-17{font-family:Bungee-Regular, Bungee;}.cls-27{letter-spacing:-.04em;}.cls-28{font-size:83.04px;}.cls-28,.cls-29{font-family:MyriadPro-Regular, 'Myriad Pro';}.cls-29{font-size:127.03px;}.cls-30{letter-spacing:0em;}.cls-31{letter-spacing:0em;}</style></defs><g id="Layer_1-2"><rect class="cls-25" width="1641" height="760.14" rx="12" ry="12"/><text class="cls-28" transform="translate(526.86 111.53)"><tspan class="cls-26" x="0" y="0">F</tspan><tspan x="37.87" y="0">o</tspan><tspan class="cls-13" x="83.45" y="0">n</tspan><tspan class="cls-1" x="129.21" y="0">ts </tspan><tspan class="cls-23" x="207.18" y="0">C</tspan><tspan x="254.42" y="0">onside</tspan><tspan class="cls-30" x="486.84" y="0">r</tspan><tspan class="cls-31" x="513.16" y="0">ed</tspan></text><text class="cls-17" transform="translate(258.1 285.7)"><tspan x="0" y="0">kids we</tspan><tspan class="cls-27" x="527.64" y="0">a</tspan><tspan x="609.33" y="0">ther</tspan><tspan class="cls-22" x="942.22" y="0"> </tspan><tspan x="968.27" y="0">ap</tspan><tspan class="cls-19" x="1135.43" y="0">p</tspan></text><text class="cls-16" transform="translate(393.42 419.79) scale(1.48 1)"><tspan x="0" y="0">Kids weather app</tspan></text><text class="cls-15" transform="translate(247.99 561.32) scale(.96 1)"><tspan x="0" y="0">Kids </tspan><tspan class="cls-24" x="368.8" y="0">w</tspan><tspan x="480.13" y="0">e</tspan><tspan class="cls-21" x="562.8" y="0">a</tspan><tspan class="cls-20" x="645.46" y="0">ther app</tspan></text><text class="cls-14" transform="translate(323.39 700.66) scale(.96 1)"><tspan class="cls-3" x="0" y="0">K</tspan><tspan class="cls-12" x="86.42" y="0">i</tspan><tspan class="cls-6" x="131.28" y="0">d</tspan><tspan class="cls-4" x="214.63" y="0">s</tspan><tspan x="274.17" y="0"> </tspan><tspan class="cls-2" x="297.87" y="0">w</tspan><tspan class="cls-10" x="419.9" y="0">e</tspan><tspan class="cls-8" x="485.62" y="0">a</tspan><tspan class="cls-3" x="558.46" y="0">t</tspan><tspan class="cls-9" x="632.45" y="0">h</tspan><tspan class="cls-11" x="724.54" y="0">e</tspan><tspan class="cls-5" x="790.26" y="0">r</tspan><tspan class="cls-18" x="871.25" y="0"> </tspan><tspan class="cls-8" x="894.95" y="0">a</tspan><tspan class="cls-3" x="967.78" y="0">p</tspan><tspan class="cls-7" x="1046.51" y="0">p</tspan></text><text class="cls-29" transform="translate(140.58 285.79)"><tspan x="0" y="0">1.</tspan></text><text class="cls-29" transform="translate(118.81 561.33)"><tspan x="0" y="0">3.</tspan></text><text class="cls-29" transform="translate(186.14 700.47)"><tspan x="0" y="0">4.</tspan></text><text class="cls-29" transform="translate(269.29 419.63)"><tspan x="0" y="0">2.</tspan></text></g></svg>