<?xml version="1.0" encoding="UTF-8"?><svg id="Layer_2" xmlns="http://www.w3.org/2000/svg" viewBox="0 0 31.36 26.01"><defs><style>.cls-1{fill:#e96d49;stroke-width:0px;}.cls-2{fill:#231f20;font-family:MyriadPro-Regular, 'Myriad Pro';font-size:4px;}.cls-3{letter-spacing:0em;}.cls-4{letter-spacing:-.03em;}</style></defs><g id="Layer_1-2"><text class="cls-2" transform="translate(1.81 25.01)"><tspan x="0" y="0">Open</tspan><tspan class="cls-4" x="9.26" y="0">W</tspan><tspan x="12.51" y="0">e</tspan><tspan class="cls-3" x="14.51" y="0">a</tspan><tspan x="16.42" y="0">ther</tspan></text><rect class="cls-1" x="4.77" y="16.68" width="17.77" height="2.03" rx=".85" ry=".85"/><path class="cls-1" d="m22.87,9.06c.01-.17.03-.33.03-.5C22.9,3.83,18.4,0,12.84,0S2.77,3.83,2.77,8.56c0,.17.02.34.03.5h20.08Z"/><rect class="cls-1" x="0" y="9.06" width="25.17" height="2.14" rx=".85" ry=".85"/><rect class="cls-1" x="2.77" y="12.49" width="16.61" height="2.14" rx=".85" ry=".85"/><rect class="cls-1" x="20.39" y="12.49" width="5.16" height="2.14" rx=".85" ry=".85"/><rect class="cls-1" x="26.2" y="12.6" width="5.16" height="2.14" rx=".85" ry=".85"/><path class="cls-1" d="m5.14,10.55s2.37,1.71.21,2.57,8.52.47,8.52.47c0,0-2.58-1.61,0-3.45s-8.73.42-8.73.42Z"/><path class="cls-1" d="m9.82,17.3s2.02-2.02,0-2.92,6.17-.69,6.17-.69c0,0-1.4,2.6,0,3.3s-6.17.31-6.17.31Z"/></g></svg>